<?xml version="1.0" standalone="no"?>
<!DOCTYPE svg PUBLIC "-//W3C//DTD SVG 20010904//EN"
 "http://www.w3.org/TR/2001/REC-SVG-20010904/DTD/svg10.dtd">
<svg version="1.0" xmlns="http://www.w3.org/2000/svg"
 width="1140.000000pt" height="1140.000000pt" viewBox="0 0 1140.000000 1140.000000"
 preserveAspectRatio="xMidYMid meet">
<metadata>
Created by potrace 1.11, written by Peter Selinger 2001-2013
</metadata>
<g transform="translate(0.000000,1140.000000) scale(0.100000,-0.100000)"
fill="#000000" stroke="none">
<path d="M8247 10160 c-72 -71 -135 -130 -139 -130 -4 0 -8 -4 -8 -8 0 -8
-269 -281 -280 -283 -3 -1 -81 -82 -175 -179 -93 -97 -175 -178 -182 -179 -6
0 -15 -10 -18 -21 -3 -11 -10 -20 -15 -20 -10 0 -159 -153 -181 -186 -15 -24
-16 -30 -2 -70 28 -84 66 -90 222 -35 63 22 118 38 123 35 4 -3 8 0 8 5 0 6 3
10 8 9 4 0 14 1 22 5 34 13 206 70 220 72 8 2 15 4 15 5 0 0 118 40 262 88
l262 88 133 -133 133 -133 -59 -117 c-32 -65 -59 -119 -59 -120 0 0 -122 -243
-271 -540 l-271 -538 -3643 -1 -3644 -1 -160 159 c-150 149 -162 158 -198 158
-29 0 -46 -7 -68 -30 -36 -35 -44 -69 -25 -108 7 -15 94 -108 192 -204 l177
-176 3740 1 c3396 2 3742 3 3756 18 9 9 90 164 180 345 89 181 166 331 171
332 4 2 7 8 7 14 0 6 89 189 199 407 163 327 198 403 196 433 -3 34 -22 56
-206 240 -229 229 -228 228 -330 188 -30 -12 -56 -22 -59 -22 -8 -1 -10 -2
-240 -78 -118 -40 -222 -73 -231 -75 -8 -2 -32 -10 -52 -19 -20 -8 -37 -13
-37 -10 0 2 160 165 356 361 l355 356 52 -27 c29 -15 68 -36 87 -48 19 -11
132 -75 250 -143 118 -67 231 -132 250 -144 19 -11 42 -24 50 -28 8 -4 58 -32
110 -62 52 -31 106 -62 120 -69 53 -27 140 -78 152 -90 7 -7 15 -12 20 -12 4
0 83 -43 175 -96 93 -53 193 -110 223 -127 30 -17 102 -58 160 -92 58 -34 112
-64 120 -68 8 -4 33 -18 55 -32 22 -14 56 -33 75 -42 19 -10 40 -21 45 -25 6
-5 78 -47 160 -94 83 -47 170 -97 195 -112 25 -14 63 -35 85 -46 38 -21 48
-38 202 -343 l162 -322 -55 -71 c-29 -39 -54 -74 -54 -79 0 -5 -3 -11 -8 -13
-4 -1 -38 -46 -76 -98 -38 -52 -74 -100 -80 -105 -6 -6 -15 -18 -21 -27 -5 -9
-28 -40 -49 -70 l-39 -54 -54 54 c-29 30 -53 58 -53 63 0 5 -4 9 -10 9 -5 0
-33 25 -61 55 -62 64 -93 78 -135 60 -58 -24 -84 -77 -63 -127 19 -47 338
-363 370 -366 64 -7 67 -3 408 463 57 77 107 142 112 143 5 2 9 9 9 16 0 6 13
26 29 43 16 18 27 34 25 36 -3 2 2 10 11 17 8 7 15 22 15 35 0 12 -83 188
-185 390 -102 203 -185 373 -185 378 0 13 -51 56 -75 63 -11 4 -22 9 -25 13
-4 5 -33 22 -95 55 -11 6 -22 13 -25 16 -3 3 -16 11 -30 17 -14 7 -50 27 -80
44 -30 18 -80 45 -110 62 -30 17 -57 33 -60 36 -3 4 -16 12 -30 18 -14 7 -47
25 -75 41 -193 112 -228 132 -232 132 -2 0 -22 12 -46 27 -23 14 -67 40 -97
56 -30 16 -62 36 -71 43 -8 8 -19 14 -22 14 -11 0 -522 294 -525 302 -2 4 -10
8 -17 8 -8 0 -43 18 -77 40 -35 22 -69 40 -75 40 -7 0 -13 5 -13 10 0 6 -4 10
-9 10 -9 0 -242 130 -251 140 -3 3 -16 11 -30 17 -14 7 -52 28 -85 48 -33 20
-68 38 -77 42 -10 3 -18 8 -18 12 0 3 -15 13 -32 20 -18 8 -65 34 -105 58
-147 86 -202 113 -233 113 -28 0 -50 -18 -163 -130z"/>
<path d="M10153 8081 c-43 -11 -60 -37 -82 -127 -13 -49 -25 -100 -28 -114 -4
-22 -17 -80 -27 -120 -10 -35 -29 -117 -32 -135 -4 -22 -79 -336 -117 -490
-13 -55 -27 -93 -30 -85 -5 12 -161 630 -172 680 -40 185 -76 225 -170 186
-36 -15 -55 -41 -56 -78 -1 -24 1 -33 26 -133 9 -33 17 -68 20 -78 2 -10 6
-26 9 -35 3 -9 8 -32 11 -51 3 -19 8 -38 11 -43 3 -4 7 -18 9 -30 8 -39 86
-352 92 -368 3 -8 7 -24 9 -35 5 -42 124 -501 136 -522 10 -20 30 -32 63 -39
6 -1 15 -3 20 -5 6 -2 26 5 46 14 28 14 39 27 49 60 7 23 15 49 18 57 3 8 5
18 4 22 -1 4 5 33 13 65 7 32 26 108 40 168 14 61 29 121 32 135 3 14 8 33 10
43 2 10 17 76 33 145 17 70 33 136 35 147 2 11 4 20 5 20 1 0 4 11 6 25 3 14
10 43 16 65 6 22 12 47 14 55 3 17 9 45 24 111 6 26 13 53 14 60 2 8 6 25 9
39 46 179 68 289 62 317 -9 49 -72 87 -122 74z"/>
<path d="M71 7916 c-39 -14 -71 -49 -71 -80 0 -18 40 -90 59 -106 4 -3 39 -48
78 -100 40 -52 115 -150 167 -218 l94 -123 -15 -62 c-8 -34 -17 -69 -20 -77
-4 -8 -7 -19 -8 -25 -2 -5 -31 -122 -65 -260 -34 -137 -64 -259 -66 -270 -11
-44 -13 -50 -14 -50 -1 0 -3 -9 -5 -21 -3 -11 -16 -68 -31 -125 -14 -57 -28
-112 -29 -122 -2 -9 -6 -21 -9 -26 -3 -5 -8 -24 -11 -42 -3 -19 -23 -101 -44
-183 -27 -102 -36 -157 -31 -175 4 -14 33 -75 64 -135 31 -60 56 -114 56 -121
0 -8 3 -15 8 -17 15 -7 591 -1175 596 -1211 3 -21 8 -57 11 -80 3 -23 7 -51 9
-62 2 -11 7 -45 11 -75 3 -30 9 -68 12 -85 2 -16 6 -46 8 -65 2 -19 6 -51 9
-70 2 -19 7 -57 11 -85 3 -27 8 -61 10 -75 2 -14 7 -43 9 -65 3 -22 8 -60 12
-85 9 -63 11 -77 20 -145 11 -92 12 -100 14 -100 1 0 3 -18 5 -39 4 -39 32
-248 40 -296 4 -25 21 -153 30 -220 11 -89 15 -117 20 -140 3 -14 7 -47 10
-75 5 -56 12 -110 21 -170 8 -49 10 -65 18 -135 4 -30 9 -62 12 -71 2 -9 6
-39 9 -66 2 -28 7 -66 11 -84 3 -19 7 -47 9 -64 3 -37 14 -118 30 -230 26
-180 29 -210 30 -242 0 -18 3 -33 6 -33 3 0 6 -6 6 -12 0 -14 10 -89 18 -148
3 -19 8 -55 11 -80 2 -25 6 -56 9 -70 2 -14 4 -31 4 -38 2 -23 49 -62 75 -62
34 0 96 30 96 47 0 7 4 13 10 13 10 0 7 141 -4 189 -5 21 -15 98 -21 161 -2
14 -4 25 -5 25 -2 0 -6 28 -14 100 -3 33 -8 67 -10 75 -3 8 -7 40 -11 70 -3
30 -7 66 -10 80 -2 14 -7 45 -9 70 -3 25 -8 59 -11 75 -6 35 -14 103 -20 160
-2 22 -6 54 -10 70 -3 17 -8 50 -11 75 -2 25 -6 55 -8 66 -3 12 -8 48 -11 80
-4 33 -9 66 -11 76 -3 20 -13 92 -18 138 -3 19 -7 51 -10 70 -3 19 -8 53 -11
75 -4 22 -8 63 -11 90 -2 28 -7 57 -9 65 -2 8 -7 41 -10 73 -4 32 -8 68 -11
80 -2 12 -6 46 -10 75 -3 29 -8 63 -10 75 -3 12 -7 40 -9 62 -2 22 -5 40 -6
40 -1 0 -3 18 -4 40 -2 22 -4 40 -5 40 -2 0 -10 54 -14 100 -2 22 -6 51 -9 65
-3 14 -9 49 -12 79 -3 30 -7 64 -10 75 -2 12 -7 46 -11 76 -3 30 -7 64 -9 75
-2 11 -6 45 -9 75 -4 30 -9 62 -11 70 -3 8 -7 40 -10 70 -2 30 -7 66 -9 80 -3
14 -7 48 -11 75 -3 28 -8 64 -10 80 -3 17 -7 47 -10 68 -5 37 -22 76 -38 88
-5 3 -9 9 -9 12 0 19 -12 47 -19 47 -5 0 -9 5 -9 10 0 14 -223 464 -232 468
-5 2 -8 8 -8 13 0 11 -357 728 -371 745 -11 13 -21 50 -21 74 0 8 17 80 37
160 21 80 38 150 39 155 1 6 5 19 9 30 3 11 9 31 11 45 3 14 13 52 21 85 9 33
18 72 21 86 3 14 22 93 44 175 21 82 36 152 34 156 -3 5 0 8 7 8 7 0 10 3 7 6
-4 3 12 74 34 157 22 84 42 163 44 177 3 14 12 50 21 80 29 105 29 115 -11
163 -20 24 -36 49 -36 56 0 6 -4 11 -8 11 -5 0 -24 21 -43 48 -33 46 -44 61
-64 85 -6 7 -62 79 -125 161 -141 183 -158 196 -229 172z"/>
<path d="M4983 7266 c-12 -6 -26 -21 -32 -34 -10 -20 -58 -271 -66 -342 -2
-14 -6 -41 -9 -60 -9 -46 -24 -137 -30 -175 -4 -27 -30 -180 -41 -244 -6 -35
-18 -113 -21 -136 -1 -11 -3 -20 -4 -20 -2 0 -4 -9 -5 -20 -5 -37 -15 -100
-31 -185 -9 -47 -18 -98 -19 -115 -2 -16 -7 -46 -10 -65 -4 -19 -9 -44 -10
-55 -8 -58 -16 -103 -21 -125 -3 -14 -7 -43 -10 -65 -3 -22 -7 -47 -11 -55 -3
-8 -7 -28 -8 -45 -1 -16 -8 -61 -15 -100 -18 -101 -20 -117 -24 -145 -2 -14
-6 -38 -10 -55 -3 -16 -8 -45 -11 -63 -2 -18 -6 -45 -9 -60 -7 -31 -17 -88
-21 -117 -1 -11 -10 -63 -19 -115 -9 -52 -18 -108 -21 -125 -2 -16 -6 -39 -9
-51 -5 -23 -9 -79 -7 -107 1 -21 55 -76 76 -78 8 -1 21 -2 28 -3 24 -4 68 25
78 52 12 31 15 41 23 102 3 25 8 55 10 66 2 12 7 37 10 55 3 19 12 77 21 129
9 52 19 109 21 125 3 17 7 44 10 60 2 17 6 41 9 55 2 13 7 42 10 63 4 21 13
75 21 120 8 45 17 96 19 112 3 17 7 41 10 55 2 14 7 41 10 60 3 19 8 46 10 60
2 14 6 39 9 55 2 17 8 50 11 75 4 25 9 53 11 63 10 43 12 55 18 100 4 27 9 59
12 70 2 12 7 38 10 57 3 19 7 49 10 65 3 17 7 41 9 55 1 14 6 40 9 58 13 68
18 98 22 127 2 16 10 65 19 110 8 44 17 96 19 115 3 19 7 44 9 55 3 11 8 40
11 65 3 25 8 56 11 70 3 14 7 39 9 55 3 17 7 42 10 55 3 14 8 41 10 60 3 19
10 60 16 90 6 30 14 85 17 121 5 63 4 66 -27 97 -17 18 -37 32 -43 33 -7 0
-21 2 -32 3 -11 1 -30 -3 -42 -8z"/>
<path d="M3494 6487 c-310 -310 -565 -570 -565 -578 -7 -71 -6 -72 71 -154 41
-44 81 -84 88 -89 8 -4 24 -20 35 -34 12 -14 30 -32 40 -41 52 -45 67 -61 67
-72 0 -7 2 -10 5 -7 3 3 40 -31 83 -76 42 -44 82 -84 88 -88 7 -4 40 -38 75
-74 35 -37 73 -74 83 -83 10 -9 28 -27 40 -40 12 -13 29 -31 39 -40 52 -45 67
-61 67 -72 0 -7 3 -10 6 -7 3 4 22 -12 42 -35 20 -23 42 -45 47 -49 26 -17 65
-58 65 -69 0 -7 2 -10 5 -7 3 3 40 -31 83 -75 42 -44 92 -86 110 -94 30 -12
37 -12 69 4 19 10 43 32 53 48 36 59 31 64 -514 609 -446 446 -506 509 -494
523 7 9 237 240 510 514 314 314 499 506 504 523 16 64 -32 126 -99 126 -39 0
-47 -8 -603 -563z"/>
<path d="M5483 7028 c-35 -25 -49 -71 -34 -109 5 -13 237 -252 515 -530 278
-279 506 -511 506 -515 0 -5 -228 -236 -506 -514 -278 -278 -510 -512 -515
-522 -11 -21 -6 -67 12 -95 17 -28 73 -51 105 -45 28 5 1131 1104 1145 1140
10 26 6 61 -9 88 -6 10 -257 265 -558 567 -518 518 -551 550 -589 554 -31 3
-47 -1 -72 -19z"/>
<path d="M9798 6323 c-23 -6 -39 -54 -53 -163 -3 -30 -9 -68 -12 -85 -7 -42
-10 -62 -18 -130 -4 -33 -9 -69 -11 -80 -6 -29 -15 -86 -19 -126 -2 -19 -4
-34 -5 -34 -1 0 -3 -13 -5 -30 -7 -58 -13 -102 -20 -146 -10 -66 -13 -89 -21
-144 -3 -27 -7 -57 -9 -65 -1 -8 -6 -40 -10 -70 -4 -30 -9 -64 -12 -75 -2 -11
-6 -38 -8 -60 -2 -22 -6 -56 -9 -75 -3 -19 -7 -51 -10 -70 -10 -75 -28 -196
-32 -220 -3 -14 -7 -38 -9 -55 -9 -65 -18 -131 -20 -155 -4 -33 -14 -100 -19
-125 -2 -11 -7 -42 -10 -70 -4 -27 -9 -61 -11 -75 -2 -14 -6 -47 -10 -75 -3
-27 -8 -57 -10 -65 -2 -8 -7 -37 -10 -65 -4 -27 -8 -61 -10 -75 -7 -47 -16
-115 -20 -155 -3 -22 -7 -51 -11 -65 -3 -14 -7 -41 -9 -60 -1 -19 -5 -48 -8
-65 -3 -16 -11 -66 -17 -109 -7 -44 -14 -93 -17 -110 -2 -17 -5 -44 -7 -61 -2
-16 -6 -50 -10 -75 -11 -67 -14 -90 -21 -145 -3 -27 -10 -75 -15 -105 -5 -30
-12 -75 -16 -100 -3 -25 -8 -56 -10 -70 -2 -14 -6 -48 -9 -76 -3 -28 -8 -62
-10 -75 -3 -13 -8 -44 -11 -69 -5 -39 -17 -122 -29 -200 -2 -14 -9 -61 -15
-105 -13 -90 -14 -99 -30 -209 -7 -43 -13 -93 -15 -110 -2 -17 -4 -31 -5 -31
-1 0 -3 -16 -5 -35 -2 -19 -5 -47 -8 -61 -3 -15 -9 -53 -12 -85 -4 -33 -9 -68
-11 -79 -5 -27 -16 -103 -20 -140 -1 -16 -3 -30 -4 -30 -1 0 -3 -11 -5 -25 -1
-14 -6 -47 -10 -75 -4 -27 -9 -59 -10 -70 -2 -11 -6 -43 -10 -70 -5 -28 -9
-76 -9 -108 -1 -55 1 -60 34 -87 37 -31 73 -37 114 -19 29 13 37 37 51 139 4
30 8 64 10 75 2 11 6 45 10 75 3 30 9 62 11 70 3 8 7 38 10 65 2 28 6 59 8 70
6 31 17 103 21 128 1 12 6 49 11 82 4 33 8 70 8 83 1 12 5 22 9 22 5 0 6 3 4
7 -3 5 -1 33 4 63 5 30 11 73 14 95 4 42 13 103 20 145 3 14 7 45 10 70 3 25
8 56 10 70 2 14 7 43 10 65 2 22 7 58 11 80 3 22 7 51 9 65 2 14 4 25 5 25 1
0 3 18 5 40 1 22 5 54 8 70 5 30 16 97 22 145 2 14 6 43 10 65 3 22 8 56 10
75 4 31 7 52 20 140 2 14 6 45 9 70 3 25 7 54 10 65 2 11 7 45 11 75 4 30 9
62 10 71 2 9 6 40 10 69 4 29 8 60 10 69 1 9 6 41 10 71 4 30 9 64 11 75 2 11
7 40 10 65 3 25 7 56 9 70 2 14 6 44 9 68 6 51 25 187 32 222 6 30 12 70 19
130 3 25 8 61 11 80 5 36 10 68 18 130 2 19 7 49 10 65 3 17 8 53 12 80 3 28
7 57 9 65 1 8 6 40 10 70 4 30 9 64 11 75 5 29 13 84 19 135 2 25 6 56 9 70 2
14 7 48 11 75 3 28 9 64 11 80 3 17 7 46 10 65 2 19 6 46 9 60 2 14 7 45 10
70 3 25 8 52 10 60 2 8 7 44 10 80 4 36 8 67 10 70 2 3 6 32 10 65 3 33 10 87
15 120 5 33 12 78 15 100 3 22 8 51 10 65 3 14 7 48 11 75 3 28 7 57 9 65 2
13 17 109 20 135 3 20 -25 77 -46 94 -21 17 -76 24 -111 14z"/>
<path d="M8295 4497 c-60 -23 -113 -45 -116 -50 -3 -5 -10 -8 -15 -8 -11 1
-98 -27 -139 -44 -16 -7 -61 -25 -100 -39 -38 -14 -83 -31 -100 -37 -16 -7
-34 -13 -40 -15 -9 -2 -217 -81 -260 -99 -11 -5 -22 -9 -25 -9 -10 -3 -105
-38 -125 -47 -92 -40 -402 -149 -427 -149 -18 -1 -100 1 -183 4 -82 3 -213 8
-290 11 -77 2 -210 7 -295 11 -85 3 -209 7 -275 9 -66 2 -120 4 -120 5 0 0
-65 3 -145 5 -80 2 -210 7 -290 9 -80 3 -206 8 -280 11 -74 3 -200 7 -280 10
-80 3 -203 8 -275 10 -71 2 -193 7 -270 10 -77 3 -212 8 -300 11 -88 3 -216 7
-285 10 -69 2 -188 6 -265 8 -77 3 -212 7 -300 11 -88 3 -212 8 -275 10 -260
9 -461 17 -560 20 -58 3 -138 5 -178 5 -40 1 -70 5 -68 8 5 9 19 150 18 176
-1 11 -12 31 -26 44 -46 46 -146 20 -165 -43 -12 -38 -30 -193 -35 -287 0 -16
-3 -28 -6 -28 -3 0 -6 -19 -7 -43 -1 -23 -4 -60 -7 -82 -3 -22 -8 -69 -12
-105 -3 -36 -8 -78 -10 -95 -2 -16 -6 -55 -9 -85 -3 -30 -7 -73 -10 -95 -13
-94 -15 -113 -21 -170 -3 -33 -8 -73 -10 -90 -2 -16 -6 -55 -8 -85 -3 -30 -8
-75 -11 -100 -3 -25 -8 -61 -10 -80 -13 -133 -16 -158 -20 -185 -4 -31 -13
-113 -20 -175 -1 -19 -6 -57 -9 -85 -3 -27 -8 -72 -11 -99 -2 -26 -7 -65 -9
-85 -3 -20 -8 -63 -12 -96 -3 -33 -7 -71 -8 -85 -2 -14 -6 -56 -10 -95 -4 -38
-9 -81 -11 -95 -2 -14 -7 -52 -10 -85 -4 -33 -8 -71 -10 -85 -7 -61 -18 -167
-18 -187 -1 -13 -3 -23 -6 -23 -4 0 -6 -21 -7 -48 0 -44 -12 -163 -19 -200 -7
-38 -18 -159 -18 -194 0 -71 77 -106 149 -67 36 19 48 52 59 164 17 169 22
202 31 217 5 7 3 8 -6 3 -9 -5 -11 -4 -6 3 4 7 9 29 11 49 2 21 6 63 9 93 3
30 8 71 11 90 2 19 7 60 10 90 3 30 8 71 10 90 2 19 7 60 10 90 3 30 8 71 10
90 6 43 15 121 20 175 12 126 16 163 20 184 2 14 7 54 10 90 3 37 7 75 9 87 2
11 7 53 11 93 3 40 8 81 10 91 4 20 12 96 21 190 3 30 7 66 9 80 1 14 6 54 9
90 4 36 10 83 12 105 3 22 7 56 9 75 11 111 16 154 24 216 5 38 9 76 10 84 3
35 10 95 11 95 1 0 3 23 5 50 1 28 3 50 5 50 1 0 4 24 6 54 2 30 6 57 9 59 4
5 91 4 270 -4 131 -5 378 -14 535 -19 69 -2 206 -7 305 -10 99 -4 219 -8 267
-9 48 -1 90 -5 94 -8 3 -4 16 -3 29 2 13 5 25 7 28 4 2 -3 62 -7 133 -9 151
-5 392 -14 554 -20 204 -8 442 -17 555 -20 61 -2 187 -6 280 -10 94 -3 231 -8
305 -10 74 -3 191 -7 260 -10 69 -3 193 -7 275 -10 83 -2 211 -6 286 -9 216
-9 391 -15 564 -21 88 -3 185 -8 215 -10 34 -2 68 3 90 12 42 18 291 114 305
117 6 2 17 6 25 9 65 27 207 79 218 80 6 0 12 5 12 10 0 6 3 7 7 4 3 -4 11 -2
18 3 6 5 20 11 31 13 10 2 36 11 58 20 21 9 44 17 50 17 7 0 16 4 22 9 5 4 41
19 79 32 39 13 73 27 76 32 3 5 9 8 13 7 4 -1 19 3 34 8 15 6 72 27 127 47 55
20 126 48 158 61 31 13 57 20 58 16 0 -4 2 -16 4 -27 6 -27 21 -157 30 -260 3
-27 7 -63 9 -80 2 -16 7 -57 10 -90 7 -64 15 -135 20 -175 2 -14 6 -56 10 -95
4 -38 8 -81 11 -95 2 -14 7 -50 10 -80 3 -30 8 -77 11 -105 3 -27 7 -63 9 -80
6 -61 18 -171 21 -200 2 -16 6 -50 8 -75 3 -25 7 -63 10 -85 6 -44 14 -118 21
-185 2 -25 7 -67 11 -95 3 -27 7 -63 9 -80 3 -41 15 -151 22 -200 2 -22 6 -58
8 -80 2 -22 6 -60 9 -85 3 -25 8 -67 11 -95 8 -69 15 -135 29 -255 15 -127 25
-224 31 -285 2 -22 6 -58 9 -80 3 -22 8 -67 11 -100 3 -33 7 -69 10 -80 2 -11
4 -28 4 -37 1 -10 14 -32 29 -49 24 -26 36 -32 76 -33 41 -1 52 3 72 27 21 24
23 35 19 85 -7 73 -14 140 -20 172 -2 14 -7 57 -10 95 -4 39 -8 84 -10 100 -9
69 -30 267 -39 359 -3 27 -7 65 -10 85 -3 20 -8 63 -11 96 -3 33 -8 74 -10 90
-2 17 -7 55 -10 85 -11 107 -14 135 -20 184 -3 26 -8 62 -10 80 -1 17 -6 58
-9 91 -4 33 -9 78 -11 100 -2 22 -6 58 -9 80 -4 39 -11 99 -21 200 -6 56 -11
98 -20 165 -3 25 -7 65 -10 90 -3 25 -7 63 -9 85 -3 22 -8 67 -11 100 -3 33
-8 74 -10 90 -2 17 -7 57 -10 90 -4 33 -8 74 -10 90 -2 17 -6 55 -9 85 -3 30
-8 71 -11 90 -3 19 -8 64 -11 100 -3 36 -8 79 -10 95 -2 17 -6 53 -9 80 -2 28
-7 66 -9 85 -3 19 -7 60 -10 90 -4 30 -8 69 -11 85 -7 37 -57 85 -88 84 -12 0
-71 -19 -132 -42z"/>
</g>
</svg>
