<svg xmlns="http://www.w3.org/2000/svg" id="Layer_1" data-name="Layer 1" viewBox="0 0 181 181">
  <path fill="none" stroke="#333" stroke-miterlimit="10" d="M.5.5h180v180H.5z"/>
  <path fill="none" stroke="#313335" stroke-miterlimit="10" d="M351.21 282.2c6 20.86 3.71 41.73 3.71 41.73H243.85s-12-83 54-83.45c28.8-.18 43.33 15.67 50.55 33.6a82.71 82.71 0 012.81 8.12z" transform="translate(-234 -153)"/>
  <path fill="none" stroke="#313335" stroke-miterlimit="10" d="M319.83 194.9h12.35a12 12 0 0112 12v21.58a12 12 0 01-12 12h-66a12 12 0 01-12-12V206.9a12 12 0 0112-12h53.67z" transform="translate(-234 -153)"/>
  <path fill="none" stroke="#313335" stroke-miterlimit="10" d="M40.99 41.9l-4.5-22.11 1.34-.22 4.55 22.33"/>
  <path fill="none" stroke="#313335" stroke-miterlimit="10" d="M268.16 170.15a2.52 2.52 0 112.52 2.52 2.52 2.52 0 01-2.52-2.52z" transform="translate(-234 -153)"/>
  <path fill="none" stroke="#313335" stroke-miterlimit="10" d="M85.83 41.9l5.4-26.52-1.6-.27-5.46 26.79"/>
  <path fill="none" stroke="#313335" stroke-miterlimit="10" d="M328 165.22a3 3 0 10-3 3 3 3 0 003-3z" transform="translate(-234 -153)"/>
  <path fill="none" stroke="#313335" stroke-miterlimit="10" d="M348.44 274.08s39.07-15.73 36.77-44.31h0" transform="translate(-234 -153)"/>
  <path fill="none" stroke="#313335" stroke-miterlimit="10" d="M351.21 282.2s42.36-14.21 42.36-52.46" transform="translate(-234 -153)"/>
  <path fill="none" stroke="#313335" stroke-miterlimit="10" d="M385.21 229.77c-14-2.7-11.21-19.13-11.21-19.13h6.81s-2.17 13.91 8.59 13.08 8.92-13.08 8.92-13.08h6.59s2 16.3-11.34 19.1a20.3 20.3 0 01-4.45.41 21.16 21.16 0 01-3.91-.38z" transform="translate(-234 -153)"/>
  <rect width="81.05" height="35.58" x="24.82" y="46.22" fill="none" stroke="#313335" stroke-miterlimit="10" rx="10.67" ry="10.67"/>
  <path fill="none" stroke="#313335" stroke-miterlimit="10" stroke-width="5" d="M36.49 57.64s.82-6.57 7.51-6.6c7.33 0 7.17 6.6 7.17 6.6"/>
  <path fill="none" stroke="#313335" stroke-miterlimit="10" stroke-width="5" d="M69.49 57.64s.81-6.57 7.5-6.6c7.34 0 7.17 6.6 7.17 6.6"/>
  <path fill="none" stroke="#313335" stroke-miterlimit="10" stroke-width="5" d="M40.85 70.86s2.67 6.93 19.68 6.93 21.52-6.93 21.52-6.93"/>
</svg>
