<svg xmlns="http://www.w3.org/2000/svg" id="Layer_1" data-name="Layer 1" viewBox="0 0 161.98 33.03">
  <path fill="none" stroke="#000" stroke-linecap="round" stroke-linejoin="round" stroke-width=".5" d="M56.65 27.22s-17.9 12.87-24.69-9.26S.25 7.56.25 7.56v1.61c.17-.36 24.66-12.25 30.73 10.49 5.46 20.43 26.29 9 26.29 9"/>
  <path fill="none" stroke="#000" stroke-linecap="round" stroke-linejoin="round" stroke-width=".5" d="M58.98 25.36s-2.94.54-2.22 2.52 3.34.7 3.34.7"/>
  <path fill="none" stroke="#000" stroke-linecap="round" stroke-linejoin="round" stroke-width=".5" d="M77.44 27.96l-12 4.61a3.1 3.1 0 01-4-1.77l-3.85-9.95a3.4 3.4 0 012-4.4l11.67-4.5c-1.16-2.41.31-3.25 1.41-.55s5.07 12.59 6.19 16c.76 2.08-.39 2.66-1.42.56z"/>
  <path fill="none" stroke="#000" stroke-linecap="round" stroke-linejoin="round" stroke-width=".5" d="M71.25 11.95l6.19 16z"/>
  <path fill="none" stroke="#000" stroke-linecap="round" stroke-linejoin="round" stroke-width=".5" d="M70.06 16.37l3.58 9.26"/>
  <path fill="none" stroke="#000" stroke-linecap="round" stroke-linejoin="round" stroke-width=".5" d="M68.96 18.42l2.43 6.27"/>
  <path fill="none" stroke="#000" stroke-linecap="round" stroke-linejoin="round" stroke-width=".5" d="M68.12 20.69l1.12 2.88"/>
  <path fill="none" stroke="#000" stroke-linecap="round" stroke-linejoin="round" stroke-width=".5" d="M107.34 5.48c.15-.35 23.41-11.52 29.34 10.67 5.33 19.94 25.06 8.88 25.06 8.88v-1.55s-17.47 12.56-24.1-9-30.95-10.15-30.95-10.15"/>
  <path fill="none" stroke="#000" stroke-linecap="round" stroke-linejoin="round" stroke-width=".5" d="M105.18 7.81s3-1 2-2.92-3.57-.14-3.57-.14"/>
  <path fill="none" stroke="#000" stroke-linecap="round" stroke-linejoin="round" stroke-width=".5" d="M82.91 7L97.45.48l7 15.66-14.53 6.49c1.28 2.34-.14 3.26-1.38.62s-5.72-12.3-7-15.66c-.88-2.03.23-2.64 1.37-.59z"/>
  <path fill="none" stroke="#000" stroke-linecap="round" stroke-linejoin="round" stroke-width=".5" d="M89.93 22.66L82.93 7z"/>
  <path fill="none" stroke="#000" stroke-linecap="round" stroke-linejoin="round" stroke-width=".5" d="M83.52 12.29l-5.25 2.36a.53.53 0 00-.29.66l.1.27a.52.52 0 00.71.31l5.26-2.41"/>
  <path fill="none" stroke="#000" stroke-linecap="round" stroke-linejoin="round" stroke-width=".5" d="M86.24 18.3l-5.06 2.33a.49.49 0 00-.23.66l.1.21a.58.58 0 00.75.27l5-2.3"/>
  <path fill="none" stroke="#000" stroke-linecap="round" stroke-linejoin="round" stroke-width=".5" d="M85.86 13.59l7.02-3.26 1.65 3.64-7.05 3.23"/>
  <path fill="none" stroke="#000" stroke-linecap="round" stroke-linejoin="round" stroke-width=".5" d="M97.45.48l.56-.24a.32.32 0 01.4.16l6.82 15.08a.31.31 0 01-.16.42l-.61.26"/>
  <path fill="none" stroke="#000" stroke-linecap="round" stroke-linejoin="round" stroke-width=".5" d="M99.44 2.71l1.65-.65a1.21 1.21 0 011.55.63l3.28 7.33a1.24 1.24 0 01-.65 1.66l-1.47.64"/>
</svg>
