<svg xmlns="http://www.w3.org/2000/svg" viewBox="0 0 641 401">
  <path id="CityGroup" fill="#d1e3dd" d="M-.43 479.08v-15-1.06a4 4 0 01.63-.08h24.42c.16-.28 0-.4-.08-.52a3.06 3.06 0 01-.23-3.27 5.37 5.37 0 014.5-3.28c.63-.08 1.26-.2 1.94-.24a22.84 22.84 0 012.33 0c.31 0 .59.08 1 .12a4.12 4.12 0 00.12-.59v-56.33c.32-.08.56-.19.87-.27a2.36 2.36 0 00.08-.56v-1.85a1.54 1.54 0 00-.43-1.31c-.24-.19-.28-.59-.44-1 .24 0 .44-.15.59-.15h9.84a1.15 1.15 0 01.52 0 10.48 10.48 0 001.81.63c.32.16.64.28.91.43a1.57 1.57 0 01.87 1.5v.64c.28.08.55.12.83.19l.12 1.31a12 12 0 003.79 0c.08-.24.16-.48.28-.79h4.31c.07.31.11.51.19.79.2.08.44.2.75.31V455a15.48 15.48 0 011.74.39c.52.16 1 .4 1.54.63 0-.19.08-.35.12-.55V420.6c.2-.12.4-.23.63-.39a10.37 10.37 0 000-2.49l-.47-.24v-.2l.24-.35a1.62 1.62 0 011.54-.75c1.1.08 2.17 0 3.28 0a9.75 9.75 0 001.06 0 9.13 9.13 0 00.56-2.29c0-.16-.12-.4-.16-.6a1.5 1.5 0 01.59-2 2.3 2.3 0 00.79-1.15c.48-1.1 1-2.17 1.46-3.28a2.51 2.51 0 00.32-1.06 1.6 1.6 0 01.71-1.31 2.58 2.58 0 00.87-1 42.76 42.76 0 013.6-4.71 34.57 34.57 0 013-2.88 40.43 40.43 0 0112.72-7.47 43.86 43.86 0 0116.87-2.68 42.82 42.82 0 0123 7.23 36.31 36.31 0 014.59 3.59c.31.28.59.55.91.79.35-.16.71-.12.91-.51.83-.52 1.54-1.23 2.33-1.78.55-.4 1.06-.87 1.58-1.3a72.6 72.6 0 012.09-1.66 1 1 0 01.48-.12h4.18a.89.89 0 01.52.24c.95.79 1.93 1.58 3 2.33.28.19.43.63.87.63.16.35.63.35.75.63s.71.28.79.71c.79.48 1.42 1.15 2.17 1.66a3.11 3.11 0 01.56.63l1.54.12c.31.24.23.52.23.79a9.34 9.34 0 00.08 1.74c.79.32 1.66 0 2.49.24a12.63 12.63 0 010 2.13v2.09a5.54 5.54 0 00.71.12h4.15a4.42 4.42 0 01.12.64v45.79a3.12 3.12 0 00.12 1.34c.83-.08 1.7-.2 2.57-.28a3 3 0 011.3-1.5 4.41 4.41 0 012-.31 6.16 6.16 0 00.11-.64v-38.7c0-3.68 0-7.35.36-11a68.09 68.09 0 013-15.92 25.34 25.34 0 012.81-6.05 2.93 2.93 0 011.38 0 12.39 12.39 0 010 3.24c-.44.24-1 0-1.46.2-.28.2-.24.48-.28.75l-.59 6.52c-.28 3-.52 5.93-.75 8.85a34.55 34.55 0 000 4.07 2.05 2.05 0 001.38.08 4.34 4.34 0 00.08-.67v-2.06a6.61 6.61 0 01.08-.83l.51-.11h8.3a2.54 2.54 0 01.47.07c.24 1.15 0 2.37.16 3.56a3 3 0 001.15.12c.31-.28.23-.55.23-.83a57.73 57.73 0 00-.31-6.95c-.16-1.86-.36-3.76-.52-5.62-.19-2.09-.39-4.22-.55-6.32a4.57 4.57 0 00-.12-.63l-1.5-.12a8.24 8.24 0 01-.08-3.28 2.67 2.67 0 011.35-.08 14.46 14.46 0 011.62 2.93 35.5 35.5 0 012 5.57 79.27 79.27 0 012.1 11.77 116.09 116.09 0 01.51 11.66V454.14l1.26.91c.24-.16.48-.36.71-.52s.56-.27.87-.43a17 17 0 000-2V444c0-.67 0-1.34-.08-2a15.1 15.1 0 01.08-1.9v-8.22a10.38 10.38 0 000-1.93 19.23 19.23 0 010-2 17.52 17.52 0 010-2.05v-2.1a10.38 10.38 0 000-1.93 11.36 11.36 0 010-2v-2.07a11.84 11.84 0 000-2.06 9.88 9.88 0 010-1.89v-2.06a6.32 6.32 0 00-.16-2.09 10.54 10.54 0 011.07-.2c.28-.47.08-.83-.16-1.26.64-.71 1.23-1.39 1.86-2.06a1.89 1.89 0 00.59-1.78 1.54 1.54 0 01.44-1.26 1.56 1.56 0 01.51 1.11 2.24 2.24 0 010 .51 1.55 1.55 0 00.44 1.22c.67.76 1.3 1.51 2 2.3a1.12 1.12 0 00-.2 1.22l.52.12a1.93 1.93 0 00.47.08v1.89a2.16 2.16 0 00.4.12h5.8c.08 0 .12 0 .23-.08a3.78 3.78 0 000-1.89 10.54 10.54 0 011.07-.2 1.06 1.06 0 00-.2-1.22c.6-.68 1.11-1.31 1.7-1.94a2 2 0 00.67-1.82 1.42 1.42 0 01.48-1.3 1.36 1.36 0 01.47 1.22 2.13 2.13 0 00.71 1.94c.44.43.83.91 1.27 1.38a5.75 5.75 0 00.51-.43c.4-.48.79-.91 1.23-1.39a1.26 1.26 0 00.39-1 3.41 3.41 0 01.4-2 2.76 2.76 0 01.51 1.74 1.63 1.63 0 00.47 1.38l1.94 2.18c-.16.39-.39.79-.12 1.26.28 0 .63.12 1 .16a5.22 5.22 0 000 1.93 1.8 1.8 0 00.39.08h5.54a1.59 1.59 0 00.31-.12v-.9c0-.31-.08-.6-.12-1l1-.24c.36-.47 0-.83-.12-1.26.32-.36.59-.67.91-1a12 12 0 001-1.3 2 2 0 00.35-1.23 2.38 2.38 0 01.2-1.18 7.29 7.29 0 00.36-1.27c.12.16.23.24.27.32l.36 1.18a2.28 2.28 0 01.08.91 1.79 1.79 0 00.51 1.38c.63.72 1.27 1.43 1.9 2.14.12.39-.52.63-.16 1.1a3.8 3.8 0 01.79.2c.12 0 .28.28.24.4a25 25 0 00-.12 3.87 20.37 20.37 0 010 2.21 26.18 26.18 0 00-.12 3c0 .6 0 1.23.08 1.82 0 .32-.08.59-.08.91v18.06c0 .59.08 1.14.08 1.73 0 .32-.08.68-.08 1v10.36a2.75 2.75 0 00.08.52c.51.08 1 .12 1.42.23a2.69 2.69 0 011.94 1.23 1.28 1.28 0 001 .55 4.33 4.33 0 00.08-.63v-27.5c0-.55-.08-1.07-.12-1.62a10.11 10.11 0 010-1.1V398.2a2.8 2.8 0 01.27-1.58 1.4 1.4 0 00.08-.71v-1.54-10.23c0-.52-.08-1 .4-1.43.16-.15.12-.51.12-.79v-4.11a3.38 3.38 0 01.39-1.77c.28-.56.51-1.11.75-1.66a2.16 2.16 0 01.67-1 2.05 2.05 0 00.44-.67c.39-.79.75-1.62 1.1-2.41a1.71 1.71 0 01.75-.91 1.63 1.63 0 00.48-.63c.75-1.51 1.46-3 2.21-4.51.16-.31.4-.63.59-.95a2.19 2.19 0 00.28-.55 24.1 24.1 0 011.15-2.84 1.81 1.81 0 00.12-.91 5.61 5.61 0 01.35-2.29 2.31 2.31 0 00.12-.91v-2.45a6.17 6.17 0 01.2-1.19 1.31 1.31 0 01.23-.31 1.49 1.49 0 01.48 1.3v2.57a3.49 3.49 0 00.16 1.1 4.67 4.67 0 01.27 1.9 2.68 2.68 0 00.4 1.74 10.87 10.87 0 01.59 1.5 6.21 6.21 0 00.83 1.62 7 7 0 01.79 1.54c.55 1.15 1.11 2.25 1.66 3.4a1.83 1.83 0 00.79.91 1.25 1.25 0 01.51.59c.4.79.75 1.62 1.11 2.41a3.45 3.45 0 00.71 1.11 1.86 1.86 0 01.44.67c.31.67.59 1.38.94 2a3.68 3.68 0 01.36 1.58v3.8a2 2 0 00.32 1.34 1.35 1.35 0 01.11.79v11.85a2.55 2.55 0 00.24 1.31 1.39 1.39 0 01.12.71 6.9 6.9 0 010 .91v49.7a7 7 0 01-.16 1.82 5.62 5.62 0 000 1.42c.4.36.79.67 1.23 1 .31-.28.63-.52.9-.79a2.31 2.31 0 011.27-.64c.43-.07.87-.15 1.34-.27 0-.24.12-.48.16-.67v-93.51a2.71 2.71 0 011-2.06 6 6 0 01.75-.55 9.26 9.26 0 013.91-1.34 16.26 16.26 0 001.9-.36.8.8 0 00.47-.25c.24-.35.55-.31.91-.35l3-.24a5.79 5.79 0 00.12-.75v-3.48a1.19 1.19 0 00-.27-.94.57.57 0 010-.83.61.61 0 000-.91.57.57 0 010-.83.64.64 0 00.07-.91.6.6 0 010-.75 1 1 0 000-1.31.27.27 0 010-.19c.51-.79.79-.71 0-1.74.08-.08.15-.2.23-.28.4-.47.4-.63 0-1.1-.08-.08-.15-.2-.27-.32.12-.12.16-.24.27-.32.4-.43.4-.67 0-1.1-.08-.08-.15-.2-.23-.28.08-.12.12-.24.15-.28a.71.71 0 00.36-.79V327a.4.4 0 01.36-.43c.23 0 .39.16.43.47a4.33 4.33 0 010 .72v7a1.28 1.28 0 00.28.24c.43.31.47.39.16.79s-.36.47 0 .9c.19.24.31.48.11.72a.89.89 0 000 1.26.3.3 0 010 .2 2.46 2.46 0 00-.35.91c0 .27.23.55.35.87a3.12 3.12 0 01-.16.35.66.66 0 000 1 .55.55 0 010 .75.83.83 0 000 1.18s0 .12.08.24a2.35 2.35 0 00-.35.87 2.66 2.66 0 00.39 1 2.76 2.76 0 00-.47 2v2.45a1.64 1.64 0 00.2 1 3.33 3.33 0 00.67.08h1.93c.52 0 1-.08 1.39.47.08.12.31.12.47.16.44.12.87.2 1.3.28a22.16 22.16 0 013.72 1.22 3.39 3.39 0 013.12-.51.85.85 0 01.71.87v93.28a4.07 4.07 0 00.12.63c.2 0 .39.12.59.16a11 11 0 011.11.24 3.13 3.13 0 012 1.5c.08.16.2.32.4.71a7.63 7.63 0 000-.83v-39.1c0-.56.16-.79.67-.83l.43-.12a2.32 2.32 0 00.12-1.15v-7.66-1.23c.32-.16.59-.27.87-.39a.58.58 0 00.01-.27v-3.71c.32-.2.55-.36.79-.52.28-.75-.08-1.58.32-2.37.27-.08.55-.16.87-.27a1.71 1.71 0 00.15-1.07 1.18 1.18 0 01.64-1.26 2.11 2.11 0 00.55-.6c.87-1.18 1.74-2.33 2.65-3.51.15-.24.31-.44.47-.68.43-.55.63-.55 1 0l.59.82c.79 1 1.54 2.06 2.33 3.13a4 4 0 001.07 1.1c.16.08.23.32.27.52s0 .55 0 .83a5.42 5.42 0 00.08.79c1.15.35 1.15.35 1.15 1.54v1.14l.79.36c.27 1.3 0 2.65.24 4 .27.16.51.28.86.47 0 .44.08.87.08 1.31v7.58a2.39 2.39 0 00.12 1.19c.08 0 .12.12.2.12.83.11.91.27.95 1.14v51.36a2 2 0 00.63.16 11.65 11.65 0 002.88-.12c0-.23.08-.43.12-.63v-64.2-1.23a.72.72 0 01.24-.55.92.92 0 00.35-.79c0-.67.16-1.34.2-2 0-.48.16-.79.67-.87.08 0 .16-.08.32-.2a6.84 6.84 0 01.67-3.28c.55.28.36.87.75 1.26v-2.25c0-.67.08-.79.75-.83a1.12 1.12 0 00.95-.67c.67-1.11 1.34-2.21 2.06-3.32.55-.87 1.06-1.74 1.62-2.61a4.41 4.41 0 00.75-2.68 6.35 6.35 0 00-.12-1.94 1.46 1.46 0 010-.59c.27-1 .59-1.94.91-2.93 0-.07.11-.15.19-.27.12.12.32.2.36.35.32 1 .63 1.94.91 2.93a1.1 1.1 0 010 .51 9.21 9.21 0 00-.12 2.33 4 4 0 00.63 2.21c1.23 2 2.45 4 3.68 5.93.27.48.55.83 1.18.79.4 0 .55.16.59.55a5.84 5.84 0 010 .83v1.35c.4-.2.2-.79.75-.87a6.33 6.33 0 01.56 3.24l.87.39a1 1 0 01.12.36 11.57 11.57 0 00.27 2.33 1 1 0 00.28.63 1.13 1.13 0 01.39 1v36.63c0 1.81.08 3.59.08 5.41 0 5.33 0 10.71-.08 16a2.64 2.64 0 00.16 1.34 8 8 0 002.57-.35 1.59 1.59 0 00.2-1.11v-5.41a1.23 1.23 0 01.19-.95 2.46 2.46 0 01.56 0l4.11.71 4.22.71a5.84 5.84 0 00.83 0H365a1.77 1.77 0 001.07-.16 2.06 2.06 0 000-.43 4.73 4.73 0 00-.52-1.11 2.22 2.22 0 01-.27-1.85.55.55 0 01.55-.52 5.7 5.7 0 01.83 0h5.53c1.86 0 3.52.24 5.29.36h1.43a.78.78 0 00.83-.48.76.76 0 01.67-.39h.12c1.1.08 1.1-.28 1.1-1.23v-8.1a6.31 6.31 0 01.12-1.22.63.63 0 01.55-.51H386.73a1.26 1.26 0 01.39 0 .54.54 0 01.48.47 8.87 8.87 0 010 1v8.49a6.63 6.63 0 000 .91.49.49 0 00.47.47 4.29 4.29 0 00.71 0H392c.6 0 .76.2.79.83v.91c0 .48.12.6.56.71l1 .24c1.46.4 2.88.75 4.34 1.15l1 .23a2 2 0 00.16-.63v-1.86-66.73c0-.94 0-1.89.08-2.84a7.14 7.14 0 01.11-.79 5.64 5.64 0 011.78-.24h13.91c1.34 0 1.42.08 1.42 1.46v3.09c0 .59.16.71.75.75h3.68c.83 0 1 .19 1 1.06v16.56a8.7 8.7 0 000 1 .59.59 0 00.6.6 4.17 4.17 0 00.71 0h2.45a5.84 5.84 0 01.83 0c.59.08.75.27.79.87V420.13a1.17 1.17 0 001 .31h3a.83.83 0 011.34.76c0 3.12.12 6.2 0 9.32-.12 3 0 5.93-.08 8.89v.47a4.11 4.11 0 00.67.12h4.55a5.61 5.61 0 01.12.59 6.9 6.9 0 010 .91v13.75a2.51 2.51 0 00.55 0 44.89 44.89 0 017.19-1 4.27 4.27 0 00.71-.07c.08 0 .12 0 .24-.12 0-.12 0-.28-.08-.44-1.07-2.29-2.17-4.54-3.24-6.83a1.58 1.58 0 00-.55-.71 1.58 1.58 0 01-.64-1.35 2.18 2.18 0 00-.19-1.1 2.44 2.44 0 01.31-2.53 2.22 2.22 0 01.24-.32 1.19 1.19 0 00.32-.95 6.12 6.12 0 010-.83c.67-.15 1.3.24 2 0a2.56 2.56 0 00-.2-1.1c-.51-1.7-1-3.4-1.5-5.1-.08-.2-.2-.43.08-.63.32 0 .32.31.4.51.47 1.35.9 2.73 1.34 4.07.24.67.47 1.34.67 2a.77.77 0 00.67.55l.83.12c3.83.51 7.63 1 11.46 1.58.79.12 1.54.31 2.29.47 2.57.6 5.1 1.23 7.67 1.86l.39.12c.08.24.16.43.24.75 2.53 1 5.14 1.9 7.78 2.88a2.1 2.1 0 00.16-.59 10.28 10.28 0 000-1.11v-103.2a4 4 0 01.12-1.54 4.29 4.29 0 01.71-.08H482.05c.27-1.19 0-2.41.19-3.6.68-.31 1.43 0 2.18-.24a5.72 5.72 0 00.08-.79v-3.67a1.67 1.67 0 01.15-1c1.19-.23 2.45 0 3.76-.16.19-1.18 0-2.33.16-3.47.59-.36 1.22 0 1.85-.28a11.41 11.41 0 00.08-2.61v-2.56a4.49 4.49 0 01.52-.2 3.46 3.46 0 01.47-.12c0-.44.12-.87.16-1.3.23-.12.43-.2.67-.32 0-.36.08-.67.12-1.07a3.83 3.83 0 01.59-.35 3.51 3.51 0 00.08-.67V317c0-.55.16-.59.87-.4v2.22c.2.11.39.19.59.31 0 .36.08.71.12 1.11.24.12.43.2.71.31 0 .4.08.79.12 1.23.28.08.55.16.87.28a1.05 1.05 0 01.08.35v4.87c.59.32 1.26 0 1.89.28a2.89 2.89 0 01.08.59v2.13a5.16 5.16 0 00.08.79c1.27.2 2.49 0 3.68.12a.89.89 0 01.23.79v4.68c.71.32 1.46 0 2.17.28.2 1.15 0 2.37.16 3.6l.67.11H508a9.22 9.22 0 011 0 5.7 5.7 0 01.12.64v105.27a6.05 6.05 0 00.08 1.46 14.93 14.93 0 002.68.08 5.9 5.9 0 01.16-.59 8.85 8.85 0 000-1v-63.84a3.08 3.08 0 01.12-1.46c.51 0 1.07-.08 1.62-.16.24-1 0-1.93.16-2.92.2-.24.51-.36.63-.71a.88.88 0 011-.59 1 1 0 001.07-.28c.07-.08.23-.08.39-.12.12-.55.12-.55-.2-1a2.74 2.74 0 00.2-.63 2.13 2.13 0 000-.71 7.31 7.31 0 00-.16-2.45.18.18 0 010-.2c.24-.39 0-.79-.08-1.18a3.39 3.39 0 00.32-.63c.08-.28.24-.44.47-.44s.52.16.6.48a2.73 2.73 0 00.15.31c1.58.08 3.16 0 4.82 0 .08-.2.16-.39.24-.55a.52.52 0 01.91 0 1.46 1.46 0 01.12.39 2.81 2.81 0 00.27.36c0 .43-.31.87-.07 1.34a6.5 6.5 0 00-.16 2.33v.32a1.93 1.93 0 00.31 1.18c-.15.28-.51.56-.23 1.07a3.5 3.5 0 00.35.12 5.07 5.07 0 001 .24 1.18 1.18 0 011 .43c.2.28.27.59.59.79.12 0 .12.32.12.48v2.39c.55.35 1.18 0 1.78.31 0 .36.12.75.15 1.19a3.19 3.19 0 00.6.12h9.08a4 4 0 00.64-.08c0-.44.12-.83.15-1.23.56-.31 1.19 0 1.74-.27.2-.95 0-1.9.12-2.85.2-.24.52-.36.63-.75a.83.83 0 011-.55 1.13 1.13 0 001.11-.28c.08-.08.24-.08.35-.12.08-.59.08-.59-.23-1a4.71 4.71 0 00.27-.71 4.17 4.17 0 000-.71 8.52 8.52 0 00-.16-2.45c0-.16.12-.39.12-.59s-.15-.51-.19-.71c.11-.24.27-.44.35-.67a.55.55 0 01.51-.4c.32 0 .48.2.52.52 0 .07 0 .11.08.19.51.24 1.06 0 1.58.08s1.1 0 1.62 0h1.66l.23-.55a.5.5 0 01.91 0c.12.24.24.47.4.83 0 .31-.36.71-.08 1.14v.2a8.39 8.39 0 00-.16 2.65 5.88 5.88 0 00.24 1.22c-.08.16-.48.4-.2.87.16.28.59.08.75.44 0 .08.24.12.36.08a1.1 1.1 0 011.46.71v.08a2.1 2.1 0 01.51 1.62v1.58c.55.39 1.15.08 1.7.35a2 2 0 01.12.52 10.09 10.09 0 010 1.1v65.11l1 .24c0 .48.07.91.11 1.35.32.31.68.23 1.07.11a3.75 3.75 0 00.16-1.5v-1.58c-.24-.24-.71-.35-.59-.83 0-.16.08-.39.27-.39.52 0 .52-.44.67-.79a5.93 5.93 0 012.06 0c.12.23.2.51.31.71.6.12.4-.51.76-.71a6 6 0 011.89 0 1.14 1.14 0 00.16.39c.08.12.16.36.28.36s.27-.2.35-.4a2.54 2.54 0 00.12-.31 8.53 8.53 0 012-.08c.07.16.15.27.19.39s.08.36.32.36.28-.24.36-.44a.82.82 0 01.15-.27 6.84 6.84 0 012 0 5.52 5.52 0 01.27.67c.08.16.36.12.44 0s.12-.39.2-.59a6.07 6.07 0 012.09 0c.08.2.16.43.28.67a5.52 5.52 0 00.67.24v.47c0 .4-.32.4-.59.59a27.26 27.26 0 000 3.12 1.93 1.93 0 001.34 0 1.78 1.78 0 00.16-1.1v-6.13-1.14a8.33 8.33 0 011-.16c.2-.28.16-.71.6-.83.12 0 .19-.35.19-.51v-2.81a3 3 0 01-.55-.39 1.34 1.34 0 01-.2-.56 2.76 2.76 0 01-.67-.23c-.2-.12-.12-.48-.39-.56s-.36-.39-.32-.67a.48.48 0 01.16-.35c.35-.16.35-.48.43-.75a7.3 7.3 0 014-5.18 13.2 13.2 0 011.31-.63 1.69 1.69 0 011.38-1.66 21.13 21.13 0 000-2.77.8.8 0 00-.12-.27 1.34 1.34 0 01.36-1.74 9.57 9.57 0 011.22-.83 5.71 5.71 0 000-1.66 3.51 3.51 0 01.56-2.06 3.78 3.78 0 01.51 2.49 4.55 4.55 0 000 1.27 6.24 6.24 0 01.71.39 2.09 2.09 0 011 1.15 1.08 1.08 0 010 1 .91.91 0 00-.16.47v2.61c1.14.63 1.14.63 1.42 1.66.36.19.75.35 1.15.55a7.61 7.61 0 013.63 3.75c.2.48.32.95.48 1.47.08.31.08.63.43.86a.59.59 0 01-.08 1c-.08.08-.24.08-.24.16-.11.51-.55.55-1 .63a.82.82 0 01-.67.87V440a1.44 1.44 0 01.75.95c.15 0 .31 0 .47.08s.32.08.55.12v8.24a2 2 0 001.42.07c0-.11.12-.19.12-.31v-2.77c-.19-.16-.43-.23-.51-.43a2.77 2.77 0 01-.08-.63c.24-.08.44-.2.67-.28.08-.2.16-.4.24-.67a5.66 5.66 0 012 0c.08.12.12.2.16.27s0 .44.32.48.31-.28.39-.48.08-.11.12-.23a5.1 5.1 0 012.06 0 1.26 1.26 0 01.15.2c.12.19 0 .55.36.51s.28-.24.32-.44l.15-.27a8.19 8.19 0 012 0c.08.16.12.35.2.51s.19.24.27.2.2-.16.28-.24a2.18 2.18 0 00.16-.47 7.07 7.07 0 012 0c.12.27.24.55.32.75.59.08.39-.51.71-.71a6 6 0 011.9 0 2.66 2.66 0 00.27.59 1.74 1.74 0 00.6.32c.11.67.11.67-.4 1a10.31 10.31 0 000 3.16 1.17 1.17 0 00.36.08h.9c.16-.23.28-.43.44-.67a7.85 7.85 0 002.41-.83c.2-.08.28-.31.47-.55h1.15c.2.28.32.55.71.67s.83.44 1.26.59a3.4 3.4 0 00.91.16c.12.2.2.36.32.59 1 .2 2.13 0 3.28.12 0 .2 0 .4.08.63-.28.12-.56.2-.75.28a49.85 49.85 0 000 6.48c.12 0 .23 0 .35.08.36.12.36.12.36.71-.2 0-.44.12-.67.16 0 0-.12.12-.12.16a27.56 27.56 0 000 3.63c.31.24.87 0 .95.59 0 .08.19.16.31.16a6.9 6.9 0 00.91 0h14.62v16.16q-319.03.52-638.61.36zm118.61-31.25a1.73 1.73 0 000-.2s0 .08.08.16 0 .11 0 .19l1.66 4.9c0 .08.16.08.24.12a.73.73 0 000-.79c-.52-1.3-1-2.57-1.58-3.87-.12-.16-.28-.34-.4-.51zm-18.73 0c-.08.07-.23.15-.27.27-.71 1.78-1.46 3.56-2.18 5.38a2.19 2.19 0 00.08.23.33.33 0 00.48-.2c.23-.59.43-1.22.63-1.81.39-1.31.79-2.61 1.26-3.87a.21.21 0 01.08-.16v-.08s-.12 0-.12.08 0 .12.04.16zm4.71-17.39c-.28-.08-.36.12-.48.28-.91 1.46-1.78 3-2.69 4.42a2.85 2.85 0 00-.23.56 1.78 1.78 0 001 .47 2.6 2.6 0 00.28-.55c.51-1.23 1-2.45 1.46-3.68.24-.47.44-1 .64-1.5a1.16 1.16 0 010-.16zm6.47-12.76c.32-.12.44-.44.56-.67.55-.91 1.1-1.82 1.62-2.73 1.1-1.86 2.25-3.71 3.36-5.61a1.88 1.88 0 00.43-1 7.22 7.22 0 00-2.33-.79 5.21 5.21 0 00-.32.68c-1.06 3.08-2.09 6.16-3.16 9.28-.08.28-.08.59-.16.87v.16a.3.3 0 010-.19zm-3.63-.08a.36.36 0 000 .2.3.3 0 010-.2c-1.19-3.4-2.33-6.83-3.48-10.23-.08-.2-.19-.36-.27-.56a12.3 12.3 0 00-1.86.64c-.16.08-.32.19-.51.31.15.28.27.56.39.75l3.79 6.29c.48.82 1 1.62 1.5 2.44.12.24.2.44.44.36zm-35.52-6.52a2.77 2.77 0 001.07.51c2.29.6 4.58 1.23 6.91 1.86.2 0 .44 0 .71.08.32-.71.63-1.42.91-2.09a18 18 0 00.95-2 37.66 37.66 0 00-6-2.84 2.28 2.28 0 01-2.88.91 11.08 11.08 0 00-1.63 3.57zm14.3-6.56l1.23-1.1 1.14-1a15.24 15.24 0 001.23-1c0-.12 0-.2-.08-.24L85.55 397a.9.9 0 00-.64-.32 1.87 1.87 0 01-1.5-1c-.08-.12-.2-.16-.31-.31-.6.47-1.15.9-1.7 1.38a6 6 0 00-1.58 1.62 1.93 1.93 0 01.91 2.41c1.69 1.29 3.35 2.52 5.09 3.74zm-11-.19a3.67 3.67 0 011.22 1.26c.08.2.36.32.56.39l5.25 2.49a4.15 4.15 0 00.63.2c.91-1.18 1.82-2.29 2.69-3.44 0 0 0-.11.12-.27a23.71 23.71 0 00-2.49-1.86c-.87-.59-1.66-1.3-2.57-1.82a3.6 3.6 0 01-1.54.28 4.08 4.08 0 01-1.38-.63 21.94 21.94 0 00-2.43 3.4zm19.44-6a5.21 5.21 0 00-.24-.48 371.26 371.26 0 00-3.87-6.36c-.08-.11-.2-.19-.24-.27a13.82 13.82 0 00-3.79 2.17c1.14 1.42 1.14 1.78 0 3.12a43.82 43.82 0 003.95 4.27zm36.64-5.33a10.1 10.1 0 00-3.31-1.78 1.06 1.06 0 00-.16.19c-1.35 2.22-2.65 4.43-4 6.64v.24a17.32 17.32 0 002 1.22 10.79 10.79 0 002.06 1.23 1 1 0 01.23-.12 159.6 159.6 0 003.52-3.83 1.89 1.89 0 00.28-.48c-1.76-.84-1.92-1.7-.62-3.31zm-33.78-4.55a22.87 22.87 0 00-3.75 1.23 4.94 4.94 0 01.51.59 1.55 1.55 0 01-.31 2.17 3.21 3.21 0 01-.83.36c-.2.08-.44.12-.63.2a34.09 34.09 0 003 4.93c.75-.27 1.5-.59 2.25-.9a21.17 21.17 0 002.41-.87c-.83-2.5-1.73-5.03-2.65-7.68zm-18.21 30.1a10.25 10.25 0 00.47-2.13 13.09 13.09 0 00.52-2.14 1 1 0 00-.44-.16c-2-.55-4.15-1.1-6.2-1.66a1.59 1.59 0 00-.44 0c0 1.54-1.06 2-2.37 2.1-.08.43-.19.83-.27 1.22a2 2 0 000 .52c.47.19 1-.08 1.34.27a2.75 2.75 0 01.79 1.07.64.64 0 00-.28.16c-.08 0-.11.12-.23.23a1 1 0 00.43.12 44.92 44.92 0 006.68.4zm26.47-31.49c0 1.38.24 2.69.4 4s.23 2.69.51 4a1.53 1.53 0 00.35.08h4.4a1.27 1.27 0 00.36-.12c0-.12.08-.16.08-.24.27-2.45.55-4.94.82-7.39a1.7 1.7 0 00-.07-.39 4 4 0 00-.64-.08c-.35 0-.67 0-1-.08-.16 0-.36 0-.44.16.36 1.15.24 1.82-.43 2.29a2 2 0 01-2.22.12 1.86 1.86 0 01-.71-.71c-.35-.59-.08-1.19.12-1.82a6.38 6.38 0 00-1.53.18zM122.61 398c1.06-1.66 2-3.35 3-5a6.56 6.56 0 00.31-.64 4.33 4.33 0 01-.55.12 6.26 6.26 0 01-1.22.08 1.58 1.58 0 01-1-2.61 1.52 1.52 0 00.32-.39c-.2-.4-.6-.36-.91-.48s-.71-.23-1.07-.35a2.73 2.73 0 00-1-.2c-.08.12-.16.2-.2.28l-2.48 7.23a.63.63 0 000 .23zm14.65-.19a15 15 0 00-3.35-2.77c-2 2-3.84 4.11-5.77 6.16a6.44 6.44 0 001.26 1.11l1.15 1c.39.35.79.75 1.22 1.1a4.16 4.16 0 00.71-.47.93.93 0 00.48-1 2.14 2.14 0 01.12-1.11c.79-.35 1.7.16 2.49-.35v-2.29a4.44 4.44 0 00.75-.48 11.87 11.87 0 00.94-.9zM117 396.07l.35-.71c.2-.56.36-1.11.55-1.66.52-1.5 1.07-3 1.54-4.55.08-.27.28-.55.08-.91a1.32 1.32 0 00-1-.15v.35a1.75 1.75 0 01-1.39 2 1.82 1.82 0 01-1.93-.63 1.6 1.6 0 01-.2-1.81c.08-.16.28-.32.12-.59a5.64 5.64 0 00-2.21-.2c-.28 2.57-.6 5.09-.87 7.62v.44c1.76.24 3.34.52 4.96.8zm-12.45-9a17.9 17.9 0 00-3 .43v.16c0 .04.16.32.23.44a1.59 1.59 0 01-.87 2.33 2 2 0 01-1.85-.16l-.32-.24c-.08 0-.16-.23-.35-.08a31 31 0 001 3.09 17.43 17.43 0 001.15 3 1.4 1.4 0 00.43 0l4.11-.71a3.7 3.7 0 00.4-.2c-.3-2.66-.57-5.27-.89-8.07zm12.56 60.41c-1.69.32-3.31.59-4.93.87a17.06 17.06 0 00.35 3.32 3.46 3.46 0 01.47.31 2.32 2.32 0 01.95.91 1.54 1.54 0 00.91.75 3.33 3.33 0 011.62 1.5c.08.16.24.32.32.48a7.36 7.36 0 002.68-.71 1.44 1.44 0 00-.11-1.07c-.64-1.9-1.31-3.79-2-5.69a5.67 5.67 0 00-.22-.68zm.12-40.58c1.62-2.64 3.24-5.25 4.82-8a6.44 6.44 0 00-2-.91 8.21 8.21 0 00-2.57-.75c-.63 1.43-1 2.89-1.54 4.35a44 44 0 00-1.42 4.38c.79.28 1.5.56 2.25.83a2.79 2.79 0 00.5.09zm-16.43 39.74a28.36 28.36 0 004.42.75 1.65 1.65 0 00.32-.12c.12-1 .24-2 .35-3s.24-2 .32-2.92a18.79 18.79 0 00.28-3.05c-.91-.15-1.74-.31-2.57-.43h-.24a2.79 2.79 0 00-.2.31l-2.72 8a1.81 1.81 0 01.04.46zm11.3.75h.51a22.63 22.63 0 004-.75s.08-.08.16-.2a2 2 0 00-.08-.43c-1-3-2.49-7.39-2.92-8.18-.91.12-1.82.28-2.81.51.32 2.89.63 5.73 1 8.58a1.28 1.28 0 01.14.47zm-15.45-38.28a2.94 2.94 0 00-.36-.48c-1.89-2.09-3.83-4.15-5.73-6.2a2.51 2.51 0 00-.51-.4c-.59.48-1.19 1-1.74 1.43a5.62 5.62 0 00-1.58 1.73c.91.68 1.78 1.31 2.65 1.94s1.74 1.3 2.65 1.94a20.51 20.51 0 002.68 1.85c.63-.63 1.29-1.18 1.94-1.81zM118 436.25c.32.51.56.95.83 1.38 1.15 1.94 2.33 3.87 3.48 5.77a2.27 2.27 0 00.71.91 23.49 23.49 0 003.95-2.37c-.2-.24-.31-.44-.47-.63a85.46 85.46 0 00-6.13-6.48c-.73.43-1.48.91-2.37 1.42zm-11.65-40.06a1.85 1.85 0 000 .47c.31 2.73.63 5.45.95 8.22a1 1 0 00.15.35h2.69a1.5 1.5 0 00.28-.9l.12-1.31c.23-2.05.47-4.11.67-6.16a3.75 3.75 0 000-.67 14 14 0 00-4.84 0zm-10.91 2.68c.6 1 1.11 1.86 1.66 2.73s1.07 1.82 1.66 2.73a27.06 27.06 0 001.66 2.6 11.9 11.9 0 001.27-.47c.43-.2.94-.2 1.34-.59-1-2.85-1.94-5.73-3-8.66a4.45 4.45 0 00-.83.12 22.43 22.43 0 00-3.74 1.54zm18.22 6.88c.08-.08.19-.16.19-.24.95-2.69 1.86-5.41 2.77-8.1 0-.12 0-.28.08-.35a11.38 11.38 0 00-4.74-.76c-.36 2.65-.59 5.38-.91 8.06a7.51 7.51 0 000 .95c.95.16 1.8.32 2.63.44zm-8.18-9.48a10.2 10.2 0 00-4.7.86c.87 2.73 1.81 5.46 2.76 8.18a5.34 5.34 0 00.24.48c.91-.16 1.82-.28 2.69-.48a83.22 83.22 0 00-.83-8.45 1.25 1.25 0 00-.14-.59zm14.81 12.36c.76-.75 1.47-1.54 2.18-2.29s1.5-1.58 2.21-2.41a27.57 27.57 0 002-2.33 13.74 13.74 0 00-4-2.37 14.17 14.17 0 00-1.22 1.93c-.44.68-.79 1.35-1.23 2s-.82 1.34-1.22 2a11.74 11.74 0 00-1.15 2.06c.87.54 1.63.98 2.45 1.41zm-20.66-1.38a3.12 3.12 0 01-.2-.48l-4.3-7.15c-.08-.15-.28-.27-.36-.43a12.33 12.33 0 00-3.91 2.41 1.67 1.67 0 00.24.31l5.8 6.29c.12.16.32.23.48.39.73-.43 1.48-.83 2.27-1.34zm27.88-5.25a28.91 28.91 0 00-2.26 2.34c-.75.79-1.5 1.58-2.21 2.41a24.42 24.42 0 00-2.09 2.41c.71.59 1.34 1.18 2 1.77a8.3 8.3 0 001-.67c1-.71 1.94-1.42 2.88-2.13s1-.71 1.27-1.74c.47-.2 1.07 0 1.54-.32a7.66 7.66 0 001.3-1 19 19 0 00-3.43-3.07zm-41.37 3.68a11.16 11.16 0 00-2.65 3.59c.28.16.55.32.87.48l2.49 1.18c.55.28.55.28 1.26.12.08 0 .16.12.24.16a4.22 4.22 0 001.82 1.26c.39.16.75.36 1.1.52s.8.35 1.27.55c.55-.71 1.07-1.34 1.58-2-.55-.62-6.68-5.12-7.98-5.87zm12.56 49a3.38 3.38 0 012-1 6 6 0 012.72.08 3.09 3.09 0 00.6.08l.31-.31a2 2 0 00.79-1.59c.08-1 .24-2 .32-3v-.55c-1.66-.28-3.28-.59-4.9-.87a2.69 2.69 0 00-.24.43c-.35 1-.71 2-1 3s-.64 1.85-1 2.8c-.23.36-.15.67.4.91zm-1.58-19.87c-1.3 1.42-2.53 2.72-3.75 4.07a1.24 1.24 0 00-.28.63v3.67a.68.68 0 00.28.52 3.62 3.62 0 001.34.63c.59-.87 1.11-1.82 1.66-2.69s1.07-1.76 1.63-2.64a21.76 21.76 0 001.58-2.73c-.88-.53-1.58-1.01-2.46-1.48zm23.95-.48a4.4 4.4 0 00.39.52l5.65 6.12a1.85 1.85 0 00.28.28.28.28 0 00.47-.16 3 3 0 000-.59v-3.76a1.34 1.34 0 00-.67-1.26c-1.11-.79-2.21-1.58-3.28-2.41-.28-.2-.55-.36-.87-.55-.63.61-1.3 1.2-1.97 1.79zm-26.2 11.14c-.51.79-1 1.51-1.38 2.26a2.29 2.29 0 00-.4 1.34v3.56a4.41 4.41 0 00.08.71 5.06 5.06 0 001.9 0c.87-2.18 1.74-4.39 2.61-6.6a1.28 1.28 0 00-.28-.24c-.79-.37-1.62-.69-2.53-1.05zm31.85 7.12c0-.24.07-.32 0-.36-1.26-2.09-2.52-4.23-3.79-6.32a1.79 1.79 0 00-.35-.4l-2.41.95c-.12 0-.24.16-.4.24l1 2.37a16.17 16.17 0 001 2.41 4.07 4.07 0 01.63-.12 10.08 10.08 0 011.5-.16 3.05 3.05 0 012.29 1 2.27 2.27 0 01.53.37zm.9-.56c.36-.15.28-.47.28-.71v-8.1a.53.53 0 00-.28-.55 5.87 5.87 0 00-1.34.79c-.51.28-1 .59-1.5.87s-1 .39-1.34.91c1.34 2.21 2.64 4.38 4 6.56a2.49 2.49 0 00.18.2zm-27.34-15.44c-.15.23-.31.39-.43.59-1.46 2.49-3 4.9-4.43 7.39a6.06 6.06 0 002.69 1.06c.08-.12.16-.27.24-.39 1-2.57 2.05-5.1 3-7.67 0-.16 0-.31.08-.51-.43-.18-.75-.34-1.15-.49zm21.89 8.09a90.82 90.82 0 00-4.9-8.06 2.23 2.23 0 00-1.18.6c1 2.6 2 5.13 3 7.7.12.28.28.55.43.87a13.46 13.46 0 002.65-1.13zm-25-11.06c.16-.08.28-.12.32-.2 2.61-2.8 5.21-5.65 7.82-8.45 0 0 0-.12.08-.28-.16.08-.28.08-.36.16-3.12 2.25-6.24 4.5-9.32 6.8a2.31 2.31 0 00-.35.35 8.75 8.75 0 001.76 1.6zm15.1-8.81a3.29 3.29 0 00.39.48c2.57 2.72 5.1 5.49 7.67 8.21h.07a.3.3 0 01.16 0 6.51 6.51 0 001.74-1.58 120 120 0 00-10.08-7.13zm-17.39 6.64c3.28-2.41 6.48-4.74 9.68-7.11v-.24a1.05 1.05 0 00-.39.12c-3.44 1.62-6.88 3.24-10.32 4.9a4.3 4.3 0 00-.51.35 7 7 0 001.49 1.96zm31.57-10.95h-.71c-2.93.24-5.81.48-8.73.76-.79.07-1.54.11-2.33.19a3.09 3.09 0 00-.6.08c-.16 0-.31.12-.63.24 1.5.12 2.77.24 4.07.31l8.1.72a1.34 1.34 0 001-.12 5.93 5.93 0 00-.22-2.2zm-17.74-3.24h.24a3.75 3.75 0 00.11-.67c.4-3.36.76-6.71 1.11-10v-.36a5.52 5.52 0 00-2.57 0c0 .08-.08.2 0 .28.23 3.54.66 7.14 1.06 10.73zm17 9.41c-.12-.08-.16-.16-.28-.2-3.87-1.07-7.74-2.09-11.61-3.16h-.4c.16.16.24.28.36.32 3.59 1.73 7.23 3.47 10.9 5.17a6.77 6.77 0 00.97-2.15zm-12.09-4.15a4.45 4.45 0 00.67.28c3.87 1 7.74 2.09 11.62 3.12a4.78 4.78 0 00.51-2.29 1.65 1.65 0 00-.32-.12c-4-.36-7.94-.71-11.89-1-.21-.09-.3-.05-.65-.01zm6.2 11.62l-.43-.6c-2.61-2.76-5.14-5.61-7.83-8.29a.64.64 0 00.08.39c.32.51.64 1.07 1 1.58 1.54 2.53 3 5.06 4.58 7.59a.89.89 0 00.64.59c.31-.16.71-.4 1.06-.59a11.27 11.27 0 00.84-.69zM100 435.38c.75-.91 5.77-9.32 6.08-10.15a1.92 1.92 0 00-.43.35 106.34 106.34 0 00-7.75 8.61 7.17 7.17 0 002.1 1.19zm13.31-15.49a.3.3 0 01.08.16l1-.24 3.75-1 6.6-1.78c.24-.08.47-.2.79-.28a6.8 6.8 0 00-1-2.09c-.87.27-8.69 3.91-10.78 5a3.52 3.52 0 01-.43.23zm-.35 4.27a.8.8 0 00.27.28l9.17 6.67a2.9 2.9 0 00.47.24 7.26 7.26 0 001.39-2 1.21 1.21 0 01-.28-.15c-3.56-1.7-7.15-3.4-10.71-5.06-.07-.02-.15.02-.27.02zm12.88-6.68a1.65 1.65 0 00-.48 0L114 420.6a4.09 4.09 0 00-.55.28h.4l6.71-.59c1.66-.16 3.32-.28 5-.44a1.25 1.25 0 00.91-.31 13 13 0 00-.62-2.06zm-44.69-3.71a14.42 14.42 0 003.32.91l1.26-1.39a5.57 5.57 0 001.27-1.62c-.67-.31-1.31-.67-1.94-.94a11.85 11.85 0 00-2-.87 12.94 12.94 0 00-1.9 3.91zm24.1 4.62a2.82 2.82 0 00-.25-.39l-7.34-7.94a2.82 2.82 0 00-.36-.23 6.89 6.89 0 00-1.82 1.58c.65.66 8.75 6.59 9.78 6.98zm7.07 0a11.67 11.67 0 002.49-1.54c.83-.59 1.66-1.19 2.49-1.82s1.62-1.14 2.41-1.74a20.72 20.72 0 002.45-1.85 6.67 6.67 0 00-1.93-1.62c-2.57 2.68-5 5.41-7.51 8.1a1.89 1.89 0 00-.39.47zm10.28-6.4L113 419v.16c.87-.28 8.65-3.87 10.78-5l.36-.27a5.52 5.52 0 00-1.53-1.89zm-22.48-3.91a5.42 5.42 0 00-2.12 1.38c2.65 2.85 5.26 5.65 7.9 8.46h.16a106.24 106.24 0 00-5.49-9.29zm4.58 11.1a5.28 5.28 0 00-1-.83c-.35-.28-.71-.51-1.07-.79s-.79-.55-1.14-.83-.71-.51-1.07-.79-.71-.51-1.07-.79-.71-.51-1.06-.79-.79-.55-1.15-.83-.71-.51-1.06-.79A8.11 8.11 0 0095 412a6.26 6.26 0 00-1.42 1.9c.12.07.16.19.23.23 3.56 1.7 7.16 3.4 10.71 5.06a1.41 1.41 0 01.19-.01zm14.93-9.76a6.68 6.68 0 00-2.21-1.3c-.12.12-.2.24-.28.31-1.89 3.16-3.75 6.33-5.65 9.49a.56.56 0 01.08.11c.12-.11.24-.19.36-.31zm-11.85 17.31c-.63.87-1 1.78-3.4 8.89a2.7 2.7 0 00-.27 1.3 6.15 6.15 0 002.52.4c.44-3.28.72-6.56 1.15-9.84a4.67 4.67 0 00.01-.75zm5.69 10.11a97.39 97.39 0 00-3.4-9.72c0-.08-.12-.12-.27-.27v.71c.35 3.24.71 6.48 1.06 9.72a4.51 4.51 0 002.62-.44zM111 406.26c-.24.95-1.26 10.23-1.26 11.54.59-1.38.94-2.61 1.34-3.83s.83-2.38 1.22-3.56a37.33 37.33 0 001.19-3.71 4.92 4.92 0 00-2.49-.44zm-6.83.4c.07.31.11.55.19.83.16.47.36.94.52 1.46l2.72 8c.08.16 0 .43.36.47v-.27c-.4-3.56-.79-7.08-1.23-10.63 0-.08-.08-.12-.12-.2a4.51 4.51 0 00-2.49.34zm.19 13.35a.88.88 0 00-.35-.28c-1.27-.71-10.24-4.86-10.95-5.05a1.53 1.53 0 00-.51 1.06c.2.28.39.56.63.87a2.62 2.62 0 00-.43.28c.16.12.19.2.31.24 1.38.43 10.42 2.76 11.25 2.87zm-11.14 8.57c.83-.27 9.4-4.26 10.67-4.93.12-.08.2-.16.47-.36a7.41 7.41 0 00-.87.16c-3.24.87-6.48 1.74-9.75 2.64a6.23 6.23 0 00-.6.24 14.61 14.61 0 00.03 2.25zm-.51-10.82a5.24 5.24 0 00.08 2.09l.43.12 10.67.95h.08v-.16c-3.56-1-7.19-2-10.79-3a1.82 1.82 0 00-.52 0zm11.14 4.7a6.9 6.9 0 00-.91 0l-9.24.83a3.72 3.72 0 00-.52.16 5.46 5.46 0 00.12 2c.2 0 .36 0 .51-.08l10-2.72zm-23-8c-.23.83-.43 1.5-.59 2.17a4.65 4.65 0 00-.24 2.06 9.57 9.57 0 003.4.15c.12-.51 0-1.06.08-1.58s-.28-.55-.55-.79c.31-.39.59-.75.91-1.18a3.29 3.29 0 00-.64-.24c-.76-.14-1.51-.33-2.38-.57zm42.64-3c.51.67 1 1.3 1.54 2 1-.39 1.89-.83 2.84-1.3v-3.6c0-.08-.08-.16-.12-.23a35.76 35.76 0 00-4.27 3.19zm-30.28 11.12c.87.08 9.6-.63 10.79-.91l-.44-.16c-3.36-.31-6.71-.59-10-.87a1.24 1.24 0 00-.32.08 3.27 3.27 0 00-.03 1.86zm30.42 9.32a45.46 45.46 0 004 2.93h.2a14.58 14.58 0 000-3.76 14.54 14.54 0 00-2.65-1.22c-.56.71-1.07 1.38-1.55 2.05zm326 30.19a.62.62 0 00.12-.24v-1a4.72 4.72 0 00-.83-3.35 1.06 1.06 0 00-.2-.24H448a4.09 4.09 0 00-.2.47c-.39 1.31-.79 2.61-1.14 3.91a1.93 1.93 0 000 .48 9.68 9.68 0 003.01-.03zM96.57 434.35c-.44-.39-.79-.67-1.11-1a6.85 6.85 0 00-1-.86c-.28.19-.52.35-.79.51a1.11 1.11 0 00-.6 1.1v3.24c0 .16 0 .36.28.4 1.09-1.02 2.11-2.16 3.22-3.39zM445.24 462c-.27-1.38-.79-2.73-1.14-4.07-.08-.24-.2-.47-.32-.75-.24 0-.43 0-.63.08-.44 1.46-.87 2.84-1.26 4.23a2.53 2.53 0 000 .55 8.54 8.54 0 003.35-.04zm-337.53-14.41a60 60 0 00.16-8.38c0-.27 0-.51-.08-.91-.2.12-.4.16-.47.28a1.71 1.71 0 00-.12.47c-.2 1.78-.4 3.6-.6 5.38-.07.83-.19 1.62-.23 2.45a4 4 0 00.08.63c.39.04.83.04 1.26.08zm3.56-.08c0-.55 0-.95-.08-1.34-.2-1.78-.4-3.6-.59-5.38l-.24-2c0-.16-.12-.36-.32-.36s-.27.16-.31.32v8.37a1.27 1.27 0 00.15.48c.48-.05.87-.05 1.39-.09zm-5.42 4.74c.32-.08.68-.12 1-.2s.67 0 1-.31v-1.58c0-.51.16-1.15-.16-1.7a3.55 3.55 0 00-1.46 0 15.21 15.21 0 00-.38 3.79zm334 5a15.3 15.3 0 001.26 4 16 16 0 001.23-4.07 8.66 8.66 0 00-2.47.09zm6 4.19c.11-.2.23-.28.27-.4.36-1.14.67-2.25 1-3.4a1.52 1.52 0 000-.43 9.53 9.53 0 00-2.61 0 42.93 42.93 0 001.33 4.25zm-7.12.59a2.72 2.72 0 001.78 0 2.89 2.89 0 00-.08-.59c-.39-1.27-.75-2.53-1.14-3.8 0-.08 0-.23-.12-.27s-.28-.08-.44-.16a35.24 35.24 0 00-.01 4.84zM125.45 414.2c.36.79.71 1.5 1.07 2.22a2.56 2.56 0 001.26-.24 7.24 7.24 0 00-.08-3.12 8 8 0 00-2.25 1.14zm2.33 15.92a7.38 7.38 0 000-3 1.62 1.62 0 00-1.18-.24c-.32.72-.67 1.47-1 2.18a4.51 4.51 0 002.18 1.06zm-16.16 21.22a7.3 7.3 0 00-.35-2.88 2.47 2.47 0 00-1.54.16 14.89 14.89 0 00.08 2.64c.63 0 1.19.04 1.81.08zm1.78-21.06a.14.14 0 010 .08c.71 1.82 1.46 3.68 2.17 5.49 0 .12.16.2.24.28a1.26 1.26 0 001-.55c-1.07-1.78-2.1-3.56-3.24-5.3zm-41.56-9.87a1.55 1.55 0 001.42-.24 4.79 4.79 0 011.62-.83c.16 0 .35 0 .35-.28a8.72 8.72 0 00-3.39-.2 3.38 3.38 0 000 1.55zM549 375.32a.74.74 0 00.59-.71v-1.85a.56.56 0 00-.63-.52.54.54 0 00-.52.56 14.27 14.27 0 000 1.85.79.79 0 00.56.67zm-28 0c.28-.23.56-.39.56-.75v-1.81a.56.56 0 00-.64-.52.6.6 0 00-.51.56v1.73c-.02.4.18.64.59.83zm-176.86 87.2a16.69 16.69 0 00-1.07-3.79 25.84 25.84 0 000 3.52.73.73 0 00.16.35.94.94 0 00.91-.08zm-217.35-45.28c.16.72.32 1.47.52 2.18a.41.41 0 00.31.16.28.28 0 00.2-.16 8.12 8.12 0 000-2.41 1.05 1.05 0 00-1.03.23zm396.68-43.14v-.87a.29.29 0 00-.31-.32c-.2 0-.48.08-.48.28v1.82c0 .12.2.28.32.31s.35-.15.39-.35a3.67 3.67 0 00.08-.87zm27.23-1.19v1.82a1.12 1.12 0 00.15.48.31.31 0 00.52 0 .85.85 0 00.12-.28 8.45 8.45 0 000-1.94 4.29 4.29 0 00-.79-.08zm-32.13 0a7.77 7.77 0 000 2.1v.08a1.08 1.08 0 00.32.19.32.32 0 00.24-.15 1.68 1.68 0 00.15-.56 6.21 6.21 0 000-1.22c.04-.35-.07-.44-.71-.35zm28.85 1.11c0-.39 0-.67-.08-.91s-.2-.24-.4-.24-.35.08-.35.28V375a.36.36 0 00.31.35.31.31 0 00.36-.27c.08-.43.12-.78.16-1.02zm-419.6 49.7c-.31-.11-.43 0-.51.24-.16.67-.28 1.38-.4 2.09a.74.74 0 001 .16 10.3 10.3 0 00-.09-2.45zM81 419.54a2 2 0 002.18.94.3.3 0 00.27-.35.39.39 0 00-.27-.4.14.14 0 01-.08 0c-.68-.08-1.31-.15-2.1-.19zm12.29 25.12c-.24 1-.24 1.39.08 1.82a3.26 3.26 0 00.75-1.3c-.08-.08-.16-.2-.24-.24zm34.45-21.77l.16-.15v-2.14a.26.26 0 00-.16-.19c-.08 0-.23.07-.23.11v2.22c0 .08.11.12.19.15zm-35.95-8.06a5.1 5.1 0 00.28-.43.35.35 0 000-.28 1.81 1.81 0 00-1.39-.47 10.63 10.63 0 001.07 1.18zM93.21 431a1.94 1.94 0 00.08 1.51l.75-.52a11.49 11.49 0 01-.83-.99zm239.39-52.83a2.94 2.94 0 00.08-1.66s-.12 0-.24-.08a2.88 2.88 0 00.16 1.74zm-224.89 56.89a.21.21 0 00-.08.16c-.08.59-.12 1.19-.2 1.78v.2l.28.27a4.91 4.91 0 000-2.41zm2.25.2a4.76 4.76 0 00-.19 1.94c0 .08.15.16.19.16s.16-.16.16-.2c-.04-.63-.12-1.27-.12-1.9zM551.45 371a1 1 0 00-.4-.28c-.24 0-.43.32-.32.52a.55.55 0 00.4.23c.2.02.36-.18.32-.47zm-32.45-.3a.39.39 0 00-.48.36.34.34 0 00.36.39c.24 0 .43-.16.39-.35a1.88 1.88 0 00-.27-.4zm30-.12a2.11 2.11 0 00-.32.56c0 .19.16.35.4.35a.36.36 0 00.35-.39c-.12-.16-.28-.32-.43-.52zm-1.94.16a.37.37 0 00-.47.36.36.36 0 00.35.39c.2 0 .44-.16.4-.35a1.72 1.72 0 00-.28-.4zm-23.67.24a.87.87 0 00-.39-.24c-.16 0-.36.2-.36.4a.39.39 0 00.4.35.42.42 0 00.35-.49zm-1.93.16a2.28 2.28 0 00-.48-.44c-.15-.08-.35.12-.39.36a.34.34 0 00.35.39 1.64 1.64 0 00.52-.31zm-423.39 18c.32-.19.2-.43.24-.67a.19.19 0 00-.24-.24c-.08 0-.24.16-.24.24.08.21.17.41.24.64zm34.81 15.65c-.36-.08-.48.08-.55.39a7.37 7.37 0 01.55.52zm-2.06 1.34c0 .08 0 .12.08.2h.79l.16-.16-.47-.47a3 3 0 00-.56.4zm90.32-1c-.08-.12-.15-.24-.19-.24-.2 0-.2.12-.2.24s.08.15.12.23a1.55 1.55 0 01.27-.24zm-19 .23c.08 0 .16 0 .16-.08a.27.27 0 000-.43h-.08c-.2.12-.16.28-.08.43a.14.14 0 00.04.07zm13.75 0c.08-.08.16-.12.16-.16a.66.66 0 000-.27h-.16a.57.57 0 00-.08.27.37.37 0 00.12.15zm-89.21-14.22a.22.22 0 000-.32c0 .08-.12.12-.12.2s.12.07.16.11z" transform="translate(1.5 -79.5)"/>
  <g id="FireworkGroup1" fill="none" stroke-miterlimit="10">
    <path stroke="#f2f7f6" d="M445.58 273.07v-30.03M445.58 228.68v-31.99"/>
    <path stroke="#ff4242" d="M435.06 166.02l-12.9-9.83M419.39 154.92l-12.9-9.83M433.83 172.53h-16.32M412.62 172.53h-16.33M437.1 181.02l-10.45 10.44M424.69 194.07l-10.44 10.45M450.76 163.04l9.24-15.62M454.72 169.27l15.02-6.53M473.66 161.43l15.01-6.53M455.67 176.39l12.79 4.36M471.34 181.61l12.79 4.36M451.2 181.71l7.05 12.98M459.69 196.72l7.05 12.99M440.96 162.02l-6.42-14.89M433.13 143.74l-6.43-14.89M461.91 144.46l10.44-16.32"/>
  </g>
  <g id="FireworkGroup2" fill="none" stroke-miterlimit="10">
    <path stroke="#ff4242" d="M207.06 68.12l10.45-16.32M178.29 67.4l-6.43-14.88M186.12 85.68l-6.43-14.88M204.84 120.39l7.06 12.98M196.36 105.37l7.05 12.98M216.5 105.27l12.79 4.37M200.83 100.05l12.79 4.36M218.82 85.09l15.01-6.52M195.92 86.7l9.24-15.62M199.88 92.93l15.02-6.53M169.85 117.74l-10.44 10.44M182.26 104.68l-10.45 10.45M157.77 96.19h-16.32M178.99 96.19h-16.32M164.55 78.58l-12.9-9.82M180.22 89.68l-12.9-9.82"/>
    <path stroke="#f2f7f6" d="M190.74 152.34v-31.99M190.74 196.73V166.7"/>
  </g>
  <g id="PlaneGroup" fill="#d1e3dd">
    <path d="M92.11 354.46a3.86 3.86 0 00-2.45-.89h-2.41a.23.23 0 00-.23.24.21.21 0 000 .15l6 7.75h7.83z" transform="translate(1.5 -79.5)"/>
    <path d="M117.1 363.64l-38.57-.05a3.55 3.55 0 01-3.07-1.74l-3.38-4.09a1.32 1.32 0 00-1-.49 1.34 1.34 0 00-1.34 1.34 1.31 1.31 0 00.12.56l3.66 7.94a1.69 1.69 0 001.32 1.07l18.26 2a1 1 0 01.85 1.05 1.06 1.06 0 01-.25.55l-9.3 10.15a.25.25 0 000 .34.21.21 0 00.15.05h3.53a3.81 3.81 0 002.5-.93l12.26-9.93a1 1 0 01.62-.21l13.59.24a3.75 3.75 0 003.52-3.92 3.7 3.7 0 00-3.47-3.93z" transform="translate(1.5 -79.5)"/>
  </g>
  <path id="CityOutline" visibility='hidden' fill="none" stroke="#f70024" stroke-miterlimit="10" d="M.5.5h640v400H.5z"/>
</svg>
