<svg xmlns="http://www.w3.org/2000/svg" viewBox="0 0 1080 837.059"><defs><style>.cls-1,.cls-3,.cls-35,.cls-4,.cls-5{fill:none;}.cls-1{stroke:#333;}.cls-1,.cls-35,.cls-4,.cls-5{stroke-miterlimit:10;}.cls-2{fill:#666;}.cls-4,.cls-5{stroke:#313335;}.cls-5{stroke-width:5px;}.cls-6{font-size:14px;}.cls-29,.cls-30,.cls-34,.cls-6{fill:#313335;}.cls-27,.cls-30,.cls-6{font-family:Roboto-Regular, Roboto;}.cls-7{letter-spacing:-0.006em;}.cls-8{letter-spacing:-0.01em;}.cls-9{letter-spacing:-0.007em;}.cls-10{letter-spacing:-0.02em;}.cls-11{letter-spacing:-0.052em;}.cls-12{letter-spacing:-0.009em;}.cls-13{letter-spacing:-0.039em;}.cls-14{letter-spacing:0.016em;}.cls-15{fill:#999;}.cls-16{fill:#b3b3b3;}.cls-17{fill:#333;}.cls-18,.cls-33,.cls-34{letter-spacing:0.024em;}.cls-19{letter-spacing:-0.055em;}.cls-20{letter-spacing:-0.015em;}.cls-21{letter-spacing:0.009em;}.cls-22{letter-spacing:-0.011em;}.cls-23{letter-spacing:-0.06em;}.cls-24{letter-spacing:-0.008em;}.cls-25{letter-spacing:-0.014em;}.cls-26{letter-spacing:-0.012em;}.cls-27,.cls-30{font-size:20px;}.cls-27,.cls-32,.cls-33{fill:#ff4242;}.cls-28{fill:#575a5e;}.cls-31{letter-spacing:-0.037em;}.cls-35{stroke:#4d4d4d;}</style></defs><title>circleSVG_5</title><g id="Layer_2" data-name="Layer 2"><g id="Layer_1-2" data-name="Layer 1"><path class="cls-1" d="M762.227,97.44a11.935,11.935,0,0,1-7.3,2.491H668.715a12.033,12.033,0,0,1-12-12V43.412a12.036,12.036,0,0,1,12-12h86.212a12.036,12.036,0,0,1,12,12v44.52A12,12,0,0,1,762.227,97.44Z" transform="translate(0 -0.217)"/><path class="cls-1" d="M743.969,97.44h-72a12.036,12.036,0,0,1-12-12V45.905a12.036,12.036,0,0,1,12-12h79.7a12.036,12.036,0,0,1,12,12V85.441a12.036,12.036,0,0,1-12,12h-7.7Z" transform="translate(0 -0.217)"/><polyline class="cls-1" points="661.667 97.223 661.417 97.223 655.723 97.223"/><polyline class="cls-1" points="761.975 97.223 762.227 97.223 767.918 97.223"/><polygon class="cls-1" points="743.969 97.223 732.56 86.753 733.253 85.759 745.626 97.223 748.316 99.714 789.39 137.765 788.868 138.431 746.683 99.714 743.969 97.223"/><path class="cls-2" d="M791.387,701.677v1.329s-17.52,9.805-22.251-7.879c-5.268-19.674-25.924-9.77-26.065-9.463h0a1.537,1.537,0,0,0-.164-.49,1.469,1.469,0,0,0-.413-.506l0-.007s21.6-10.157,27.488,9S791.387,701.677,791.387,701.677Z" transform="translate(0 -0.217)"/><path class="cls-2" d="M729.068,661.09c.119,1.067-.436,1.148-.436,1.148-11.709,2.409-19.984.275-19.984.275l.166-4.5a1.144,1.144,0,0,0,.072.1c1.8,2.319,7.191,2.108,11.314,2.214,3.542.089,7.083-.209,8.859-1.363A11.294,11.294,0,0,0,729.068,661.09Z" transform="translate(0 -0.217)"/><path class="cls-2" d="M728.989,666.585c.238.515-.078.79-.714,1.265a.376.376,0,0,0-.157.425h0c-8.551,3.256-18.707.488-18.707.488-.247-.209-.562-.412-.761-.6-.476-.436.713-1.186.713-1.186s.755-.751-.2-1.186c0,0,11.3,2.332,18.952-.436C727.681,665.715,728.751,666.071,728.989,666.585Z" transform="translate(0 -0.217)"/><path class="cls-2" d="M728.756,669.051a.484.484,0,0,1,.175.448,1.524,1.524,0,0,1-.615,1.078s-.124.215-.337.573h0l-.067-.04c-8.835,3.213-18.23.577-18.421.508l0,0c-.058-.2-.184-.329-.6-.564-.633-.356.08-1.027.713-1.461.368-.253.151-.544-.19-.828,0,0,10.156,2.768,18.707-.488h0A1.807,1.807,0,0,0,728.756,669.051Z" transform="translate(0 -0.217)"/><path class="cls-2" d="M728.751,663.224c.873.437-.2,1.779-.635,2.135-7.651,2.768-18.952.436-18.952.436-.952-.436-.357-.989-.357-.989s1.625-1.145.714-1.62-.873-.673-.873-.673,8.275,2.134,19.984-.275A.53.53,0,0,0,728.751,663.224Z" transform="translate(0 -0.217)"/><path class="cls-2" d="M727.91,671.11l.067.04c-1.077,1.808-4.419,7.3-5.49,7.593-.274.073-5.649.425-6.621-.238-2.188-1.494-6.3-6.5-6.3-6.5a3.091,3.091,0,0,0-.072-.383C709.68,671.687,719.075,674.323,727.91,671.11Z" transform="translate(0 -0.217)"/><path class="cls-2" d="M698.157,705.555a1.488,1.488,0,0,0,.447.66c-.256.141-18.528,10.04-23.343-7.951-5.395-20.157-27.146-9.617-27.29-9.3v-1.421s22.13-10.405,28.159,9.217,21.926,8.215,21.926,8.215h0A1.506,1.506,0,0,0,698.157,705.555Z" transform="translate(0 -0.217)"/><path class="cls-1" d="M698.056,704.973s-15.9,11.407-21.926-8.215-28.159-9.217-28.159-9.217v1.421c.144-.315,21.895-10.855,27.29,9.3,4.815,17.991,23.087,8.092,23.343,7.951h0" transform="translate(0 -0.217)"/><path class="cls-1" d="M700.13,703.324s-2.02.367-2.072,1.649a1.506,1.506,0,0,0,.1.582,1.488,1.488,0,0,0,.447.66c.909.747,2.516-.038,2.516-.038" transform="translate(0 -0.217)"/><path class="cls-1" d="M716.517,705.624l-10.625,4.09a2.754,2.754,0,0,1-3.556-1.57l-.821-2.12-1.089-2.815-1.506-3.884a3.021,3.021,0,0,1,1.735-3.907l10.365-3.99c-1.028-2.128.283-2.875,1.257-.483,1.017,2.5,4.5,11.161,5.5,14.2C718.451,707,717.439,707.488,716.517,705.624Z" transform="translate(0 -0.217)"/><line class="cls-1" x1="716.517" y1="705.407" x2="711.02" y2="691.211"/><line class="cls-1" x1="709.972" y1="695.133" x2="713.152" y2="703.344"/><line class="cls-1" x1="708.991" y1="696.95" x2="711.148" y2="702.516"/><line class="cls-1" x1="708.248" y1="698.964" x2="709.238" y2="701.522"/><path class="cls-1" d="M743.071,685.664c.141-.307,20.8-10.211,26.065,9.463,4.731,17.684,22.251,7.879,22.251,7.879v-1.329s-15.516,11.134-21.4-8.018-27.488-9-27.488-9" transform="translate(0 -0.217)"/><path class="cls-1" d="M741.109,687.763s2.137-.748,1.96-2.1a1.537,1.537,0,0,0-.164-.49,1.469,1.469,0,0,0-.413-.506c-1.024-.774-2.754.378-2.754.378" transform="translate(0 -0.217)"/><path class="cls-1" d="M721.381,687.04l12.907-5.758,6.233,13.89-12.908,5.757c1.138,2.075-.128,2.889-1.227.548-.335-.709-.9-1.928-1.571-3.374l-.483-1.045c-.626-1.363-1.3-2.851-1.939-4.267-.162-.358-.319-.712-.472-1.056-.751-1.692-1.4-3.2-1.768-4.147C719.376,685.769,720.362,685.227,721.381,687.04Z" transform="translate(0 -0.217)"/><line class="cls-1" x1="721.381" y1="686.823" x2="724.002" y2="692.665"/><line class="cls-1" x1="724.002" y1="692.665" x2="725.443" y2="695.876"/><line class="cls-1" x1="725.443" y1="695.876" x2="727.613" y2="700.712"/><path class="cls-1" d="M721.919,691.735l-4.664,2.087a.47.47,0,0,0-.253.584l.087.247a.467.467,0,0,0,.635.27l4.669-2.132" transform="translate(0 -0.217)"/><path class="cls-1" d="M724.332,697.058l-4.507,2.07a.437.437,0,0,0-.206.588l.092.184a.5.5,0,0,0,.662.235l4.442-2.032" transform="translate(0 -0.217)"/><polyline class="cls-1" points="724.002 692.665 730.237 689.781 731.707 693.005 725.443 695.876"/><path class="cls-1" d="M734.288,681.282l.5-.2a.27.27,0,0,1,.35.139l.918,2.018,3.869,8.523,1.275,2.809a.279.279,0,0,1-.146.375l-.534.229" transform="translate(0 -0.217)"/><path class="cls-1" d="M736.057,683.236l1.468-.575a1.08,1.08,0,0,1,1.378.561l.821,1.831,1.244,2.772.846,1.891a1.111,1.111,0,0,1-.577,1.479l-1.308.564" transform="translate(0 -0.217)"/><path class="cls-1" d="M708.814,658.017a10.14,10.14,0,0,1-1.513-5.809,20.258,20.258,0,0,0-2.141-8c-1.944-3.361-5.05-7.183-5.156-15.194s6.027-13.388,6.027-13.388,6.134-5.9,14.169-5.272a19.821,19.821,0,0,1,18.716,14.76s2.431,10.118-4.019,16.867c0,0-2.431,3.9-2.642,5.48s-.741,5.378-.741,5.378-.4,3.795-1.73,5.482a2.988,2.988,0,0,1-.725.64c-1.776,1.154-5.317,1.452-8.859,1.363-4.123-.106-9.517.105-11.314-2.214A1.144,1.144,0,0,1,708.814,658.017Z" transform="translate(0 -0.217)"/><path class="cls-1" d="M709.489,671.618a3.091,3.091,0,0,1,.072.383s4.117,5.01,6.3,6.5c.972.663,6.347.311,6.621.238,1.071-.3,4.413-5.785,5.49-7.593h0c.213-.358.337-.573.337-.573a1.524,1.524,0,0,0,.615-1.078.484.484,0,0,0-.175-.448,1.807,1.807,0,0,1-.638-.776.376.376,0,0,1,.157-.425c.636-.475.952-.75.714-1.265s-1.308-.87-.873-1.226,1.508-1.7.635-2.135a.53.53,0,0,1-.119-.986s.555-.081.436-1.148a11.294,11.294,0,0,1-.009-2.126v0" transform="translate(0 -0.217)"/><path class="cls-1" d="M708.814,658.017l-.166,4.5s-.038.2.873.673-.714,1.62-.714,1.62-.6.553.357.989.2,1.186.2,1.186-1.189.75-.713,1.186c.2.184.514.387.761.6.341.284.558.575.19.828-.633.434-1.346,1.105-.713,1.461.417.235.543.364.6.564" transform="translate(0 -0.217)"/><path class="cls-1" d="M708.648,662.513s8.275,2.134,19.984-.275" transform="translate(0 -0.217)"/><path class="cls-1" d="M709.164,665.8s11.3,2.332,18.952-.436" transform="translate(0 -0.217)"/><path class="cls-1" d="M709.409,668.763s10.156,2.768,18.707-.488" transform="translate(0 -0.217)"/><path class="cls-1" d="M709.487,671.616l0,0c.191.069,9.586,2.7,18.421-.508" transform="translate(0 -0.217)"/><path class="cls-1" d="M709.678,619.552c-.882,1.673-.945,3.376-.135,3.8s2.182-.588,3.064-2.262.945-3.377.137-3.8S710.562,617.878,709.678,619.552Z" transform="translate(0 -0.217)"/><path class="cls-1" d="M705.8,623.382c-.431.983-1.057,1.656-1.4,1.509s-.27-1.065.161-2.048,1.055-1.656,1.4-1.508S706.235,622.4,705.8,623.382Z" transform="translate(0 -0.217)"/><polygon class="cls-3" points="1008.314 432.059 864.813 432.059 864.813 376.41 864.813 374.99 864.813 288.558 1008.314 288.558 1008.314 432.059"/><path class="cls-4" d="M919.327,376.107c19.148,0,28.83,10.6,33.659,22.592a54.6,54.6,0,0,1,1.864,5.456,83.09,83.09,0,0,1,2.493,28.048H882.68s-8.072-55.816,36.321-56.1" transform="translate(0 -0.217)"/><path class="cls-4" d="M933.755,345.469h4.363a12.037,12.037,0,0,1,12,12v6.64a12.037,12.037,0,0,1-12,12H901.609a12.035,12.035,0,0,1-12-12v-6.64a12.035,12.035,0,0,1,12-12h32.146Z" transform="translate(0 -0.217)"/><polyline class="cls-4" points="903.613 345.251 900.586 330.386 901.483 330.236 904.548 345.251"/><path class="cls-4" d="M899.017,328.832a1.7,1.7,0,1,1,1.7,1.69A1.695,1.695,0,0,1,899.017,328.832Z" transform="translate(0 -0.217)"/><polyline class="cls-4" points="933.755 345.251 937.385 327.424 936.309 327.245 932.634 345.251"/><path class="cls-4" d="M939.266,325.515a2.035,2.035,0,1,0-2.033,2.03A2.03,2.03,0,0,0,939.266,325.515Z" transform="translate(0 -0.217)"/><path class="cls-4" d="M952.986,398.7s26.266-10.576,24.716-29.787a.075.075,0,0,1,0-.021" transform="translate(0 -0.217)"/><path class="cls-4" d="M954.85,404.155s28.473-9.556,28.473-35.264" transform="translate(0 -0.217)"/><path class="cls-4" d="M977.7,368.912c-9.406-1.82-7.534-12.863-7.534-12.863h4.579s-1.462,9.351,5.771,8.792,6-8.792,6-8.792h4.428s1.361,10.958-7.624,12.84a13.794,13.794,0,0,1-2.991.275A14.694,14.694,0,0,1,977.7,368.912Z" transform="translate(0 -0.217)"/><path class="cls-4" d="M903.406,348.157h33.151a10.667,10.667,0,0,1,10.667,10.667v2.583a10.668,10.668,0,0,1-10.668,10.668H903.407a10.668,10.668,0,0,1-10.668-10.668v-2.583A10.667,10.667,0,0,1,903.406,348.157Z"/><path class="cls-5" d="M900.586,356.049a5.072,5.072,0,0,1,5.045-4.433c4.933-.018,4.821,4.433,4.821,4.433" transform="translate(0 -0.217)"/><path class="cls-5" d="M922.768,356.049a5.072,5.072,0,0,1,5.045-4.433c4.933-.018,4.821,4.433,4.821,4.433" transform="translate(0 -0.217)"/><path class="cls-5" d="M903.519,364.935s1.794,4.658,13.229,4.658,14.462-4.658,14.462-4.658" transform="translate(0 -0.217)"/><path class="cls-1" d="M344.358,32.068c-.038-.088-.078-.174-.117-.259-1.918-4.111-5.3-4.655-6.425-4.375-1.146.286-.974.573-1.606,1.6s-.8,9.153-.8,9.153-.057,4.691-.918,6.007a16.547,16.547,0,0,0-1.434,2.861,52.273,52.273,0,0,0-2.065,6.694,28.8,28.8,0,0,1-1.493,5.034s-1.95,7.265-3.5,11.041-1.492,5.436-1.492,5.436l-.173,3.317s.4,12.816.46,17.278-.287,10.012-.287,10.012,0,7.438-1.837,9.954-6.082,12.588-6.082,12.588l35.046,16.161,2.97-8.625a18.076,18.076,0,0,1,3.615-4.5,34.957,34.957,0,0,0,4.863-6.007l9.641-12.1,3.7-4.935a33.241,33.241,0,0,0,2.669-4.848c.688-1.845,2.022-2.7,3.1-4.892a8.458,8.458,0,0,0,1.076-2.96,1.629,1.629,0,0,0,1.119-1.186" transform="translate(0 -0.217)"/><path class="cls-1" d="M344.385,71.456c-.017-3.438-.034-7.211-.049-11.155-.042-9.282-.078-19.5-.1-28.492-.028-13.764-.009-24.633.117-24.8.344-.456.689-5.948,5.624-6.063S384.068.717,384.068.717s5.625,1.03,5.853,6.064c.078,1.7.116,11.59.133,23.943,0,3.621.007,7.456.009,11.357,0,4.653,0,9.4,0,14,0,1.658,0,3.3,0,4.905,0,3.712,0,7.258-.007,10.5,0,1.38,0,2.7,0,3.959,0,3.723-.006,6.864-.009,9.141,0,2.54,0,4.006,0,4.006s.057,5.879-5.654,5.922S350.1,94.6,350.1,94.6s-5.594-.144-5.624-5.779c0,0-.038-6.793-.084-16.463" transform="translate(0 -0.217)"/><path class="cls-1" d="M344.389,72.357c0-.3,0-.594,0-.894" transform="translate(0 -0.217)"/><path class="cls-1" d="M390.064,42.081s1.307.443,4.535-.429c.1-.026.191-.053.284-.081a23.328,23.328,0,0,0,6.7-3.652c1.277-.858,1.665-2.132,1.477-4.135s-2.367-3-2.941-3.218a34.836,34.836,0,0,0-4.532-.156l-5.525.314" transform="translate(0 -0.217)"/><path class="cls-1" d="M394.883,41.571a37.971,37.971,0,0,1,2.7,3.985c.718,1.387.331,5.549.331,5.549s.086,2.678.119,4.277c.012.57.017,1,.01,1.13-.029.485-.172,1.187-2.569,1.716a4.817,4.817,0,0,1-2.856-.328,6.544,6.544,0,0,1-2.553-1.817" transform="translate(0 -0.217)"/><path class="cls-1" d="M398.045,55.382s2.837,1.315,3.152,3.261a8.694,8.694,0,0,1,0,3.2s-.8,1.517-1.864,4.119-1.284,3.119-1.288,4.063a3.3,3.3,0,0,1-1.84,3.376c-1.419.784-3.319.226-4.147-.086-.26-.1-.415-.172-.415-.172a3.1,3.1,0,0,1-1.579-1.659" transform="translate(0 -0.217)"/><path class="cls-1" d="M398.045,70.028s1.632-.544,2.894,1.63a4.864,4.864,0,0,1,.746,3.8c-.028.285-1.761,3.718-1.761,3.718s-2.6,3.405-2.858,3.891a4.8,4.8,0,0,1-2.755,2.288c-1.778.63-4.269-.773-4.269-.773" transform="translate(0 -0.217)"/><path class="cls-1" d="M390.042,75.463l.009-.017a7.935,7.935,0,0,1,2.007-2.128" transform="translate(0 -0.217)"/><path class="cls-1" d="M390.064,60.988a5.157,5.157,0,0,1,2.553-3.086" transform="translate(0 -0.217)"/><ellipse class="cls-1" cx="367.254" cy="88.433" rx="3.615" ry="3.604"/><polygon class="cls-1" points="347.092 12.049 387.568 12.199 387.568 83.426 347.092 83.426 347.092 12.049"/><path class="cls-1" d="M359.669,5.649h13.562a.508.508,0,0,1,.508.508v.129a.506.506,0,0,1-.506.506H359.671a.508.508,0,0,1-.508-.508V6.155A.506.506,0,0,1,359.669,5.649Z"/><path class="cls-1" d="M344.334,60.3s-.191,5.578-1.181,6.308a30.051,30.051,0,0,1,1.232,4.847v.007a3.418,3.418,0,0,1,0,.894h0" transform="translate(0 -0.217)"/><text class="cls-6" transform="translate(217.501 199.559)">Mobile d<tspan class="cls-7" x="53.635" y="0">e</tspan><tspan x="60.963" y="0">vices ma</tspan><tspan class="cls-8" x="116.457" y="0">k</tspan><tspan x="123.416" y="0">e up a little </tspan><tspan class="cls-9" x="194.64" y="0">o</tspan><tspan class="cls-7" x="202.521" y="0">v</tspan><tspan x="209.214" y="0">er 50% of all </tspan><tspan x="-0.902" y="16.8">web t</tspan><tspan class="cls-10" x="32.929" y="16.8">r</tspan><tspan x="37.393" y="16.8">affic - </tspan><tspan class="cls-8" x="76.248" y="16.8">t</tspan><tspan x="80.685" y="16.8">od</tspan><tspan class="cls-9" x="96.564" y="16.8">a</tspan><tspan class="cls-11" x="104.077" y="16.8">y</tspan><tspan x="109.97" y="16.8">, mobile </tspan><tspan class="cls-12" x="161.971" y="16.8">r</tspan><tspan x="166.578" y="16.8">esponsi</tspan><tspan class="cls-7" x="215.394" y="16.8">v</tspan><tspan x="222.086" y="16.8">e sites a</tspan><tspan class="cls-12" x="273.875" y="16.8">r</tspan><tspan x="278.482" y="16.8">e </tspan><tspan x="121.068" y="33.6">a must</tspan></text><text class="cls-6" transform="translate(8.016 487.559)">As <tspan class="cls-9" x="19.817" y="0">y</tspan><tspan x="26.339" y="0">our business g</tspan><tspan class="cls-8" x="117.332" y="0">r</tspan><tspan x="121.933" y="0">ows, </tspan><tspan class="cls-9" x="153.87" y="0">y</tspan><tspan x="160.392" y="0">our website might </tspan><tspan x="3.449" y="16.8">need </tspan><tspan class="cls-8" x="37.369" y="16.8">t</tspan><tspan x="41.805" y="16.8">o as well - and w</tspan><tspan class="cls-13" x="144.303" y="16.8">e</tspan><tspan class="cls-14" x="151.173" y="16.8">’</tspan><tspan x="154.188" y="16.8">ll futu</tspan><tspan class="cls-12" x="189.318" y="16.8">r</tspan><tspan x="193.925" y="16.8">e p</tspan><tspan class="cls-8" x="212.663" y="16.8">r</tspan><tspan x="217.263" y="16.8">oof </tspan><tspan class="cls-9" x="241.558" y="16.8">y</tspan><tspan x="248.08" y="16.8">our </tspan><tspan x="82.359" y="33.6">website </tspan><tspan class="cls-8" x="134.224" y="33.6">t</tspan><tspan x="138.66" y="33.6">o match</tspan></text><path class="cls-15" d="M383.056,623.872a47.326,47.326,0,0,1-11.384,30.858,47.6,47.6,0,1,1,11.384-30.858Zm-2.091,0a45.514,45.514,0,1,0-45.516,45.374A45.447,45.447,0,0,0,380.965,623.872Z" transform="translate(0 -0.217)"/><path class="cls-16" d="M380.553,663.705a1.261,1.261,0,0,1,.412,1.451,51.3,51.3,0,0,1-4.161,4.09,1.072,1.072,0,0,1-1.361,0l-8.877-9.376a47.838,47.838,0,0,0,5.106-5.14l.318.268Z" transform="translate(0 -0.217)"/><path class="cls-17" d="M430.677,711.017a3.221,3.221,0,0,1,.86,2.148,3.9,3.9,0,0,1-.86,2.317s-.448,1.786-3.883,3.867a5.338,5.338,0,0,1-2.723.928,2.177,2.177,0,0,1-1.9-.928S373.8,672.171,373.947,670.68a1.472,1.472,0,0,1,1.5-1.434,1.072,1.072,0,0,0,1.361,0,51.3,51.3,0,0,0,4.161-4.09,1.261,1.261,0,0,0-.412-1.451c1.643-1.638,2.5-.317,2.5-.317S428.738,708.784,430.677,711.017Z" transform="translate(0 -0.217)"/><path class="cls-4" d="M335.283,576.244a47.629,47.629,0,1,1-47.773,47.628A47.7,47.7,0,0,1,335.283,576.244Z" transform="translate(0 -0.217)"/><path class="cls-4" d="M380.965,623.872a45.514,45.514,0,1,1-45.516-45.378A45.443,45.443,0,0,1,380.965,623.872Z" transform="translate(0 -0.217)"/><path class="cls-4" d="M300.35,635.111c0,2.219-.635,4.019-1.419,4.019s-1.415-1.8-1.415-4.019.631-4.019,1.415-4.019S300.35,632.892,300.35,635.111Z" transform="translate(0 -0.217)"/><path class="cls-4" d="M303.038,644.782c0,.987-.471,1.786-1.044,1.786s-1.048-.8-1.048-1.786.47-1.786,1.048-1.786S303.038,643.8,303.038,644.782Z" transform="translate(0 -0.217)"/><path class="cls-4" d="M366.566,659.87l8.877,9.376a1.472,1.472,0,0,0-1.5,1.434c-.148,1.491,48.221,48.669,48.221,48.669a2.177,2.177,0,0,0,1.9.928,5.338,5.338,0,0,0,2.723-.928c3.435-2.081,3.883-3.867,3.883-3.867a3.9,3.9,0,0,0,.86-2.317,3.221,3.221,0,0,0-.86-2.148c-1.939-2.233-47.621-47.629-47.621-47.629s-.86-1.321-2.5.317L371.99,655" transform="translate(0 -0.217)"/><path class="cls-4" d="M375.443,669.246a1.072,1.072,0,0,0,1.361,0,51.3,51.3,0,0,0,4.161-4.09,1.261,1.261,0,0,0-.412-1.451" transform="translate(0 -0.217)"/><text class="cls-6" transform="translate(223.145 775.559)">SEO (sea<tspan class="cls-12" x="56.39" y="0">r</tspan><tspan x="60.997" y="0">ch enging optimization) helps new </tspan><tspan x="-3.049" y="16.8">cus</tspan><tspan class="cls-8" x="19.216" y="16.8">t</tspan><tspan x="23.652" y="16.8">omers find </tspan><tspan class="cls-9" x="94.09" y="16.8">y</tspan><tspan x="100.611" y="16.8">ou - our sites a</tspan><tspan class="cls-12" x="191.919" y="16.8">r</tspan><tspan x="196.526" y="16.8">e </tspan><tspan class="cls-12" x="207.409" y="16.8">r</tspan><tspan x="212.017" y="16.8">eady </tspan><tspan class="cls-8" x="245.034" y="16.8">t</tspan><tspan x="249.471" y="16.8">o go </tspan><tspan x="-1.589" y="33.6">for </tspan><tspan class="cls-9" x="19.458" y="33.6">y</tspan><tspan x="25.98" y="33.6">ou or an SEO expe</tspan><tspan class="cls-18" x="139.122" y="33.6">r</tspan><tspan x="144.201" y="33.6">t </tspan><tspan class="cls-8" x="152.24" y="33.6">t</tspan><tspan x="156.676" y="33.6">o ta</tspan><tspan class="cls-8" x="180.315" y="33.6">k</tspan><tspan x="187.274" y="33.6">e it </tspan><tspan class="cls-8" x="209.593" y="33.6">t</tspan><tspan x="214.03" y="33.6">o the next </tspan><tspan x="122.739" y="50.4">l</tspan><tspan class="cls-7" x="126.137" y="50.4">ev</tspan><tspan x="140.157" y="50.4">el</tspan></text><text class="cls-6" transform="translate(588.049 775.559)">CMS<tspan class="cls-19" x="29.641" y="0">’</tspan><tspan x="31.671" y="0">s, CRM</tspan><tspan class="cls-19" x="75.059" y="0">’</tspan><tspan x="77.089" y="0">s, Email API</tspan><tspan class="cls-19" x="150.397" y="0">’</tspan><tspan x="152.428" y="0">s, databases - </tspan><tspan class="cls-9" x="241.678" y="0">y</tspan><tspan x="248.199" y="0">ou </tspan><tspan x="-4.211" y="16.8">name it, w</tspan><tspan class="cls-13" x="58.987" y="16.8">e</tspan><tspan class="cls-14" x="65.857" y="16.8">’</tspan><tspan x="68.872" y="16.8" xml:space="preserve">ll help.  </tspan><tspan class="cls-20" x="116.129" y="16.8">W</tspan><tspan x="128.338" y="16.8">e can help integ</tspan><tspan class="cls-10" x="226.167" y="16.8">r</tspan><tspan x="230.631" y="16.8">ate all </tspan><tspan class="cls-9" x="4.679" y="33.6">y</tspan><tspan x="11.201" y="33.6">our 3</tspan><tspan class="cls-12" x="42.967" y="33.6">r</tspan><tspan x="47.575" y="33.6">d pa</tspan><tspan class="cls-18" x="74.406" y="33.6">r</tspan><tspan x="79.485" y="33.6">ty se</tspan><tspan class="cls-21" x="108.784" y="33.6">r</tspan><tspan x="113.644" y="33.6">vices </tspan><tspan class="cls-8" x="149.252" y="33.6">t</tspan><tspan x="153.689" y="33.6">o </tspan><tspan class="cls-8" x="165.139" y="33.6">k</tspan><tspan x="172.098" y="33.6">eep </tspan><tspan class="cls-9" x="198.252" y="33.6">y</tspan><tspan x="204.774" y="33.6">our apps </tspan><tspan x="99.254" y="50.4">connected</tspan></text><text class="cls-6" transform="translate(802.617 487.559)"><tspan class="cls-22">K</tspan><tspan x="8.62" y="0">nowledge brings powe</tspan><tspan class="cls-23" x="148.326" y="0">r</tspan><tspan x="152.223" y="0">, and analytics can </tspan><tspan x="-2.311" y="16.8" xml:space="preserve">help unlock  new heights.  </tspan><tspan class="cls-20" x="161.342" y="16.8">W</tspan><tspan class="cls-13" x="173.551" y="16.8">e</tspan><tspan class="cls-14" x="180.421" y="16.8">’</tspan><tspan x="183.436" y="16.8">ll help get </tspan><tspan class="cls-9" x="246.853" y="16.8">y</tspan><tspan x="253.374" y="16.8">ou </tspan><tspan x="29.179" y="33.6">s</tspan><tspan class="cls-18" x="36.398" y="33.6">r</tspan><tspan x="41.477" y="33.6">ta</tspan><tspan class="cls-18" x="53.666" y="33.6">r</tspan><tspan x="58.745" y="33.6">te doff with Google Analytics </tspan></text><text class="cls-6" transform="translate(581.596 199.559)">Go<tspan class="cls-24" x="17.521" y="0">A</tspan><tspan x="26.537" y="0">t</tspan><tspan class="cls-25" x="31.11" y="0">I</tspan><tspan class="cls-10" x="34.72" y="0">T</tspan><tspan x="42.8" y="0" xml:space="preserve"> of</tspan><tspan class="cls-26" x="59.11" y="0">f</tspan><tspan x="63.807" y="0">ers extensi</tspan><tspan class="cls-7" x="131.332" y="0">v</tspan><tspan x="138.024" y="0">e t</tspan><tspan class="cls-10" x="153.48" y="0">r</tspan><tspan x="157.944" y="0">aining so </tspan><tspan class="cls-9" x="217.793" y="0">y</tspan><tspan x="224.314" y="0">ou know </tspan><tspan x="5.828" y="16.8">how </tspan><tspan class="cls-8" x="35.509" y="16.8">t</tspan><tspan x="39.946" y="16.8">o use </tspan><tspan class="cls-9" x="77.215" y="16.8">y</tspan><tspan x="83.737" y="16.8">our website, in addition </tspan><tspan class="cls-8" x="230.792" y="16.8">t</tspan><tspan x="235.228" y="16.8">o f</tspan><tspan class="cls-12" x="251.539" y="16.8">r</tspan><tspan x="256.146" y="16.8">ee </tspan><tspan x="52.076" y="33.6">suppo</tspan><tspan class="cls-18" x="90.706" y="33.6">r</tspan><tspan x="95.785" y="33.6">t for the first 30 d</tspan><tspan class="cls-9" x="203.376" y="33.6">a</tspan><tspan x="210.889" y="33.6">ys </tspan></text><text class="cls-27" transform="translate(274.526 177.059)">Mobile<tspan class="cls-28" x="60.391" y="0"> </tspan><tspan class="cls-29" x="65.342" y="0">First Design</tspan></text><text class="cls-30" transform="translate(627.461 177.059)"><tspan class="cls-31">T</tspan><tspan class="cls-10" x="11.201" y="0">r</tspan><tspan x="17.578" y="0">aining and</tspan><tspan class="cls-28" x="109.6" y="0"> </tspan><tspan class="cls-32" x="114.551" y="0">Suppo</tspan><tspan class="cls-33" x="171.289" y="0">r</tspan><tspan class="cls-32" x="178.545" y="0">t</tspan></text><text class="cls-27" transform="translate(63.429 465.059)">Scalability<tspan class="cls-28" x="90.723" y="0"> </tspan><tspan class="cls-29" x="95.674" y="0">in Mind</tspan></text><text class="cls-27" transform="translate(311.768 753.059)">SEO<tspan class="cls-28" x="36.982" y="0"> </tspan><tspan class="cls-29" x="41.934" y="0">Ready</tspan></text><text class="cls-30" transform="translate(852.147 465.059)">Setup for<tspan class="cls-28" x="81.309" y="0"> </tspan><tspan class="cls-32" x="86.26" y="0">Analytics</tspan></text><text class="cls-27" transform="translate(634.307 753.059)">Integ<tspan class="cls-10" x="44.824" y="0">r</tspan><tspan x="51.201" y="0">ation</tspan><tspan class="cls-28" x="95.908" y="0"> </tspan><tspan class="cls-29" x="100.859" y="0">Suppo</tspan><tspan class="cls-34" x="157.598" y="0">r</tspan><tspan class="cls-29" x="164.854" y="0">t </tspan></text><path class="cls-1" d="M122.46,341.216l20.25-33.21a1.089,1.089,0,0,1,1.89,0l20.25,33.21" transform="translate(0 -0.217)"/><polyline class="cls-1" points="146.8 340.999 164.85 340.999 180.94 367.399"/><polyline class="cls-1" points="106.36 367.399 122.46 340.999 146.8 340.999 146.8 367.399"/><polyline class="cls-1" points="87.75 397.919 106.36 367.399 129.06 367.399"/><polyline class="cls-1" points="170.44 367.399 180.94 367.399 199.56 397.919 199.08 397.919"/><path class="cls-1" d="M170.44,398.136h28.64a.883.883,0,0,1,.74.44l15.67,25.69a.868.868,0,0,1,.12.34.853.853,0,0,1,0,.42.9.9,0,0,1-.86.75H156.78a.931.931,0,0,1-.89-.97" transform="translate(0 -0.217)"/><path class="cls-1" d="M155.89,399.116a.94.94,0,0,1,.89-.98" transform="translate(0 -0.217)"/><line class="cls-1" x1="114.36" y1="397.919" x2="129.06" y2="397.919"/><polyline class="cls-1" points="155.89 397.919 155.89 398.899 155.89 424.589 155.89 425.559 114.36 425.559"/><path class="cls-1" d="M114.36,398.136v27.64H72.8a1.048,1.048,0,0,1-1-.9.991.991,0,0,1,0-.42,1.074,1.074,0,0,1,.15-.41l15.8-25.91Z" transform="translate(0 -0.217)"/><polygon class="cls-1" points="170.44 367.399 170.44 397.919 156.78 397.919 155.89 397.919 129.06 397.919 129.06 367.399 146.8 367.399 170.44 367.399"/><path class="cls-35" d="M474.5,470.844l2.324-80.051s-.116-4.764,4.183-4.88,119.553,0,119.553,0,3.6-.7,4.067,4.3,4.405,79.394,4.405,79.394c-.029.145.281,1.219-1.036,1.238-1.63.024-132.334.813-132.334.813S474.48,471.551,474.5,470.844Z" transform="translate(0 -0.217)"/><polygon class="cls-35" points="482.44 392.086 599.553 392.706 603.349 465.282 481.355 465.282 482.44 392.086"/><path class="cls-35" d="M475.205,471.562c-1.47,0-1.828.444-1.828.444s-9.914,12.083-12.315,15.259,2.478,2.788,2.478,2.788,166.609-.62,168.313-.775.542-1.161.542-1.161-20.6-15.8-21.533-16.46a3.233,3.233,0,0,0-1.719-.653l-2.309-.139" transform="translate(0 -0.217)"/><path class="cls-35" d="M460.418,488.967l-.021,5.056s.3,3.536,2.08,3.536,166.665-1.852,166.665-1.852,3.562-.232,3.64-3.253a19.572,19.572,0,0,0-.052-3.509" transform="translate(0 -0.217)"/><path class="cls-35" d="M519.348,482l52.36-.039.891,1.394c.89,1.394,3.137,4.764,3.137,4.764s.581.882-1.666.828-55.458.217-55.458.217-.852.194-.736-1.123.232-5.77.232-5.77S518.147,482,519.348,482Z" transform="translate(0 -0.217)"/><path class="cls-35" d="M474.5,481.068s5.345-8.171,5.5-8.21.464-.7,2.711-.581,120.328-.62,120.328-.62.62-.387,2.091.968S614,480.467,614,480.467s.465.6-.891.6-137.756.5-137.756.5S474.094,481.688,474.5,481.068Z" transform="translate(0 -0.217)"/><rect class="cls-3" x="399" y="287.356" width="286" height="286.866"/></g></g></svg>