<svg xmlns="http://www.w3.org/2000/svg" id="svg7351" version="1.1" viewBox="0 0 416.867 333.47">
  <g id="layer1" fill-opacity="1" stroke-dasharray="none" stroke-miterlimit="4" stroke-opacity="1" transform="translate(-222.995 -548.485)">
    <path id="path4178" fill="#fff" stroke="#000" stroke-width="21.786" d="M393.703 604.777c10.923-.532 17.903-.661 24.17.34 6.266 1.001 11.755 3.305 19.403 6.808 9.113 4.172 18.94 10.678 27.574 18.383 8.633 7.704 16.158 16.474 21.105 24.85 2.15 3.64 4.202 5.754 6.808 7.148 2.607 1.395 5.887 2.035 10.553 2.043 10.368.022 20.309 2.082 29.616 5.787 9.306 3.705 17.76 8.996 25.19 15.659 7.43 6.662 13.985 14.6 18.723 23.488 4.737 8.889 7.62 18.892 8.85 29.276.872 7.326 1.81 11.499 3.745 14.637 1.935 3.139 5.18 5.03 10.553 7.83 10.139 5.281 17.296 13.056 22.127 22.126 4.831 9.07 7.19 19.655 6.808 29.957-.381 10.302-3.35 20.298-8.85 29.275s-13.646 16.692-24.17 21.786c-7.119 3.447-11.588 5.255-31.658 6.128-20.07.872-55.649.82-124.59.68-77.94-.156-145.637-1.263-150.463-2.723-9.773-2.956-18.663-8.027-26.212-14.297-7.549-6.27-13.932-13.847-18.722-22.467-4.791-8.62-8.036-18.248-9.532-28.254-1.495-10.006-.97-20.548 1.362-30.978 2.57-11.49 8.368-22.612 16.34-31.998 7.971-9.387 17.958-16.704 28.594-20.766 7.06-2.696 10.529-4.382 12.595-7.489 2.068-3.106 2.764-7.969 3.745-17.36 1.296-12.404 3.612-22.064 7.49-30.978 3.876-8.914 9.26-17.009 17.36-26.212 9.516-10.811 19.428-18.533 30.978-23.829 11.55-5.295 24.766-8.082 40.508-8.85z"/>
    <path id="path7338" fill="#fff" stroke="none" stroke-dashoffset="0" stroke-linejoin="miter" stroke-width="2.653" d="M92.637 479.387a1.76 1.76 0 00-.051.002c-.025 0-.064 0-.111.002l-.004.002c-.024 0-.043.013-.067.013a1.76 1.76 0 00-.23.047c-3.361.189-6.123 2.962-6.137 6.373v.1a1.76 1.76 0 00-1.19 1.686c.031 2.507-.065 5.1.053 7.757a1.76 1.76 0 00.018.182c.375 2.516 2.494 4.688 5.277 4.559l-.08.002c1.852-.003 3.778.06 5.764-.041a1.76 1.76 0 00.209-.024c2.789-.48 4.542-3.08 4.338-5.756l.006.15c.02-2.299-.001-4.579.008-6.841a1.76 1.76 0 00-1.213-1.678c-.038-1.072-.2-2.218-.943-3.369a6.57 6.57 0 00-5.647-3.166zm-.024 5.502h.033c.45.006 1.025.509 1.016.834a1.76 1.76 0 000 .107h-2.074c.003-.016-.003-.16.002-.168a1.76 1.76 0 00.057-.101c.197-.38.651-.666.92-.67a1.76 1.76 0 00.046-.002z" opacity=".98" transform="matrix(10.89318 0 0 10.89318 -477.592 -4673.559)"/>
    <path id="path3355" fill="#000" stroke="none" stroke-dashoffset="0" stroke-linejoin="miter" stroke-width="2.653" d="M531.64 567.668c-.588.004-1.17.009-1.757.032-26.903.171-51.04 24.096-51.109 51.07-.305 6.36.11 12.723 0 19.084h-12.961c.348 27.949-.698 55.962.544 83.87 2.682 17.972 18.82 34.223 37.637 33.348 20.605-.032 41.272.638 61.84-.416 19.308-3.326 32.867-23.152 31.403-42.341.218-24.814 0-49.629.109-74.443-4.302-.109-8.604.076-12.906-.054.327-15.11 1.035-31.625-7.576-44.722-9.313-15.542-27.066-25.548-45.213-25.432zm.25 21.577c15.286.21 30.387 12.868 29.947 28.794.305 6.604.501 13.211.643 19.82-20.563-.009-41.126.033-61.688-.033.109-10.337-2.71-21.64 2.946-30.948 5.138-9.862 15.405-17.408 26.679-17.61.49-.021.98-.032 1.474-.021z" opacity=".98"/>
  </g>
</svg>
