<svg xmlns="http://www.w3.org/2000/svg" id="Layer_1" x="0" y="0" version="1.1" viewBox="0 0 300.617 300.617" xml:space="preserve">
  <path d="M277.291 116.422c.324-3.222.477-6.117.477-8.937 0-52.958-43.085-96.044-96.043-96.044-27.664 0-53.712 11.786-71.97 32.45-8.241-2.582-16.682-3.889-25.135-3.889C37.96 40.002 0 77.962 0 124.621s37.96 84.619 84.619 84.619h53.352v-9.3H84.619c-41.531 0-75.319-33.788-75.319-75.319s33.788-75.319 75.319-75.319c8.441 0 16.88 1.472 25.084 4.374l3.064 1.084 2.071-2.505c16.556-20.027 40.935-31.513 66.887-31.513 47.831 0 86.743 38.913 86.743 86.744 0 3.284-.238 6.723-.749 10.823l-.389 3.123 2.754 1.522c13.097 7.238 21.233 21.009 21.233 35.94 0 22.633-18.413 41.047-41.047 41.047h-83.729v9.3h83.729c27.761 0 50.347-22.585 50.347-50.346-.001-17.263-8.862-33.26-23.326-42.473z"/>
  <path d="M182.479 147.805l-30.223-30.223-30.223 30.223 6.576 6.576 18.997-18.997v91.893h9.3v-91.893l18.997 18.997z"/>
  <path d="M147.606 232.038h9.3v23.807h-9.3z"/>
  <path d="M147.606 260.607h9.3v14.284h-9.3z"/>
  <path d="M147.606 279.653h9.3v9.523h-9.3z"/>
</svg>
