<svg xmlns="http://www.w3.org/2000/svg" viewBox="0 0 641 401">
  <path id="ComputerOutline" fill="none" stroke="#ff4242" stroke-miterlimit="10" d="M.5.5h640v400H.5z"/>
  <g id="ComputerGroup">
    <rect id="ComputerBody" width="600" height="352.94" x="20.5" y="47.56" fill="#d1e3dd" rx="12" ry="12"/>
    <rect id="InnerScreen" width="550.59" height="301.18" x="45.21" y="81.09" fill="#e6efec" rx="12" ry="12"/>
    <path fill="none" stroke="#ff4242" stroke-linecap="round" stroke-miterlimit="10" stroke-width="5" d="M48.44 379.08l133.82-110.93 42.48 42.73 154-128.03 40 41.18L592.23 83.95"/>
    <path id="Star" fill="#f2f7f6" d="M595.79 62.46l-6.84-.45-2.57-6.47-2.58 6.47-6.83.45 5.24 4.45-1.72 6.75 5.89-3.72 5.89 3.72-1.72-6.75 5.24-4.45z"/>
    <rect id="SearchBar" width="441.18" height="17.06" x="99.62" y="56.68" fill="#e6efec" rx="8.47" ry="8.47"/>
    <g id="ForwardArrow" fill="none" stroke="#808489" stroke-linecap="round" stroke-linejoin="round" stroke-width=".5">
      <path d="M79.32 65.46l-12.64.04M79.32 65.46l-6.01-4.01M79.32 65.46l-6.01 4.01"/>
    </g>
    <g id="BackArrow" fill="none" stroke="#808489" stroke-linecap="round" stroke-linejoin="round" stroke-width=".5">
      <path d="M44.91 65.46l6.01-4.01M44.91 65.46l6.01 4.01M44.91 65.46l12.65.04"/>
    </g>
  </g>
  <g id="GearGroup">
    <g id="LargeGear">
      <path fill="#838383" d="M1657.45 755.65h-10.08a14.8 14.8 0 01-14.78-14.79v-3.41a64.54 64.54 0 01-10.07-4.17l-2.41 2.41a14.78 14.78 0 01-20.91 0l-7.13-7.12a14.79 14.79 0 010-20.91l2.42-2.42a65.46 65.46 0 01-4.18-10.06h-3.41a14.8 14.8 0 01-14.78-14.79v-10.08a14.8 14.8 0 0114.78-14.78h3.41a65.57 65.57 0 014.18-10.07l-2.42-2.41a14.79 14.79 0 010-20.91l7.13-7.13a14.78 14.78 0 0120.91 0l2.41 2.41a65.57 65.57 0 0110.07-4.18v-3.41a14.8 14.8 0 0114.78-14.78h10.08a14.8 14.8 0 0114.78 14.78v3.41a65.16 65.16 0 0110.07 4.18l2.42-2.42a14.78 14.78 0 0120.91 0l7.12 7.12a14.78 14.78 0 010 20.91l-2.42 2.41a63.63 63.63 0 014.18 10.07h3.41a14.8 14.8 0 0114.79 14.78v10.08a14.81 14.81 0 01-14.79 14.79h-3.41a63.53 63.53 0 01-4.18 10.06l2.42 2.42a14.78 14.78 0 010 20.91l-7.13 7.12a14.76 14.76 0 01-20.9 0l-2.42-2.41a64.14 64.14 0 01-10.07 4.17v3.41a14.8 14.8 0 01-14.78 14.81z" transform="translate(-1357.5 -457.5)"/>
      <circle cx="294.91" cy="217.85" r="34.94" fill="#e6efec"/>
    </g>
    <g id="SmallGear">
      <path fill="#838383" d="M1752.7 783.29h-4.1a6 6 0 01-6-6v-1.39a26.64 26.64 0 01-4.1-1.7l-1 1a6 6 0 01-8.5 0l-2.9-2.9a6 6 0 010-8.5l1-1a26.53 26.53 0 01-1.7-4.09h-1.4a6 6 0 01-6-6v-4.1a6 6 0 016-6h1.39a26.64 26.64 0 011.7-4.1l-1-1a6 6 0 010-8.5l2.9-2.9a6 6 0 018.5 0l1 1a26.64 26.64 0 014.1-1.7V724a6 6 0 016-6h4.1a6 6 0 016 6v1.39a26.53 26.53 0 014.09 1.7l1-1a6 6 0 018.5 0l2.9 2.9a6 6 0 010 8.5l-1 1a26.64 26.64 0 011.7 4.1h1.38a6 6 0 016 6v4.1a6 6 0 01-6 6h-1.38a26.53 26.53 0 01-1.7 4.09l1 1a6 6 0 010 8.5l-2.9 2.9a6 6 0 01-8.5 0l-1-1a26.53 26.53 0 01-4.09 1.7v1.38a6 6 0 01-5.99 6.03z" transform="translate(-1357.5 -457.5)"/>
      <circle cx="393.15" cy="293.15" r="14.21" fill="#e6efec"/>
    </g>
  </g>
</svg>
