<svg xmlns="http://www.w3.org/2000/svg" id="svg1" x="0" y="0" version="1.0" viewBox="0 0 60 60">
  <path id="path1100" fill="none" stroke="#fff" stroke-linecap="round" stroke-linejoin="round" stroke-width="8.125" d="M30 4.688c-12.713 0-23.031 2.701-23.031 6.031v.656l20.125 20.594v23.343H32.5V32.094l20.53-20.719v-.656c0-3.33-10.317-6.032-23.03-6.032z"/>
  <path id="path685" fill="#fff" fill-rule="evenodd" stroke="#000" stroke-linecap="round" stroke-linejoin="round" stroke-width="3.12569442" d="M27.088 55.299v-23.34L6.973 11.379h46.054l-20.512 20.71v23.225l-5.427-.015z"/>
  <path id="path686" fill="#fff" fill-rule="evenodd" stroke="#000" stroke-linejoin="round" stroke-width="2.55" d="M51.405 10.885c0 2.388-9.576 4.326-21.376 4.326S8.652 13.273 8.652 10.885s9.577-4.326 21.377-4.326 21.376 1.938 21.376 4.326z" transform="matrix(1.0774 0 0 1.3942 -2.352 -4.46)"/>
  <path id="path687" fill="#000" fill-rule="evenodd" d="M43.727 10.965c0 .844-6.369 1.529-14.216 1.529s-14.216-.685-14.216-1.529c0-.845 6.369-1.53 14.216-1.53s14.216.685 14.216 1.53z" transform="matrix(1.0991 0 0 1.4837 -2.434 -5.552)"/>
</svg>
