<svg xmlns="http://www.w3.org/2000/svg" viewBox="0 0 703.85 218.73">
  <g id="Layer_1" data-name="Layer 1">
    <g fill="#575a5e">
      <path d="M-13.5 136.6h178.39c3.22 0 3.23-5 0-5H-13.5c-3.22 0-3.22 5 0 5z" transform="translate(29.34 -71.75)"/>
      <path d="M-11.73 132.33l-7.72-7.6c-2.29-2.26-5.83 1.28-3.53 3.54l7.71 7.6c2.3 2.26 5.83-1.28 3.54-3.54zM-28.77 132.07l9.65 12.35c2 2.53 5.49-1 3.53-3.54l-9.64-12.35c-2-2.53-5.5 1-3.54 3.54z" transform="translate(29.34 -71.75)"/>
      <path d="M-19.77 142l-8.68 34.2c-.79 3.12 4 4.45 4.82 1.32l8.68-34.2c.8-3.12-4-4.45-4.82-1.32z" transform="translate(29.34 -71.75)"/>
      <path d="M-28.19 178.11l17.35 34.2c1.46 2.87 5.77.34 4.32-2.52l-17.36-34.2c-1.45-2.87-5.77-.34-4.31 2.52z" transform="translate(29.34 -71.75)"/>
      <path d="M-11.09 211.71l10.61 77c.44 3.18 5.25 1.83 4.82-1.32l-10.61-77c-.44-3.18-5.25-1.83-4.82 1.32zM11.18 288l8.39-74.4c.36-3.19-4.64-3.17-5 0L6.18 288c-.36 3.19 4.64 3.17 5 0z" transform="translate(29.34 -71.75)"/>
      <path d="M17.36 222.1l106.46 3.74 15.25.54c3.22.11 3.22-4.89 0-5L32.6 217.64l-15.24-.54c-3.22-.11-3.22 4.89 0 5z" transform="translate(29.34 -71.75)"/>
      <path d="M139.74 226.29l34.5-12.83c3-1.11 1.69-6-1.33-4.82l-34.5 12.82c-3 1.12-1.7 5.95 1.33 4.83z" transform="translate(29.34 -71.75)"/>
      <path d="M171.07 211.05l8.68 76.95c.36 3.16 5.36 3.2 5 0l-8.68-76.95c-.36-3.16-5.36-3.2-5 0zM193.34 288.66l15.21-104.89L210.7 169c.45-3.14-4.36-4.5-4.82-1.32l-15.22 104.85-2.14 14.81c-.46 3.14 4.36 4.5 4.82 1.32zM210.42 161.22l8.11-33.92c.74-3.13-4.08-4.46-4.83-1.33l-8.1 33.92c-.75 3.13 4.07 4.47 4.82 1.33z" transform="translate(29.34 -71.75)"/>
      <path d="M210.42 159.89l-7.42-29.3c-.79-3.12-5.61-1.8-4.82 1.32l7.44 29.31c.79 3.12 5.61 1.8 4.82-1.33zM167.05 135.36l17.36-34.2c1.45-2.86-2.86-5.39-4.32-2.52l-17.36 34.2c-1.45 2.86 2.86 5.39 4.32 2.52z" transform="translate(29.34 -71.75)"/>
      <path d="M184 98.13l-8.68-8.55c-2.3-2.26-5.83 1.28-3.54 3.54l8.68 8.55c2.3 2.26 5.83-1.28 3.54-3.54z" transform="translate(29.34 -71.75)"/>
      <path d="M172.91 88.94l-26 8.55c-3 1-1.74 5.83 1.33 4.82l26-8.55c3-1 1.74-5.83-1.33-4.82z" transform="translate(29.34 -71.75)"/>
      <path d="M149.3 101.67l26-25.65c2.29-2.26-1.24-5.8-3.54-3.54l-26 25.65c-2.3 2.26 1.24 5.8 3.53 3.54z" transform="translate(29.34 -71.75)"/>
      <path d="M172.31 76.41l60.75 34.2c2.81 1.58 5.33-2.74 2.52-4.32l-60.75-34.2c-2.8-1.58-5.33 2.74-2.52 4.32z" transform="translate(29.34 -71.75)"/>
      <path d="M232.16 109.71l8.68 17.1c1.46 2.87 5.77.34 4.32-2.52l-8.68-17.1c-1.46-2.87-5.77-.34-4.32 2.52z" transform="translate(29.34 -71.75)"/>
      <path d="M240.84 124.29L229.06 140c-1.93 2.57 2.4 5.07 4.31 2.52l11.79-15.73c1.93-2.57-2.41-5.07-4.32-2.52z" transform="translate(29.34 -71.75)"/>
      <path d="M233 139.51l-7.12-7.18c-2.27-2.28-5.81 1.25-3.54 3.54l7.13 7.18c2.27 2.28 5.8-1.25 3.53-3.54z" transform="translate(29.34 -71.75)"/>
    </g>
    <g fill="#ff4242">
      <path d="M71.2 203l-26-25.65v3.53l26-25.65c2.29-2.26-1.24-5.79-3.54-3.53l-26 25.65a2.52 2.52 0 000 3.53l26 25.65c2.3 2.26 5.83-1.27 3.54-3.53zM83.92 209.91l10.42-61.13c.54-3.14-4.28-4.5-4.82-1.32L79.1 208.59c-.53 3.14 4.28 4.5 4.82 1.32zM105.91 206.48l26-25.65a2.54 2.54 0 000-3.53l-26-25.65c-2.29-2.26-5.83 1.27-3.53 3.53l26 25.65v-3.53l-26 25.65c-2.3 2.26 1.24 5.8 3.53 3.53z" transform="translate(29.34 -71.75)"/>
    </g>
  </g>
  <g id="Text">
    <path fill="#575a5e" d="M321.62 274.59a31.23 31.23 0 01-14.54 11.13 58.92 58.92 0 01-21.73 3.68 42.23 42.23 0 01-22.26-5.86 39.15 39.15 0 01-15-16.68q-5.31-10.8-5.46-25.07v-8.91q0-23.1 10.82-35.82t30.39-12.71q16.05 0 25.85 8.18t12 23.21H308.1q-3.81-20.36-24.23-20.36-13.59 0-20.6 9.52t-7.08 27.59v8.36q0 17.22 7.89 27.37t21.34 10.16a47.29 47.29 0 0013.31-1.68 20.56 20.56 0 009.44-5.68v-22.91h-23.74v-11h37.19zM338.67 249.31a44.67 44.67 0 014.4-20.08 32.71 32.71 0 0112.26-13.77 33.41 33.41 0 0117.92-4.84q15.57 0 25.18 10.74t9.62 28.58v.91a45.15 45.15 0 01-4.26 19.91 32.31 32.31 0 01-12.19 13.73 33.78 33.78 0 01-18.21 4.91q-15.5 0-25.11-10.74t-9.61-28.44zm13.1 1.54q0 12.64 5.88 20.3a20 20 0 0031.52-.11q5.85-7.76 5.85-21.73 0-12.5-6-20.26a18.93 18.93 0 00-15.81-7.76 18.72 18.72 0 00-15.56 7.65q-5.88 7.67-5.88 21.91zM483.06 261.25h-43L430.45 288H416.5l39.16-102.24h11.84L506.73 288h-13.88zm-38.88-11h34.87l-17.47-47.85zM535 193.62V212h14.2v10H535v47.18c0 3.05.64 5.33 1.91 6.86s3.42 2.28 6.47 2.28a31.68 31.68 0 006.2-.84V288a38.05 38.05 0 01-10 1.39q-8.73 0-13.17-5.26t-4.44-15v-47.07h-13.9V212h13.87v-18.4z" transform="translate(29.34 -71.75)"/>
    <path fill="#ff4242" d="M581 288h-13.56V185.76H581zM674.51 196.78h-33V288h-13.42v-91.22H595.2v-11h79.31z" transform="translate(29.34 -71.75)"/>
  </g>
</svg>
