<svg xmlns="http://www.w3.org/2000/svg" id="Layer_1" data-name="Layer 1" viewBox="0 0 294 294">
  <g id="CodeGroup" fill="#ff4242">
    <path d="M289.77 243.23l-27-27v3.54l27-27c2.28-2.28-1.26-5.82-3.54-3.54l-27 27a2.55 2.55 0 000 3.54l27 27c2.28 2.28 5.82-1.26 3.54-3.54z" transform="translate(-177 -69)"/>
    <path d="M302.94 250.44l10.8-64.35c.53-3.15-4.29-4.5-4.82-1.33l-10.8 64.35c-.53 3.15 4.29 4.5 4.82 1.33z" transform="translate(-177 -69)"/>
    <path d="M325.77 246.77l27-27a2.55 2.55 0 000-3.54l-27-27c-2.28-2.28-5.82 1.26-3.54 3.54l27 27v-3.54l-27 27c-2.28 2.28 1.26 5.82 3.54 3.54z" transform="translate(-177 -69)"/>
  </g>
  <g id="GoatBody" fill="#575a5e">
    <path d="M395.34 251.59l-33.21 12.53c-.6.23-3.32 1-2 .88a16.59 16.59 0 01-2.44-.09l-11.9-.42-87-3.11-24.79-.88c-3.22-.11-3.21 4.89 0 5l65.1 2.32 43.95 1.57c5.6.2 12.6 1.63 18.11.42 6.25-1.37 12.56-4.74 18.54-7l17-6.4c3-1.12 1.69-6-1.32-4.82z" transform="translate(-177 -69)"/>
    <path d="M429.34 245.14l5.07-35.48c.45-3.14-4.37-4.5-4.82-1.32l-5.07 35.47c-.45 3.15 4.37 4.5 4.82 1.33z" transform="translate(-177 -69)"/>
    <path d="M421.59 170.66l7.71 30.85c.59 2.36 4.26 2.41 4.82 0l8.41-35.7c.74-3.13-4.08-4.47-4.82-1.33l-8.41 35.71h4.82l-7.71-30.85c-.78-3.12-5.6-1.8-4.82 1.32z" transform="translate(-177 -69)"/>
    <path d="M446.62 174.77l7.39 7.55a2.54 2.54 0 003.93-.5l12.22-16.56a2.5 2.5 0 000-2.52c-2.84-5.67-5.2-12.06-8.68-17.35-1.74-2.66-5.46-4-8.17-5.52L410 115.12l-12.75-7.28a2.56 2.56 0 00-3 .39l-27 27c-1.7 1.71 0 5 2.43 4.18l27-9-2.43-.64 9 9-.39-3-18 36 2.14-1.27H216.93c-4.33 0-8.72-.21-13.05 0-1 .05-2.44-.49-1 .33 1.8 1-.14-.61-.48-1-.8-.92-1.74-1.74-2.6-2.61l-4-4a2.54 2.54 0 00-3-.39l-6 4c-1 .68-1.76 2.3-.9 3.42l5.9 7.67c1 1.34 2.1 3.34 3.42 4.44.08.07.54.85.63.83-.69.12.55-2.49-.33-1.34-1.34 1.74-1.54 6.15-2.06 8.24l-3.27 13.07-2.78 11.13c-.45 1.77-1 3.22-.49 5 1.74 5.67 5.67 11.36 8.32 16.64l9.66 19.33c1.44 2.88 5.76.35 4.32-2.52L201.26 237l-5.95-12c-1.12-2.25-2.13-5.73-3.81-7.62-1.09-1.22.12.85 0 1 .4-.29.56-2.24.68-2.74L195 204.5c1.74-6.95 4.39-14.21 5.33-21.31.36-2.73-1.45-4.18-3.08-6.29l-7-9.16-.9 3.42 6-4-3-.39c2.78 2.78 6.27 8.25 10.34 8.73a76.85 76.85 0 008.85 0H387a2.49 2.49 0 002.16-1.24l18-36a2.59 2.59 0 00-.39-3l-9-9a2.49 2.49 0 00-2.43-.64l-27 9 2.43 4.18 27-27-3 .39 31.06 17.75 21.6 12.34c3.37 1.93 7.18 3.62 10.32 5.9-1.69-1.23-.63-.86-.47-.07a10.9 10.9 0 001.08 2.16l3 6 4.5 9v-2.52l-12.22 16.55 3.93-.5-7.39-7.56c-2.26-2.3-5.79 1.23-3.54 3.54z" transform="translate(-177 -69)"/>
  </g>
  <g id="GoatLegs" fill="#575a5e">
    <g id="FrontLegFront">
      <path d="M394.23 255.77l49.5 62.5c2 2.52 5.52-1 3.54-3.54l-49.5-62.5c-2-2.52-5.52 1-3.54 3.54z" transform="translate(-177 -69)"/>
      <path d="M458.66 311.24l-29.57-68c-1.28-2.94-5.59-.4-4.32 2.52l29.57 68c1.28 2.95 5.59.4 4.32-2.52z" transform="translate(-177 -69)"/>
    </g>
    <g id="FrontLegBack">
      <path d="M393.59 253.34l-19.5 61.5c-1 3.07 3.85 4.39 4.82 1.32l19.5-61.5c1-3.07-3.85-4.39-4.82-1.32z" transform="translate(-177 -69)"/>
      <path d="M389.66 319.76l39.43-74c1.51-2.83-2.8-5.36-4.32-2.52l-39.43 74c-1.51 2.84 2.8 5.37 4.32 2.52z" transform="translate(-177 -69)"/>
    </g>
    <g id="BackLegFront">
      <path d="M204.84 255.26l45.5 67.5c1.79 2.66 6.12.16 4.32-2.52l-45.5-67.5c-1.79-2.66-6.12-.16-4.32 2.52z" transform="translate(-177 -69)"/>
      <path d="M266.66 316.24l-30.8-60.82c-1.45-2.87-5.77-.34-4.32 2.52l30.8 60.82c1.46 2.87 5.77.35 4.32-2.52z" transform="translate(-177 -69)"/>
    </g>
    <g id="BackLegBack">
      <path d="M204.84 252.74l-27.5 64.5c-1.25 2.93 3.06 5.48 4.32 2.52l27.5-64.5c1.25-2.93-3.06-5.48-4.32-2.52z" transform="translate(-177 -69)"/>
      <path d="M190.66 324.76l45.2-66.82c1.81-2.67-2.52-5.17-4.32-2.52l-45.2 66.82c-1.81 2.67 2.52 5.18 4.32 2.52z" transform="translate(-177 -69)"/>
    </g>
  </g>
  <g id="SuccessGroup" fill="none" stroke="#d1e3dd" stroke-miterlimit="10">
    <circle id="SuccessOutline" cx="147" cy="147" r="144" stroke-width="6"/>
    <path stroke-width="9" d="M237 93L111 219l-42-42"/>
  </g>
  <g id="ErrorGroup" fill="none" stroke="#ff4242" stroke-miterlimit="10">
    <circle id="ErrorOutline" cx="147" cy="147" r="144" stroke-width="6"/>
    <path id="ErrorCross2" stroke-width="8" d="M75 75l144 144"/>
    <path id="ErrorCross1" stroke-width="8" d="M219 75L75 219"/>
  </g>
</svg>
