<svg xmlns="http://www.w3.org/2000/svg" viewBox="0 0 1243.85 893.35">
  <g id="MobileFirstGroup">
    <ellipse cx="496.63" cy="231.9" fill="#e6efec" rx="189" ry="162" transform="rotate(-18.35 258.612 393.59)"/>
    <text fill="#ff4242" font-family="Roboto-Regular, Roboto" font-size="22" transform="translate(337.98 195.77)">
      Mobile<tspan x="66.43" y="0" fill="#575a5e"> </tspan><tspan x="71.88" y="0" fill="#313335">First Design</tspan>
    </text>
    <text fill="#313335" font-family="Roboto-Regular, Roboto" font-size="16" transform="translate(288.68 218.27)">
      Mobile d<tspan x="61.3" y="0" letter-spacing="-.01em">e</tspan><tspan x="69.67" y="0">vices ma</tspan><tspan x="133.09" y="0" letter-spacing="-.01em">k</tspan><tspan x="141.05" y="0">e up a little </tspan><tspan x="222.45" y="0" letter-spacing="-.01em">o</tspan><tspan x="231.45" y="0" letter-spacing="-.01em">v</tspan><tspan x="239.1" y="0">er 50% </tspan><tspan x="4.05" y="19.2">of all web t</tspan><tspan x="81.78" y="19.2" letter-spacing="-.02em">r</tspan><tspan x="86.88" y="19.2">affic - </tspan><tspan x="131.29" y="19.2" letter-spacing="-.01em">t</tspan><tspan x="136.36" y="19.2">od</tspan><tspan x="154.51" y="19.2" letter-spacing="-.01em">a</tspan><tspan x="163.09" y="19.2" letter-spacing="-.05em">y</tspan><tspan x="169.83" y="19.2">, mobile </tspan><tspan x="229.26" y="19.2" letter-spacing="-.01em">r</tspan><tspan x="234.52" y="19.2">espon</tspan><tspan x="278.18" y="19.2">-</tspan><tspan x="70.49" y="38.4">si</tspan><tspan x="82.63" y="38.4" letter-spacing="-.01em">v</tspan><tspan x="90.27" y="38.4">e sites a</tspan><tspan x="149.46" y="38.4" letter-spacing="-.01em">r</tspan><tspan x="154.73" y="38.4">e a must</tspan>
    </text>
    <g fill="none" stroke="#333" stroke-miterlimit="10">
      <path d="M479.36 115.79l-.12-.26c-1.92-4.11-5.3-4.65-6.42-4.37s-1 .57-1.61 1.6-.8 9.15-.8 9.15-.06 4.69-.92 6a17 17 0 00-1.44 2.86 53.41 53.41 0 00-2.06 6.7 29 29 0 01-1.49 5s-1.95 7.27-3.5 11-1.5 5.44-1.5 5.44l-.17 3.31s.4 12.82.46 17.28-.29 10-.29 10 0 7.44-1.83 10-6.09 12.59-6.09 12.59l35.05 16.16 3-8.63a18.17 18.17 0 013.62-4.5 34.85 34.85 0 004.86-6l9.64-12.1 3.7-4.93a33.67 33.67 0 002.67-4.85c.69-1.85 2-2.71 3.1-4.89a8.5 8.5 0 001.07-3 1.6 1.6 0 001.12-1.18" transform="translate(-63 -66.73)"/>
      <path d="M479.39 155.18c0-3.44 0-7.21-.05-11.15 0-9.29-.08-19.51-.1-28.5 0-13.76 0-24.63.12-24.8.34-.45.69-6 5.62-6.06s34.09-.23 34.09-.23 5.62 1 5.85 6.07c.08 1.7.12 11.59.13 23.94v57.89s.05 5.88-5.66 5.92-34.28.08-34.28.08-5.6-.14-5.63-5.77c0 0 0-6.8-.08-16.47M479.39 156.08v-.89M525.06 125.8s1.31.45 4.54-.42l.28-.08a23.18 23.18 0 006.7-3.66c1.28-.86 1.67-2.13 1.48-4.13s-2.37-3-2.94-3.22a35.8 35.8 0 00-4.53-.16l-5.53.32" transform="translate(-63 -66.73)"/>
      <path d="M529.88 125.3a38 38 0 012.7 4c.72 1.39.33 5.55.33 5.55s.09 2.68.12 4.28v1.13c0 .48-.17 1.18-2.57 1.71a4.76 4.76 0 01-2.85-.33 6.66 6.66 0 01-2.56-1.81" transform="translate(-63 -66.73)"/>
      <path d="M533.05 139.11s2.83 1.31 3.15 3.26a8.82 8.82 0 010 3.2s-.81 1.52-1.87 4.12-1.28 3.12-1.28 4.06a3.32 3.32 0 01-1.84 3.38c-1.42.78-3.32.22-4.15-.09l-.42-.17a3.1 3.1 0 01-1.58-1.66" transform="translate(-63 -66.73)"/>
      <path d="M533.05 153.75s1.63-.54 2.89 1.63a4.86 4.86 0 01.74 3.81c0 .28-1.76 3.72-1.76 3.72s-2.6 3.4-2.85 3.89a4.8 4.8 0 01-2.76 2.28c-1.78.63-4.27-.77-4.27-.77M525 159.19v0a7.92 7.92 0 012-2.13M525.06 144.71a5.14 5.14 0 012.56-3.08" transform="translate(-63 -66.73)"/>
      <ellipse cx="439.25" cy="105.65" rx="3.62" ry="3.6"/>
      <path d="M419.09 29.26l40.48.15v71.23h-40.48V29.26z"/>
      <rect width="14.58" height="1.14" x="431.16" y="22.86" rx=".51" ry=".51"/>
      <path d="M479.33 144s-.19 5.57-1.18 6.3a30.16 30.16 0 011.24 4.85h0a3.75 3.75 0 010 .89h0" transform="translate(-63 -66.73)"/>
    </g>
  </g>
  <g id="TrainingGroup">
    <ellipse cx="872.5" cy="237" fill="#e6efec" rx="184.5" ry="162" transform="rotate(-36.41 739.594 299.407)"/>
    <g fill="none" stroke="#333" stroke-miterlimit="10">
      <path d="M905.23 182.16a12 12 0 01-7.3 2.5h-86.22a12 12 0 01-12-12v-44.52a12 12 0 0112-12h86.22a12 12 0 0112 12v44.52a12 12 0 01-4.7 9.5z" transform="translate(-63 -66.73)"/>
      <path d="M887 182.16h-72a12 12 0 01-12-12v-39.53a12 12 0 0112-12h79.7a12 12 0 0112 12v39.53a12 12 0 01-12 12H887z" transform="translate(-63 -66.73)"/>
      <path d="M741.67 115.44h-5.95M841.98 115.44h5.94M823.97 115.44l-11.41-10.47.69-1 12.38 11.47 2.69 2.49 41.07 38.05-.52.66-42.19-38.71-2.71-2.49z"/>
    </g>
    <text fill="#313335" font-family="Roboto-Regular, Roboto" font-size="22" transform="translate(698.21 196.77)">
      <tspan letter-spacing="-.04em">T</tspan><tspan x="12.32" y="0" letter-spacing="-.02em">r</tspan><tspan x="19.34" y="0">aining and</tspan><tspan x="120.56" y="0" fill="#575a5e"> </tspan><tspan x="126.01" y="0" fill="#ff4242">Suppo</tspan><tspan x="188.42" y="0" fill="#ff4242" letter-spacing=".02em">r</tspan><tspan x="196.4" y="0" fill="#ff4242">t</tspan>
    </text>
    <text fill="#313335" font-family="Roboto-Regular, Roboto" font-size="16" transform="translate(662.85 219.27)">
      Go<tspan x="20.02" y="0" letter-spacing="-.01em">A</tspan><tspan x="30.33" y="0">t</tspan><tspan x="35.55" y="0" letter-spacing="-.01em">I</tspan><tspan x="39.68" y="0" letter-spacing="-.02em">T</tspan><tspan x="48.91" y="0"> of</tspan><tspan x="67.55" y="0" letter-spacing="-.01em">f</tspan><tspan x="72.92" y="0">ers extensi</tspan><tspan x="150.09" y="0" letter-spacing="-.01em">v</tspan><tspan x="157.74" y="0">e t</tspan><tspan x="175.41" y="0" letter-spacing="-.02em">r</tspan><tspan x="180.51" y="0">aining so </tspan><tspan x="248.91" y="0" letter-spacing="-.01em">y</tspan><tspan x="256.36" y="0">ou </tspan><tspan x=".88" y="19.2">know how </tspan><tspan x="76.85" y="19.2" letter-spacing="-.01em">t</tspan><tspan x="81.92" y="19.2">o use </tspan><tspan x="124.52" y="19.2" letter-spacing="-.01em">y</tspan><tspan x="131.97" y="19.2">our website, in addi</tspan><tspan x="269.01" y="19.2">-</tspan><tspan x="-1.96" y="38.4">tion </tspan><tspan x="29.06" y="38.4" letter-spacing="-.01em">t</tspan><tspan x="34.13" y="38.4">o f</tspan><tspan x="52.77" y="38.4" letter-spacing="-.01em">r</tspan><tspan x="58.04" y="38.4">ee suppo</tspan><tspan x="123.1" y="38.4" letter-spacing=".02em">r</tspan><tspan x="128.9" y="38.4">t for the first 30 d</tspan><tspan x="251.86" y="38.4" letter-spacing="-.01em">a</tspan><tspan x="260.45" y="38.4">ys</tspan>
    </text>
  </g>
  <g id="AnalyticsGroup">
    <ellipse cx="1103.5" cy="504" fill="#e6efec" rx="203.5" ry="162" transform="rotate(-3.72 43.852 1440.374)"/>
    <g fill="none" stroke="#313335" stroke-miterlimit="10">
      <path d="M1087.33 447.83c19.14 0 28.83 10.6 33.66 22.59a55.77 55.77 0 011.86 5.46 83 83 0 012.49 28.05h-74.66s-8.07-55.82 36.32-56.1" transform="translate(-63 -66.73)"/>
      <path d="M1101.76 417.19h4.36a12 12 0 0112 12v6.64a12 12 0 01-12 12h-36.51a12 12 0 01-12-12v-6.64a12 12 0 0112-12h32.15z" transform="translate(-63 -66.73)"/>
      <path d="M1008.61 350.46l-3.02-14.86.89-.15 3.07 15.01"/>
      <path d="M1067 400.56a1.7 1.7 0 111.69 1.69 1.7 1.7 0 01-1.69-1.69z" transform="translate(-63 -66.73)"/>
      <path d="M1038.76 350.46l3.62-17.82-1.07-.18-3.68 18"/>
      <path d="M1107.27 397.24a2 2 0 10-2 2 2 2 0 002-2zM1121 470.42s26.26-10.57 24.71-29.78v0M1122.85 475.88s28.47-9.56 28.47-35.26" transform="translate(-63 -66.73)"/>
      <path d="M1145.7 440.64c-9.4-1.82-7.53-12.87-7.53-12.87h4.58s-1.46 9.35 5.77 8.8 6-8.8 6-8.8h4.48s1.36 11-7.63 12.84a13.69 13.69 0 01-3 .28 15.06 15.06 0 01-2.67-.25z" transform="translate(-63 -66.73)"/>
      <rect width="54.49" height="23.92" x="997.74" y="353.37" rx="10.67" ry="10.67"/>
      <path stroke-width="5" d="M1005.59 361.04a5.06 5.06 0 015-4.43 4.38 4.38 0 014.82 4.43M1027.77 361.04a5.07 5.07 0 015-4.43c4.94 0 4.82 4.43 4.82 4.43M1008.52 369.93s1.79 4.66 13.23 4.66 14.46-4.66 14.46-4.66"/>
    </g>
    <text fill="#313335" font-family="Roboto-Regular, Roboto" font-size="22" transform="translate(948.76 471.77)">
      Setup for<tspan x="89.44" y="0" fill="#575a5e"> </tspan><tspan x="94.89" y="0" fill="#ff4242">Analytics</tspan>
    </text>
    <text fill="#313335" font-family="Roboto-Regular, Roboto" font-size="16" transform="translate(903.5 494.27)">
      <tspan letter-spacing="-.01em">K</tspan><tspan x="9.85" y="0">nowledge brings powe</tspan><tspan x="169.52" y="0" letter-spacing="-.06em">r</tspan><tspan x="173.97" y="0">, and analytics </tspan><tspan x="-4.51" y="19.2">can help unlock new heights. </tspan><tspan x="212.39" y="19.2" letter-spacing="-.02em">W</tspan><tspan x="226.34" y="19.2" letter-spacing="-.04em">e</tspan><tspan x="234.2" y="19.2" letter-spacing=".02em">’</tspan><tspan x="237.64" y="19.2">ll help </tspan><tspan x="5.41" y="38.4">get </tspan><tspan x="32.05" y="38.4" letter-spacing="-.01em">y</tspan><tspan x="39.51" y="38.4">ou sta</tspan><tspan x="83.59" y="38.4" letter-spacing=".02em">r</tspan><tspan x="89.4" y="38.4">ted with Google Analytics</tspan>
    </text>
  </g>
  <g id="IntegrationGroup">
    <ellipse cx="867" cy="791" fill="#e6efec" rx="162" ry="180" transform="rotate(-51.91 766.91 822.337)"/>
    <g fill="#666">
      <path d="M934.39 762.4v1.33s-17.52 9.81-22.25-7.88c-5.27-19.67-25.93-9.77-26.07-9.46a1.44 1.44 0 00-.17-.49 1.42 1.42 0 00-.41-.51s21.6-10.16 27.48 9 21.42 8.01 21.42 8.01zM872.07 721.81c.12 1.07-.44 1.15-.44 1.15-11.71 2.41-20 .28-20 .28l.16-4.5.08.1c1.79 2.32 7.19 2.11 11.31 2.21 3.54.09 7.08-.21 8.86-1.36a10.57 10.57 0 00.03 2.12zM872 727.31c.24.51-.08.79-.71 1.26a.38.38 0 00-.16.43c-8.56 3.25-18.71.49-18.71.49-.25-.21-.56-.41-.76-.6-.48-.43.71-1.18.71-1.18s.76-.76-.2-1.19c0 0 11.3 2.33 19-.44-.49.36.58.71.83 1.23z" transform="translate(-63 -66.73)"/>
      <path d="M871.76 729.78a.46.46 0 01.17.44 1.48 1.48 0 01-.61 1.08l-.34.57h-.07c-8.83 3.22-18.23.58-18.42.51-.06-.2-.19-.33-.6-.56-.64-.36.08-1 .71-1.47.37-.25.15-.54-.19-.82 0 0 10.15 2.76 18.71-.49a1.79 1.79 0 00.64.74zM871.75 724c.87.43-.2 1.78-.63 2.13-7.66 2.77-19 .44-19 .44-.95-.44-.35-1-.35-1s1.62-1.15.71-1.62-.87-.67-.87-.67 8.27 2.13 20-.28a.53.53 0 00.14 1z" transform="translate(-63 -66.73)"/>
      <path d="M870.91 731.83h.07c-1.08 1.81-4.42 7.3-5.49 7.6-.28.07-5.65.42-6.62-.24-2.19-1.5-6.31-6.51-6.31-6.51 0-.16 0-.28-.07-.38.19.11 9.59 2.75 18.42-.47zM841.16 766.28a1.47 1.47 0 00.44.66c-.25.14-18.52 10-23.34-8-5.39-20.16-27.15-9.62-27.29-9.3v-1.42s22.13-10.41 28.16 9.21 21.93 8.22 21.93 8.22a1.42 1.42 0 00.1.63z" transform="translate(-63 -66.73)"/>
    </g>
    <g fill="none" stroke="#333" stroke-miterlimit="10">
      <path d="M841.06 765.7s-15.9 11.4-21.93-8.22-28.13-9.21-28.13-9.21v1.42c.14-.32 21.9-10.86 27.29 9.3 4.82 18 23.09 8.09 23.34 8h0" transform="translate(-63 -66.73)"/>
      <path d="M843.13 764.05s-2 .36-2.07 1.65a1.42 1.42 0 00.1.58 1.47 1.47 0 00.44.66c.91.75 2.52 0 2.52 0M859.52 766.35l-10.63 4.09a2.75 2.75 0 01-3.55-1.57l-.83-2.12-1.08-2.82-1.51-3.88a3 3 0 011.74-3.91l10.36-4c-1-2.13.28-2.87 1.26-.48s4.5 11.16 5.49 14.19c.68 1.87-.33 2.36-1.25.5z" transform="translate(-63 -66.73)"/>
      <path d="M796.52 699.62l-5.5-14.2M789.97 689.35l3.18 8.21M788.99 691.16l2.16 5.57M788.25 693.18l.99 2.55"/>
      <path d="M886.07 746.39c.14-.31 20.8-10.21 26.07 9.46 4.73 17.69 22.25 7.88 22.25 7.88v-1.33s-15.52 11.14-21.41-8-27.48-9-27.48-9" transform="translate(-63 -66.73)"/>
      <path d="M884.11 748.49s2.14-.75 2-2.1a1.44 1.44 0 00-.17-.49 1.42 1.42 0 00-.41-.51c-1-.77-2.75.38-2.75.38M864.38 747.76l12.91-5.76 6.23 13.89-12.91 5.75c1.14 2.08-.12 2.89-1.22.55-.34-.71-.91-1.93-1.58-3.37q-.22-.51-.48-1.05c-.62-1.36-1.3-2.85-1.94-4.27l-.47-1c-.75-1.69-1.4-3.2-1.77-4.15-.77-1.86.21-2.35 1.23-.59z" transform="translate(-63 -66.73)"/>
      <path d="M801.38 681.04l2.62 5.84M804 686.88l1.44 3.21M805.44 690.09l2.17 4.83"/>
      <path d="M864.92 752.46l-4.66 2.09a.46.46 0 00-.26.58l.09.25a.46.46 0 00.63.27l4.67-2.14M867.33 757.78l-4.5 2.07a.44.44 0 00-.21.59l.09.18a.5.5 0 00.66.24l4.44-2" transform="translate(-63 -66.73)"/>
      <path d="M804 686.88l6.24-2.89 1.47 3.23-6.27 2.87"/>
      <path d="M877.29 742l.5-.21a.28.28 0 01.35.14l.92 2 3.87 8.52 1.27 2.81a.29.29 0 01-.14.38l-.54.23" transform="translate(-63 -66.73)"/>
      <path d="M879.06 744l1.46-.57a1.06 1.06 0 011.38.56l.82 1.83 1.25 2.77.84 1.89a1.11 1.11 0 01-.57 1.48l-1.31.56M851.81 718.74a10.12 10.12 0 01-1.51-5.81 20.19 20.19 0 00-2.14-8c-1.94-3.36-5-7.18-5.16-15.19s6-13.39 6-13.39 6.13-5.9 14.17-5.27a19.84 19.84 0 0118.72 14.76s2.43 10.12-4 16.87c0 0-2.43 3.9-2.65 5.48s-.74 5.38-.74 5.38-.39 3.79-1.73 5.48a2.82 2.82 0 01-.72.64c-1.78 1.15-5.32 1.45-8.86 1.36-4.12-.1-9.52.11-11.31-2.21z" transform="translate(-63 -66.73)"/>
      <path d="M852.49 732.34c0 .1 0 .22.07.38 0 0 4.12 5 6.31 6.51 1 .66 6.34.31 6.62.24 1.07-.3 4.41-5.79 5.49-7.6h0l.34-.57a1.48 1.48 0 00.61-1.08.46.46 0 00-.17-.44 1.79 1.79 0 01-.64-.78.38.38 0 01.16-.43c.63-.47 1-.75.71-1.26s-1.31-.87-.87-1.23 1.5-1.7.63-2.13a.53.53 0 01-.12-1s.56-.08.44-1.15a10.57 10.57 0 010-2.12h0" transform="translate(-63 -66.73)"/>
      <path d="M851.81 718.74l-.16 4.5s0 .2.87.67-.71 1.62-.71 1.62-.6.55.35 1 .2 1.19.2 1.19-1.19.75-.71 1.18c.2.19.51.39.76.6s.56.57.19.82c-.63.44-1.35 1.11-.71 1.47.41.23.54.36.6.56M851.65 723.24s8.27 2.13 20-.28M852.16 726.52s11.3 2.33 19-.44M852.41 729.49s10.15 2.76 18.71-.49" transform="translate(-63 -66.73)"/>
      <path d="M852.49 732.34h0c.19.07 9.59 2.71 18.42-.51M852.68 680.28c-.88 1.67-.95 3.37-.14 3.8s2.18-.59 3.07-2.27.94-3.37.13-3.8-2.18.59-3.06 2.27zM848.8 684.11c-.43 1-1 1.65-1.39 1.5s-.27-1.06.16-2 1-1.66 1.4-1.51.26 1.03-.17 2.01z" transform="translate(-63 -66.73)"/>
    </g>
    <text fill="#ff4242" font-family="Roboto-Regular, Roboto" font-size="22" transform="translate(705.74 748.77)">
      Integ<tspan x="49.31" y="0" letter-spacing="-.02em">r</tspan><tspan x="56.32" y="0">ation</tspan><tspan x="105.5" y="0" fill="#575a5e"> </tspan><tspan x="110.95" y="0" fill="#313335">Suppo</tspan><tspan x="173.36" y="0" fill="#313335" letter-spacing=".02em">r</tspan><tspan x="181.34" y="0" fill="#313335">t</tspan>
    </text>
    <text fill="#313335" font-family="Roboto-Regular, Roboto" font-size="16" transform="translate(663.88 771.27)">
      CMS<tspan x="33.88" y="0" letter-spacing="-.05em">’</tspan><tspan x="36.2" y="0">s, CRM</tspan><tspan x="85.78" y="0" letter-spacing="-.05em">’</tspan><tspan x="88.1" y="0">s, Email API</tspan><tspan x="171.88" y="0" letter-spacing="-.05em">’</tspan><tspan x="174.2" y="0">s, databases - </tspan><tspan x="9.47" y="19.2" letter-spacing="-.01em">y</tspan><tspan x="16.93" y="19.2">ou name it, w</tspan><tspan x="111.06" y="19.2" letter-spacing="-.04em">e</tspan><tspan x="118.91" y="19.2" letter-spacing=".02em">’</tspan><tspan x="122.36" y="19.2">ll help. </tspan><tspan x="176.36" y="19.2" letter-spacing="-.02em">W</tspan><tspan x="190.32" y="19.2">e can help </tspan><tspan x="2.77" y="38.4">integ</tspan><tspan x="38.16" y="38.4" letter-spacing="-.02em">r</tspan><tspan x="43.26" y="38.4">ate all </tspan><tspan x="90.05" y="38.4" letter-spacing="-.01em">y</tspan><tspan x="97.51" y="38.4">our 3</tspan><tspan x="133.81" y="38.4" letter-spacing="-.01em">r</tspan><tspan x="139.08" y="38.4">d pa</tspan><tspan x="169.74" y="38.4" letter-spacing=".02em">r</tspan><tspan x="175.55" y="38.4">ty se</tspan><tspan x="209.03" y="38.4" letter-spacing=".01em">r</tspan><tspan x="214.59" y="38.4">vices </tspan><tspan x="255.28" y="38.4" letter-spacing="-.01em">t</tspan><tspan x="260.35" y="38.4">o </tspan><tspan x="43.01" y="57.6" letter-spacing="-.01em">k</tspan><tspan x="50.96" y="57.6">eep </tspan><tspan x="80.86" y="57.6" letter-spacing="-.01em">y</tspan><tspan x="88.31" y="57.6">our apps connected</tspan>
    </text>
  </g>
  <g id="SEOGroup">
    <ellipse cx="477.5" cy="779" fill="#e6efec" rx="193.5" ry="162" transform="rotate(-24.41 291.712 891.237)"/>
    <path fill="#333" d="M537.68 769.74a3.26 3.26 0 01.86 2.15 3.94 3.94 0 01-.86 2.32s-.45 1.78-3.89 3.86a5.28 5.28 0 01-2.72.93 2.17 2.17 0 01-1.9-.93S480.8 730.9 481 729.4a1.47 1.47 0 011.49-1.43 1.08 1.08 0 001.36 0 51.26 51.26 0 004.16-4.09 1.26 1.26 0 00-.41-1.45c1.65-1.64 2.51-.32 2.51-.32s45.63 45.4 47.57 47.63z" transform="translate(-63 -66.73)"/>
    <path fill="#b3b3b3" d="M487.55 722.43a1.26 1.26 0 01.41 1.45 51.26 51.26 0 01-4.16 4.12 1.08 1.08 0 01-1.36 0l-8.87-9.38a48.53 48.53 0 005.1-5.14l.32.27z" transform="translate(-63 -66.73)"/>
    <path fill="#999" d="M490.06 682.6a47.33 47.33 0 01-11.39 30.85 48.53 48.53 0 01-5.1 5.14 47.6 47.6 0 1116.49-36zm-2.1 0a45.51 45.51 0 10-45.51 45.4A45.44 45.44 0 00488 682.6z" transform="translate(-63 -66.73)"/>
    <g fill="none" stroke="#313335" stroke-miterlimit="10">
      <path d="M442.28 635a47.59 47.59 0 0136.39 78.48 48.53 48.53 0 01-5.1 5.14A47.69 47.69 0 11442.28 635z" transform="translate(-63 -66.73)"/>
      <path d="M488 682.6a45.51 45.51 0 11-45.51-45.38A45.43 45.43 0 01488 682.6z" transform="translate(-63 -66.73)"/>
      <path d="M407.35 693.84c0 2.21-.64 4-1.42 4s-1.41-1.8-1.41-4 .63-4 1.41-4 1.42 1.78 1.42 4zM410 703.51c0 1-.47 1.78-1.05 1.78s-1-.8-1-1.78.47-1.79 1-1.79 1.05.8 1.05 1.79zM473.57 718.59l8.87 9.38a1.47 1.47 0 00-1.44 1.43c-.15 1.5 48.22 48.67 48.22 48.67a2.17 2.17 0 001.9.93 5.28 5.28 0 002.72-.93c3.44-2.08 3.89-3.86 3.89-3.86a3.94 3.94 0 00.86-2.32 3.26 3.26 0 00-.86-2.15c-1.94-2.23-47.62-47.63-47.62-47.63s-.86-1.32-2.51.32l-8.6-8.71" transform="translate(-63 -66.73)"/>
      <path d="M482.44 728a1.08 1.08 0 001.36 0 51.26 51.26 0 004.16-4.09 1.26 1.26 0 00-.41-1.45" transform="translate(-63 -66.73)"/>
    </g>
    <text fill="#ff4242" font-family="Roboto-Regular, Roboto" font-size="22" transform="translate(350.94 746.77)">
      SEO<tspan x="40.68" y="0" fill="#575a5e"> </tspan><tspan x="46.13" y="0" fill="#313335">Ready</tspan>
    </text>
    <text fill="#313335" font-family="Roboto-Regular, Roboto" font-size="16" transform="translate(264.24 769.27)">
      SEO (sea<tspan x="64.45" y="0" letter-spacing="-.01em">r</tspan><tspan x="69.71" y="0">ch enging optimization) helps </tspan><tspan x="4.84" y="19.2">new cus</tspan><tspan x="63.57" y="19.2" letter-spacing="-.01em">t</tspan><tspan x="68.64" y="19.2">omers find </tspan><tspan x="149.14" y="19.2" letter-spacing="-.01em">y</tspan><tspan x="156.59" y="19.2">ou - our sites a</tspan><tspan x="260.95" y="19.2" letter-spacing="-.01em">r</tspan><tspan x="266.21" y="19.2">e </tspan><tspan x="3.15" y="38.4" letter-spacing="-.01em">r</tspan><tspan x="8.42" y="38.4">eady </tspan><tspan x="46.15" y="38.4" letter-spacing="-.01em">t</tspan><tspan x="51.22" y="38.4">o go for </tspan><tspan x="110.43" y="38.4" letter-spacing="-.01em">y</tspan><tspan x="117.88" y="38.4">ou or an SEO expe</tspan><tspan x="247.18" y="38.4" letter-spacing=".02em">r</tspan><tspan x="252.99" y="38.4">t </tspan><tspan x="262.18" y="38.4" letter-spacing="-.01em">t</tspan><tspan x="267.25" y="38.4">o </tspan><tspan x="60.41" y="57.6">ta</tspan><tspan x="74.34" y="57.6" letter-spacing="-.01em">k</tspan><tspan x="82.29" y="57.6">e it </tspan><tspan x="107.8" y="57.6" letter-spacing="-.01em">t</tspan><tspan x="112.87" y="57.6">o the next l</tspan><tspan x="190.73" y="57.6" letter-spacing="-.01em">ev</tspan><tspan x="206.76" y="57.6">el</tspan>
    </text>
  </g>
  <g id="ScalabilityGroup">
    <ellipse cx="193.5" cy="437.27" fill="#e6efec" rx="193.5" ry="162"/>
    <g fill="none" stroke="#333" stroke-miterlimit="10">
      <path d="M230.46 412.94l20.25-33.21a1.09 1.09 0 011.89 0l20.25 33.21" transform="translate(-63 -66.73)"/>
      <path d="M191.8 346.21h18.05l16.09 26.4M151.36 372.61l16.1-26.4h24.34v26.4M132.75 403.13l18.61-30.52h22.7M215.44 372.61h10.5l18.62 30.52h-.48"/>
      <path d="M278.44 469.86h28.64a.88.88 0 01.74.44l15.67 25.7a.87.87 0 01.12.34.85.85 0 010 .42.9.9 0 01-.86.75h-58a.93.93 0 01-.89-1M263.89 470.84a.94.94 0 01.89-1" transform="translate(-63 -66.73)"/>
      <path d="M159.36 403.13h14.7M200.89 403.13v27.64h-41.53"/>
      <path d="M222.36 469.86v27.64H180.8a1 1 0 01-1-.9 1 1 0 010-.42 1.07 1.07 0 01.15-.41l15.8-25.91z" transform="translate(-63 -66.73)"/>
      <path d="M215.44 372.61v30.52H174.06v-30.52H215.44z"/>
    </g>
    <text fill="#ff4242" font-family="Roboto-Regular, Roboto" font-size="22" transform="translate(100.37 471.77)">
      Scalability<tspan x="99.79" y="0" fill="#575a5e"> </tspan><tspan x="105.24" y="0" fill="#313335">in Mind</tspan>
    </text>
    <text fill="#313335" font-family="Roboto-Regular, Roboto" font-size="16" transform="translate(56.03 494.27)">
      As <tspan x="22.65" y="0" letter-spacing="-.01em">y</tspan><tspan x="30.1" y="0">our business g</tspan><tspan x="134.09" y="0" letter-spacing="-.01em">r</tspan><tspan x="139.35" y="0">ows, </tspan><tspan x="175.85" y="0" letter-spacing="-.01em">y</tspan><tspan x="183.3" y="0">our website </tspan><tspan x="-2.55" y="19.2">might need </tspan><tspan x="81.09" y="19.2" letter-spacing="-.01em">t</tspan><tspan x="86.16" y="19.2">o as well - and w</tspan><tspan x="203.3" y="19.2" letter-spacing="-.04em">e</tspan><tspan x="211.16" y="19.2" letter-spacing=".02em">’</tspan><tspan x="214.6" y="19.2">ll futu</tspan><tspan x="254.75" y="19.2" letter-spacing="-.01em">r</tspan><tspan x="260.02" y="19.2">e </tspan><tspan x="33.3" y="38.4">p</tspan><tspan x="42.27" y="38.4" letter-spacing="-.01em">r</tspan><tspan x="47.53" y="38.4">oof </tspan><tspan x="75.3" y="38.4" letter-spacing="-.01em">y</tspan><tspan x="82.75" y="38.4">our website </tspan><tspan x="169.34" y="38.4" letter-spacing="-.01em">t</tspan><tspan x="174.41" y="38.4">o match</tspan>
    </text>
  </g>
</svg>
