<svg xmlns="http://www.w3.org/2000/svg" viewBox="0 0 285.29 229.98"><title>GOATLogo_white</title><g id="Goat"><path d="M211,128.5H396c3.22,0,3.22-5,0-5H211c-3.22,0-3.22,5,0,5Z" transform="translate(-194.34 -60.49)" fill="#fff"/><path d="M212.77,124.23l-8-8c-2.28-2.28-5.82,1.26-3.54,3.54l8,8c2.28,2.28,5.82-1.26,3.54-3.54Z" transform="translate(-194.34 -60.49)" fill="#fff"/><path d="M194.84,123.26l10,13c1.94,2.52,6.28,0,4.32-2.52l-10-13c-1.94-2.52-6.28,0-4.32,2.52Z" transform="translate(-194.34 -60.49)" fill="#fff"/><path d="M204.59,134.34l-9,36c-.78,3.12,4,4.45,4.82,1.32l9-36c.78-3.12-4-4.45-4.82-1.32Z" transform="translate(-194.34 -60.49)" fill="#fff"/><path d="M195.84,172.26l18,36c1.44,2.88,5.76.35,4.32-2.52l-18-36c-1.44-2.88-5.76-.35-4.32,2.52Z" transform="translate(-194.34 -60.49)" fill="#fff"/><path d="M213.59,207.66l11,81c.43,3.18,5.25,1.83,4.82-1.32l-11-81c-.43-3.18-5.25-1.83-4.82,1.32Z" transform="translate(-194.34 -60.49)" fill="#fff"/><path d="M236.5,288l8.7-78.32c.36-3.19-4.65-3.17-5,0L231.5,288c-.35,3.19,4.65,3.17,5,0Z" transform="translate(-194.34 -60.49)" fill="#fff"/><path d="M243,218.5l110.45,3.94,15.77.56c3.22.11,3.22-4.89,0-5l-110.44-3.94L243,213.5c-3.22-.11-3.21,4.89,0,5Z" transform="translate(-194.34 -60.49)" fill="#fff"/><path d="M369.89,222.91l35.77-13.5c3-1.12,1.69-6-1.32-4.82l-35.78,13.5c-3,1.12-1.69,6,1.33,4.82Z" transform="translate(-194.34 -60.49)" fill="#fff"/><path d="M402.5,207l9,81c.35,3.16,5.36,3.2,5,0l-9-81c-.35-3.16-5.36-3.2-5,0Z" transform="translate(-194.34 -60.49)" fill="#fff"/><path d="M425.41,288.66l15.77-110.4,2.23-15.6c.45-3.14-4.37-4.5-4.82-1.32l-15.77,110.4-2.23,15.6c-.45,3.14,4.37,4.5,4.82,1.32Z" transform="translate(-194.34 -60.49)" fill="#fff"/><path d="M443.12,154.51l8.41-35.7c.74-3.13-4.08-4.47-4.82-1.33l-8.41,35.71c-.74,3.12,4.08,4.46,4.82,1.32Z" transform="translate(-194.34 -60.49)" fill="#fff"/><path d="M443.12,153.19l-7.71-30.85c-.78-3.12-5.6-1.8-4.82,1.32l7.71,30.85c.78,3.12,5.6,1.8,4.82-1.32Z" transform="translate(-194.34 -60.49)" fill="#fff"/><path d="M398.16,127.26l18-36c1.43-2.87-2.88-5.4-4.32-2.52l-18,36c-1.43,2.87,2.88,5.4,4.32,2.52Z" transform="translate(-194.34 -60.49)" fill="#fff"/><path d="M415.77,88.23l-9-9c-2.28-2.28-5.82,1.26-3.54,3.54l9,9c2.28,2.28,5.82-1.26,3.54-3.54Z" transform="translate(-194.34 -60.49)" fill="#fff"/><path d="M404.34,78.59l-27,9c-3,1-1.74,5.84,1.32,4.82l27-9c3-1,1.74-5.84-1.32-4.82Z" transform="translate(-194.34 -60.49)" fill="#fff"/><path d="M379.77,91.77l27-27c2.28-2.28-1.26-5.82-3.54-3.54l-27,27c-2.28,2.28,1.26,5.82,3.54,3.54Z" transform="translate(-194.34 -60.49)" fill="#fff"/><path d="M403.74,65.16l63,36c2.8,1.6,5.32-2.72,2.52-4.32l-63-36c-2.8-1.6-5.32,2.72-2.52,4.32Z" transform="translate(-194.34 -60.49)" fill="#fff"/><path d="M465.84,100.26l9,18c1.44,2.88,5.76.35,4.32-2.52l-9-18c-1.44-2.88-5.76-.35-4.32,2.52Z" transform="translate(-194.34 -60.49)" fill="#fff"/><path d="M474.84,115.74l-12.22,16.55c-1.91,2.59,2.42,5.09,4.32,2.53l12.22-16.56c1.91-2.59-2.43-5.09-4.32-2.52Z" transform="translate(-194.34 -60.49)" fill="#fff"/><path d="M466.55,131.79l-7.39-7.56c-2.26-2.3-5.79,1.23-3.54,3.54l7.39,7.55c2.25,2.31,5.79-1.23,3.54-3.53Z" transform="translate(-194.34 -60.49)" fill="#fff"/></g><g id="CodeIcon"><path d="M298.77,196.23l-27-27v3.54l27-27c2.28-2.28-1.26-5.82-3.54-3.54l-27,27a2.55,2.55,0,0,0,0,3.54l27,27c2.28,2.28,5.82-1.26,3.54-3.54Z" transform="translate(-194.34 -60.49)" fill="#fff"/><path d="M311.94,203.44l10.8-64.35c.53-3.15-4.29-4.5-4.82-1.33l-10.8,64.35c-.53,3.15,4.29,4.5,4.82,1.33Z" transform="translate(-194.34 -60.49)" fill="#fff"/><path d="M334.77,199.77l27-27a2.55,2.55,0,0,0,0-3.54l-27-27c-2.28-2.28-5.82,1.26-3.54,3.54l27,27v-3.54l-27,27c-2.28,2.28,1.26,5.82,3.54,3.54Z" transform="translate(-194.34 -60.49)" fill="#fff"/></g></svg>