<svg class='w-3/4 2xl:w-2/3 absolute m-auto bottom-0 right-0 transform translate-x-20       2xl:translate-x-0' 
	xmlns="http://www.w3.org/2000/svg" viewBox="0 0 474.16 368.03"
>
  <g id="GoatGroup">
    <path id="Goat" fill="#d1e3dd" d="M305.4 115.77l-4.4 2.62c.58 1 1.1 2.07 1.59 3.14l2.47 3.36c.13.4 2.55 8.83 4.89 12.66a39.89 39.89 0 003.5 4.58c3.69 4.39 9.24 10.75 12.93 15.16-.85 1.33-1.7 2.65-2.57 4a9.39 9.39 0 00-3.68-3.26 82 82 0 01-15.69-12.65 295.49 295.49 0 01-31.83 30.15l-.28.23-3.09 2.58c5.14 6.6 11.31 13.14 15.68 19.53l-1.05 1-.46.44c-4.31-4.08-10.5-9.64-14.81-13.71a9.29 9.29 0 00-2.24-1.72 8.68 8.68 0 00-3.62-.64 84.21 84.21 0 00-9.53.3 3.1 3.1 0 01-2.35-.4 3 3 0 01-.76-1.36l-3.42-9.89a14.46 14.46 0 00-2.48-5 4.88 4.88 0 00-5-1.71h-.13l1.65-4.88a4.61 4.61 0 003.7 1.56c8.17-12 20.79-19.85 32.28-28.86 2.65-2.08 5.24-4.23 7.7-6.5a3.78 3.78 0 001.2-1.61 3.89 3.89 0 000-1.73q-1.16-7.16-2.3-14.31a2 2 0 00-1.89-2 38.66 38.66 0 00-8.09-.92q-1.35 9.87-2.69 19.73a65.74 65.74 0 01-.51-25.54 3.16 3.16 0 011-2.14 3.24 3.24 0 012.34-.23q17.82 2.85 35.4 7a3.08 3.08 0 011.11.44 2.6 2.6 0 01.78 1.5 11.06 11.06 0 01-2.43 9.56l-2.9-.47z" transform="translate(-103.13 -35.21)"/>
  </g>
  <g id="MountainGroup">
    <path id="MountainTop" fill="#f2f7f6" d="M465.6 203.48c-3.9 1.68-8 3.41-11.85 5.1-5.22 2.25-10.8 4.56-16.42 3.68-6.75-1.07-12.14-6.53-18.86-7.77-7.5-1.39-15.07 2.88-20.09 8.63s-8.12 12.87-11.87 19.52c-1.44 2.55-3.15 5.2-5.86 6.31-2.35 1-5 .57-7.46-.15-6.34-1.9-11.83-6-16.57-10.56-3.06-3-6.67-6.51-10.87-5.74-4.75.87-7 6.76-11.61 8.32-4.38 1.49-9-1.55-12.17-4.9a45.8 45.8 0 01-9.8-15.63c-1.11-3-1.95-6.18-3.89-8.71a23.65 23.65 0 00-4.95-4.46c-3.76-2.79-5.38-3.65-9.14-6.45l-.18-.24c5.85-4.33 11.91-8.39 17.13-13.44a89.4 89.4 0 0012.13-15.3c.87-1.31 1.72-2.63 2.57-4 2.55-4 5.08-8 7.84-11.79 7-9.76 16.93-18.63 28.7-20.32q1.14-.17 2.31-.24c16.5-1 30 12.32 45.32 18.47 8 3.19 16.82 4.55 23.92 9.4S445.39 165.6 449.5 173q8.39 15.06 16.1 30.48z" transform="translate(-103.13 -35.21)"/>
    <path id="MountainBottom" fill="#d1e3dd" d="M577.29 403.24H103.13c9.38-22.81 19.38-46.05 35.38-64.82 11-12.89 24.63-23.22 38.14-33.44 28.18-21.32 56.69-43 78.6-70.67 9.1-11.52 17.09-24.1 27.52-34.32l.45-.45q2-1.91 4-3.68c2.14-1.82 4.37-3.53 6.63-5.2l.18.24c3.76 2.8 5.38 3.66 9.14 6.45a23.65 23.65 0 014.95 4.46c1.94 2.53 2.78 5.71 3.89 8.71a45.8 45.8 0 009.8 15.63c3.19 3.35 7.79 6.39 12.17 4.9 4.58-1.56 6.86-7.45 11.61-8.32 4.2-.77 7.81 2.76 10.87 5.74 4.74 4.61 10.23 8.66 16.57 10.56 2.43.72 5.11 1.11 7.46.15 2.71-1.11 4.42-3.76 5.86-6.31 3.75-6.65 6.85-13.77 11.87-19.52s12.59-10 20.09-8.63c6.72 1.24 12.11 6.7 18.86 7.77 5.62.88 11.2-1.43 16.42-3.68 3.9-1.69 8-3.42 11.85-5.1q15.06 30 27.56 61.2c3.35 8.36 6.63 16.91 12.09 24.07 4.76 6.23 11 11.18 16.2 17a67.74 67.74 0 0114.41 26.06c2.69 9.27 3.41 19.16 7.51 27.9 3 6.48 7.78 12 12.46 17.4 8.54 9.84 13.14 16.1 21.62 25.9z" transform="translate(-103.13 -35.21)"/>
  </g>
  <g id="FlagGroup">
    <path id="Flag0" fill="#ff4242" d="M426.28 44.21s-11 7-20 8c-4.28.47-11 2-16.12 6.18-3.33 2.73-10.88.82-16.18 5.91-2.05 2-10.7 3.91-10.7 3.91l-4-18c-2-9-4-15-4-15s10.65 2.52 14.2 2c6.8-1 13.3 0 20.8 3 5.82 2.32 12.46-.92 18.13 2.48 5.87 3.52 17.87 1.52 17.87 1.52z" transform="translate(-103.13 -35.21)"/>
    <path id="FlagPole" fill="none" stroke="#d1e3dd" stroke-linecap="round" stroke-linejoin="round" stroke-width=".5" d="M262.15 90.11c0-30.56 0-41.8-2-57.11"/>
    <path id="Flag1" fill="#ff4242" d="M426.28 44.21s-2 3-11 4c-4.28.47-12.88 1.81-18 6-3.33 2.72-10.7 1.91-16 7-2 2-18 7-18 7l-4-18c-2-9-4-15-4-15s14.45 2.52 18 2a46.93 46.93 0 0123 3c5.82 2.32 13 2 19 3a63.48 63.48 0 0011 1" transform="translate(-103.13 -35.21)"/>
    <path id="Flag2" fill="#ff4242" d="M426.28 45.21s-7 0-10 3c-2.83 2.83-12 3-19 6-4 1.69-10 3-16 7-2.37 1.58-18 7-18 7l-4-18c-2-9-4-15-4-15s14.44 1.55 18 2c8 1 16 1 23 3 6 1.72 13 3.67 19 3 9-1 11 2 11 2" transform="translate(-103.13 -35.21)"/>
    <path id="Flag3" fill="#ff4242" d="M426.28 44.21s-11.21 5.8-20 8c-4 1-10.52 2.66-16.12 6.18-2.88 1.82-10.88 3.82-16.88 6.82-2.55 1.27-10 3-10 3l-4-18c-2-9-4-15-4-15s7 0 10 1c6.64 2.21 14 2 22 4 6.08 1.52 14 0 20 2 6.49 2.16 19 2 19 2" transform="translate(-103.13 -35.21)"/>
  </g>
</svg>
