<svg xmlns="http://www.w3.org/2000/svg" id="Cloud2Group" viewBox="0 0 185.8 127.16">
  <path fill="#f2f7f6" d="M13.7 95.69C1.63 99.78-12 102.65-23.49 97c-10.63-5.2-17.07-17.47-16.17-29.27S-31 45.15-20.52 39.67 2.82 33.89 13.92 38A27.25 27.25 0 0111 12.8C14.25 4.62 21.28-1.42 28.55-6.37 38.92-13.43 50.43-19 62.72-21.54s25.41-1.81 36.91 3.18a34.8 34.8 0 0113.46 9.7c5.41 6.73 7.12 15.92 6.09 24.5s-4.55 16.67-8.68 24.26a29.11 29.11 0 0135.55 27.62 45.7 45.7 0 01-2.52 14.71c-1.61 5.15-3.78 10.4-7.92 13.85a26.08 26.08 0 01-8.65 4.38c-18.38 6-38.4 3.27-57.44-.26s-36.75-8-55.82-4.71" transform="translate(39.74 22.95)"/>
</svg>
