<svg xmlns="http://www.w3.org/2000/svg" id="Cloud1Group" viewBox="0 0 156.53 106.75">
  <path fill="#f2f7f6" d="M87.36 250.17c-8.18 2.69-17.14 3.61-25.39 1.16s-15.63-8.62-18.21-16.83c-3.59-11.45 3.5-24.77 14.57-29.44s24.65-1.17 33.19 7.27c-4.54-3-9-6.25-12.35-10.48s-5.73-9.49-5.58-14.91c.22-7.82 5.37-14.53 10.43-20.49 4.32-5.06 8.86-10.12 14.66-13.38 11.16-6.25 25.55-4.67 36.67 1.66a27.5 27.5 0 019.23 7.9c3 4.31 4.07 9.69 4.13 14.94a44 44 0 01-6.91 24.16c.46-5.36 3.35-10.16 6.22-14.72 2-3.11 4-6.27 6.82-8.62 6.9-5.74 17.84-5.29 24.89.25s10.13 15.32 8.56 24.15c-.94 5.22-3.81 10.59-8.81 12.36 7.54.27 15.32 4.16 18.45 11 3.8 8.31-.42 18.73-7.86 24s-17.2 6.33-26.28 5.24-17.8-4.06-26.72-6.05c-19.79-4.42-30.15-4.57-49.71.76" transform="translate(-42.82 -149.11)"/>
</svg>
