<svg xmlns="http://www.w3.org/2000/svg" id="Layer_1" data-name="Layer 1" viewBox="0 0 181 181">
  <path fill="none" stroke="#333" stroke-miterlimit="10" d="M.5.5h180v180H.5z"/>
  <path fill="#666" d="M395.56 303v1.5s-19.73 11.06-25.06-8.88c-5.93-22.19-29.19-11-29.34-10.67a1.65 1.65 0 00-.18-.56 1.69 1.69 0 00-.47-.57s24.32-11.45 30.95 10.15 24.1 9.03 24.1 9.03z" transform="translate(-224 -153)"/>
  <path fill="#666" d="M325.3 263.45c.27.58-.09.89-.8 1.43a.4.4 0 00-.18.47c-9.63 3.68-21.07.55-21.07.55-.28-.23-.63-.46-.85-.67-.54-.49.8-1.34.8-1.34s.85-.84-.22-1.33c0 0 12.72 2.63 21.34-.49-.49.4.68.8.98 1.38z" transform="translate(-224 -153)"/>
  <path fill="#666" d="M325 259.66c1 .49-.22 2-.71 2.41-8.62 3.12-21.34.49-21.34.49-1.07-.49-.41-1.12-.41-1.12s1.83-1.29.81-1.83-1-.75-1-.75 9.31 2.4 22.5-.32a.6.6 0 00.15 1.12z" transform="translate(-224 -153)"/>
  <path fill="#666" d="M324.54 268l-.38.65-.08-.05c-9.94 3.62-20.52.65-20.74.58-.07-.22-.21-.37-.68-.63-.71-.4.09-1.16.81-1.65.41-.29.17-.61-.22-.94 0 0 11.44 3.13 21.07-.55a2.05 2.05 0 00.72.88.54.54 0 01.19.51 1.69 1.69 0 01-.69 1.2z" transform="translate(-224 -153)"/>
  <path fill="#666" d="M324.08 268.55l.08.05c-1.21 2-5 8.23-6.18 8.56-.31.08-6.36.48-7.46-.27-2.46-1.68-7.1-7.33-7.1-7.33a2.78 2.78 0 00-.08-.43c.22.07 10.8 3.04 20.74-.58z" transform="translate(-224 -153)"/>
  <path fill="#666" d="M302.4 258.86l.18-5.07.08.1c2 2.62 8.1 2.38 12.74 2.5 4 .1 8-.23 10-1.54a12.53 12.53 0 000 2.4c.13 1.21-.49 1.29-.49 1.29-13.2 2.72-22.51.32-22.51.32z" transform="translate(-224 -153)"/>
  <path fill="#666" d="M290.47 306.74a1.63 1.63 0 00.11.66 1.66 1.66 0 00.51.74c-.29.16-20.87 11.32-26.29-9-6.07-22.74-30.56-10.85-30.73-10.49v-1.61s24.92-11.73 31.71 10.4 24.69 9.26 24.69 9.26z" transform="translate(-224 -153)"/>
  <path fill="none" stroke="#333" stroke-miterlimit="10" d="M290.47 306.74s-17.9 12.87-24.69-9.26-31.71-10.4-31.71-10.4v1.61c.17-.36 24.66-12.25 30.73 10.49 5.42 20.28 26 9.12 26.29 9h0" transform="translate(-224 -153)"/>
  <path fill="none" stroke="#333" stroke-miterlimit="10" d="M292.8 304.88s-2.27.41-2.33 1.86a1.63 1.63 0 00.11.66 1.66 1.66 0 00.51.74c1 .85 2.83 0 2.83 0" transform="translate(-224 -153)"/>
  <path fill="none" stroke="#333" stroke-miterlimit="10" d="M311.26 307.48l-12 4.61a3.1 3.1 0 01-4-1.77l-.93-2.39-1.22-3.18-1.7-4.38a3.41 3.41 0 012-4.4l11.67-4.5c-1.16-2.41.32-3.25 1.41-.55s5.07 12.59 6.19 16c.75 2.08-.39 2.66-1.42.56z" transform="translate(-224 -153)"/>
  <path fill="none" stroke="#333" stroke-miterlimit="10" d="M87.26 154.48l-6.19-16.01"/>
  <path fill="none" stroke="#333" stroke-miterlimit="10" d="M79.89 142.89l3.58 9.26"/>
  <path fill="none" stroke="#333" stroke-miterlimit="10" d="M78.78 144.94l2.43 6.28"/>
  <path fill="none" stroke="#333" stroke-miterlimit="10" d="M77.95 147.21l1.11 2.89"/>
  <path fill="none" stroke="#333" stroke-miterlimit="10" d="M341.16 285c.15-.35 23.41-11.52 29.34 10.67 5.33 19.94 25.06 8.88 25.06 8.88V303s-17.47 12.56-24.1-9-30.95-10.15-30.95-10.15" transform="translate(-224 -153)"/>
  <path fill="none" stroke="#333" stroke-miterlimit="10" d="M339 287.33s2.4-.84 2.2-2.36a1.65 1.65 0 00-.18-.56 1.69 1.69 0 00-.47-.57c-1.15-.87-3.1.43-3.1.43" transform="translate(-224 -153)"/>
  <path fill="none" stroke="#333" stroke-miterlimit="10" d="M316.73 286.52l14.54-6.52 7 15.66-14.53 6.49c1.28 2.34-.14 3.26-1.38.62-.38-.8-1-2.17-1.77-3.81-.18-.38-.36-.77-.54-1.18-.71-1.53-1.47-3.21-2.19-4.81l-.53-1.19c-.85-1.91-1.58-3.6-2-4.67-.85-2.03.25-2.64 1.4-.59z" transform="translate(-224 -153)"/>
  <path fill="none" stroke="#333" stroke-miterlimit="10" d="M92.73 133.52l2.95 6.59"/>
  <path fill="none" stroke="#333" stroke-miterlimit="10" d="M95.68 140.11l1.63 3.62"/>
  <path fill="none" stroke="#333" stroke-miterlimit="10" d="M97.31 143.73l2.44 5.45"/>
  <path fill="none" stroke="#333" stroke-miterlimit="10" d="M317.34 291.81l-5.25 2.35a.54.54 0 00-.29.67l.1.27a.52.52 0 00.72.31l5.25-2.41" transform="translate(-224 -153)"/>
  <path fill="none" stroke="#333" stroke-miterlimit="10" d="M320.06 297.81l-5.06 2.34a.49.49 0 00-.23.66l.1.21a.58.58 0 00.75.27l5-2.3" transform="translate(-224 -153)"/>
  <path fill="none" stroke="#333" stroke-miterlimit="10" d="M95.68 140.11l7.02-3.26 1.66 3.64-7.05 3.24"/>
  <path fill="none" stroke="#333" stroke-miterlimit="10" d="M331.27 280l.56-.23a.29.29 0 01.39.15l1 2.28 4.35 9.61 1.44 3.17a.31.31 0 01-.16.42l-.61.26" transform="translate(-224 -153)"/>
  <path fill="none" stroke="#333" stroke-miterlimit="10" d="M333.26 282.23l1.65-.65a1.21 1.21 0 011.55.63l.93 2.07 1.4 3.12.95 2.14a1.24 1.24 0 01-.65 1.66l-1.47.64" transform="translate(-224 -153)"/>
  <path fill="none" stroke="#333" stroke-miterlimit="10" d="M302.58 253.79c-1.93-2.62-1.7-6.55-1.7-6.55a22.94 22.94 0 00-2.41-9c-2.19-3.78-5.69-8.09-5.81-17.13s6.79-15.1 6.79-15.1 6.91-6.66 15.95-5.94c0 0 16-.36 21.08 16.64 0 0 2.73 11.41-4.53 19 0 0-2.74 4.4-3 6.19s-.84 6.06-.84 6.06-.44 4.28-1.95 6.18a3.16 3.16 0 01-.81.72c-2 1.31-6 1.64-10 1.54-4.64-.12-10.71.12-12.74-2.5z" transform="translate(-224 -153)"/>
  <path fill="none" stroke="#333" stroke-miterlimit="10" d="M303.34 269.13a2.78 2.78 0 01.08.43s4.64 5.65 7.1 7.33c1.1.75 7.15.35 7.46.27 1.2-.33 5-6.52 6.18-8.56l.38-.65a1.69 1.69 0 00.69-1.21.54.54 0 00-.19-.51 2.05 2.05 0 01-.72-.88.4.4 0 01.18-.47c.71-.54 1.07-.85.8-1.43s-1.47-1-1-1.38 1.69-1.92.71-2.41a.6.6 0 01-.13-1.12s.62-.08.49-1.29a12.53 12.53 0 010-2.4h0" transform="translate(-224 -153)"/>
  <path fill="none" stroke="#333" stroke-miterlimit="10" d="M302.58 253.79l-.18 5.07s0 .22 1 .75-.81 1.83-.81 1.83-.66.63.41 1.12.22 1.33.22 1.33-1.34.85-.8 1.34c.22.21.57.44.85.67s.63.65.22.94c-.72.49-1.52 1.25-.81 1.65.47.26.61.41.68.63" transform="translate(-224 -153)"/>
  <path fill="none" stroke="#333" stroke-miterlimit="10" d="M302.4 258.86s9.31 2.4 22.5-.32" transform="translate(-224 -153)"/>
  <path fill="none" stroke="#333" stroke-miterlimit="10" d="M303 262.56s12.72 2.63 21.34-.49" transform="translate(-224 -153)"/>
  <path fill="none" stroke="#333" stroke-miterlimit="10" d="M303.25 265.9s11.44 3.13 21.07-.55" transform="translate(-224 -153)"/>
  <path fill="none" stroke="#333" stroke-miterlimit="10" d="M303.34 269.12h0c.22.07 10.8 3 20.74-.58" transform="translate(-224 -153)"/>
  <path fill="none" stroke="#333" stroke-miterlimit="10" d="M303.56 210.4c-1 1.89-1.07 3.81-.16 4.29s2.46-.66 3.45-2.55 1.07-3.81.16-4.29-2.46.67-3.45 2.55z" transform="translate(-224 -153)"/>
  <path fill="none" stroke="#333" stroke-miterlimit="10" d="M299.19 214.73c-.48 1.1-1.19 1.86-1.57 1.7s-.3-1.21.18-2.31 1.19-1.87 1.58-1.7.3 1.2-.19 2.31z" transform="translate(-224 -153)"/>
</svg>
