<svg xmlns="http://www.w3.org/2000/svg" viewBox="0 0 181 181">
  <g id="borders" fill="none">
    <path stroke="#333" visibility='hidden' stroke-miterlimit="10" d="M.5.5h180v180H.5z"/>
    <path stroke="#000" visibility='hidden' stroke-linecap="round" stroke-linejoin="round" stroke-width=".5" d="M171.74 171H10V9h161.74v162z"/>
  </g>
  <g id="bulb_bottom" fill="none" stroke="#000" stroke-linecap="round" stroke-linejoin="round" stroke-width=".5">
    <path d="M100.08 115.55l.08.05"/>
    <path d="M78.58 100.79l-.18 5.07s0 .22 1 .76-.81 1.82-.81 1.82-.67.63.41 1.12.22 1.34.22 1.34-1.34.84-.8 1.33 1.78 1.12 1.07 1.61-1.52 1.25-.81 1.65.67.53.76 1.07c0 0 4.64 5.65 7.1 7.33 1.1.75 7.15.35 7.46.27 1.44-.4 6.56-9.21 6.56-9.21a1.69 1.69 0 00.69-1.22.53.53 0 00-.19-.5c-.38-.3-1.08-1-.54-1.35.71-.54 1.07-.85.8-1.43s-1.47-1-1-1.38 1.69-1.92.71-2.41a.6.6 0 01-.13-1.11s.62-.09.49-1.3a13.23 13.23 0 010-2.4"/>
    <path d="M78.4 105.86s9.31 2.4 22.5-.31"/>
    <path d="M79 109.56s12.72 2.63 21.34-.49"/>
    <path d="M79.25 112.9s11.44 3.13 21.07-.55"/>
    <path d="M79.34 116.12s10.7 3.09 20.74-.57"/>
  </g>
  <g id="left_plug" fill="none" stroke="#000" stroke-linecap="round" stroke-linejoin="round" stroke-width=".5">
    <path d="M66.47 153.74s-17.9 12.87-24.69-9.26-31.71-10.4-31.71-10.4v1.61c.17-.36 24.66-12.25 30.73 10.49 5.46 20.43 26.29 9 26.29 9"/>
    <path d="M68.8 151.88s-2.94.54-2.22 2.52 3.34.7 3.34.7"/>
    <path d="M87.26 154.48l-12 4.61a3.1 3.1 0 01-4-1.77l-3.85-9.95a3.4 3.4 0 012-4.4l11.67-4.5c-1.16-2.41.31-3.25 1.41-.55s5.07 12.59 6.19 16c.76 2.08-.39 2.66-1.42.56z"/>
    <path d="M81.07 138.47l6.19 16z"/>
    <path d="M79.89 142.89l3.58 9.26"/>
    <path d="M78.78 144.94l2.43 6.28"/>
    <path d="M77.95 147.21l1.11 2.88"/>
  </g>
  <g id="right_plug" fill="none" stroke="#000" stroke-linecap="round" stroke-linejoin="round" stroke-width=".5">
    <path d="M117.16 132c.15-.35 23.41-11.52 29.34 10.67 5.33 19.94 25.06 8.88 25.06 8.88V150s-17.47 12.56-24.1-9-30.95-10.15-30.95-10.15"/>
    <path d="M115 134.33s3-1 2-2.92-3.57-.14-3.57-.14"/>
    <path d="M92.73 133.52l14.54-6.52 7 15.66-14.53 6.49c1.28 2.34-.14 3.26-1.38.62s-5.72-12.3-7-15.66c-.88-2.03.23-2.64 1.37-.59z"/>
    <path d="M99.75 149.18l-7-15.66z"/>
    <path d="M93.34 138.81l-5.25 2.36a.53.53 0 00-.29.66l.1.27a.52.52 0 00.71.31l5.26-2.41"/>
    <path d="M96.06 144.82L91 147.15a.49.49 0 00-.23.66l.1.21a.58.58 0 00.75.27l5-2.3"/>
    <path d="M95.69 140.11l7.02-3.26 1.65 3.64-7.05 3.24"/>
    <path d="M107.27 127l.56-.24a.32.32 0 01.4.16l6.82 15.08a.31.31 0 01-.16.42l-.61.26"/>
    <path d="M109.26 129.23l1.65-.65a1.21 1.21 0 011.55.63l3.28 7.33a1.24 1.24 0 01-.65 1.66l-1.47.64"/>
  </g>
  <g id="bulb" fill="none" stroke="#000" stroke-linecap="round" stroke-linejoin="round" stroke-width=".5">
    <path d="M91.4 47s16-.36 21.08 16.64c0 0 2.74 11.41-4.53 19 0 0-2.74 4.4-3 6.19s-.84 6.06-.84 6.06-.44 4.28-1.95 6.18-6.14 2.38-10.79 2.26-10.71.12-12.74-2.5-1.78-6.65-1.78-6.65a22.94 22.94 0 00-2.41-9c-2.19-3.78-5.69-8.09-5.81-17.13s6.79-15.1 6.79-15.1S82.35 46.32 91.4 47z"/>
    <ellipse cx="305.21" cy="211.27" rx="3.87" ry="1.86" transform="rotate(-62.19 66.363 320.477)"/>
    <ellipse cx="298.5" cy="214.42" rx="2.19" ry=".76" transform="rotate(-66.34 69.46 309.272)"/>
  </g>
</svg>
