<svg xmlns="http://www.w3.org/2000/svg" id="Layer_1" data-name="Layer 1" viewBox="0 0 181 181.69">
  <path fill="none" stroke="#333" stroke-miterlimit="10" d="M280.49 159.67a3.09 3.09 0 00-.14-.32c-2.4-5.13-6.62-5.81-8-5.46s-1.22.71-2 2-1 11.41-1 11.41-.07 5.86-1.15 7.5a20.86 20.86 0 00-1.79 3.57 64.76 64.76 0 00-2.58 8.34c-1.36 5.43-1.86 6.28-1.86 6.28s-2.44 9.07-4.38 13.78-1.86 6.78-1.86 6.78l-.22 4.14s.5 16 .58 21.55-.36 12.49-.36 12.49 0 9.27-2.3 12.41-7.6 15.7-7.6 15.7L289.58 300l3.71-10.76a22.85 22.85 0 014.52-5.62c2.64-2.19 6.08-7.49 6.08-7.49l12-15.09 4.63-6.16a41.36 41.36 0 003.33-6c.86-2.31 2.53-3.38 3.87-6.11s1.35-3.69 1.35-3.69a2 2 0 001.39-1.48" transform="translate(-209 -119)"/>
  <path fill="none" stroke="#333" stroke-miterlimit="10" d="M280.46 194.89c0-11.58-.09-24.33-.11-35.54 0-17.17 0-30.73.14-30.94.43-.57.87-7.42 7-7.56s42.59-.29 42.59-.29 7 1.29 7.31 7.57c.1 2.12.15 14.46.17 29.86v72.19s.07 7.34-7.07 7.39-42.83.11-42.83.11-7-.18-7-7.21c0 0-.05-8.47-.11-20.53" transform="translate(-209 -119)"/>
  <path fill="none" stroke="#333" stroke-miterlimit="10" d="M280.53 209.92v-1.12c0-4.29 0-9-.07-13.91" transform="translate(-209 -119)"/>
  <path fill="none" stroke="#333" stroke-miterlimit="10" d="M337.6 172.16s1.64.55 5.67-.54l.35-.1c3.86-1.13 6.83-3.52 8.38-4.55s2.08-2.66 1.84-5.16-2.95-3.75-3.67-4a43.39 43.39 0 00-5.66-.2l-6.91.39" transform="translate(-209 -119)"/>
  <path fill="none" stroke="#333" stroke-miterlimit="10" d="M343.62 171.52a48.74 48.74 0 013.38 5c.89 1.73.41 6.92.41 6.92s.11 3.34.15 5.34v1.41c0 .61-.21 1.48-3.21 2.14a6.09 6.09 0 01-3.57-.41 8.12 8.12 0 01-3.19-2.27" transform="translate(-209 -119)"/>
  <path fill="none" stroke="#333" stroke-miterlimit="10" d="M347.58 188.75s3.54 1.64 3.93 4.07a10.64 10.64 0 010 4s-1 1.89-2.33 5.14-1.6 3.89-1.6 5.07a4.13 4.13 0 01-2.3 4.21c-1.78 1-4.15.28-5.19-.11-.32-.12-.51-.21-.51-.21a3.87 3.87 0 01-2-2.07" transform="translate(-209 -119)"/>
  <path fill="none" stroke="#333" stroke-miterlimit="10" d="M347.58 207s2-.68 3.61 2a6 6 0 01.93 4.75c0 .35-2.2 4.64-2.2 4.64s-3.25 4.24-3.57 4.85a6 6 0 01-3.44 2.85c-2.22.79-5.33-1-5.33-1" transform="translate(-209 -119)"/>
  <path fill="none" stroke="#333" stroke-miterlimit="10" d="M337.58 213.8a.08.08 0 010 0 9.83 9.83 0 012.5-2.65" transform="translate(-209 -119)"/>
  <path fill="none" stroke="#333" stroke-miterlimit="10" d="M337.6 195.74a6.46 6.46 0 013.19-3.85" transform="translate(-209 -119)"/>
  <ellipse cx="100.1" cy="111.24" fill="none" stroke="#333" stroke-miterlimit="10" rx="4.52" ry="4.5"/>
  <path fill="none" stroke="#333" stroke-miterlimit="10" d="M74.91 15.97l50.57.19V105H74.91V15.97z"/>
  <rect width="18.21" height="1.43" x="89.99" y="7.99" fill="none" stroke="#333" stroke-miterlimit="10" rx=".51" ry=".51"/>
  <path fill="none" stroke="#333" stroke-miterlimit="10" d="M280.46 194.89h0c0 .24-.26 7-1.47 7.86a37.63 37.63 0 011.54 6.05 4.16 4.16 0 010 1.12h0" transform="translate(-209 -119)"/>
  <path fill="none" stroke="#333" stroke-miterlimit="10" d="M.5.5h180v180H.5z"/>
</svg>
