<svg xmlns="http://www.w3.org/2000/svg" viewBox="0 0 438.55 432">
  <path id="Border" d="M503 1v430H73V1h430m1-1H72v432h432V0z" transform="translate(-68.37)"/>
  <g id="OpenMenu" fill="none" stroke="#575a5e" stroke-miterlimit="10" stroke-width="4">
    <path d="M76.63 341.5h287"/>
    <path d="M75.63 215.5h287"/>
    <path d="M75.63 90.5h287"/>
  </g>
  <g id="Goat">
    <path fill="none" stroke="#575a5e" stroke-miterlimit="10" stroke-width="5" d="M367.74 135.84l11.9 47.23.44 12.47-27.77 192.88h-13.88l-13.89-123.99-55.2 20.66-196.28-6.94 1.08-9.61-13.43 119.88h-10.8L32.94 264.43 5.17 209.32l13.89-55.11-15.43-19.9 9.25-6.12 12.35 12.25h285.43l27.77-55.11-13.89-13.78-41.66 13.78L324.54 44l97.2 55.11 13.89 27.55L416.77 152l-11.4-11.56-12.76-12.03-12.97 54.66"/>
    <g id="CloseIcon">
      <path id="DiagTop" fill="none" stroke="#ff4242" stroke-miterlimit="10" stroke-width="4" d="M273.63 261l-144-108"/>
      <path id="DiagBot" fill="none" stroke="#ff4242" stroke-miterlimit="10" stroke-width="4" d="M129.63 261l144-108"/>
    </g>
  </g>
</svg>
