<svg xmlns="http://www.w3.org/2000/svg" viewBox="0 0 436.98 432">
  <path id="Border" d="M503 1v430H73V1h430m1-1H72v432h432V0z" transform="translate(-69.66)"/>
  <g id="OpenMenu" fill="none" stroke="#575a5e" stroke-miterlimit="10" stroke-width="4">
    <path d="M75.34 341.5h287"/>
    <path d="M74.34 215.5h287"/>
    <path d="M74.34 90.5h287"/>
  </g>
  <g id="Goat">
    <path fill="#575a5e" d="M93.6 143.94H379c3.22 0 3.22-5 0-5H93.6c-3.22 0-3.22 5 0 5z" transform="translate(-69.66)"/>
    <path fill="#575a5e" d="M95.37 139.67L83 127.42c-2.28-2.27-5.82 1.27-3.53 3.54l12.34 12.25c2.29 2.26 5.83-1.27 3.54-3.54z" transform="translate(-69.66)"/>
    <path fill="#575a5e" d="M70.23 137.08L85.66 157c2 2.54 5.49-1 3.54-3.53l-15.43-19.9c-2-2.54-5.49 1-3.54 3.53z" transform="translate(-69.66)"/>
    <path fill="#575a5e" d="M85 154.55l-13.87 55.11c-.78 3.12 4 4.45 4.82 1.33l13.89-55.11c.79-3.12-4-4.45-4.82-1.33z" transform="translate(-69.66)"/>
    <path fill="#575a5e" d="M71.38 211.58l27.78 55.11c1.44 2.87 5.76.35 4.31-2.52L75.7 209.06c-1.45-2.87-5.76-.35-4.32 2.52z" transform="translate(-69.66)"/>
    <path fill="#575a5e" d="M98.9 266.09l14.86 108.53 2.12 15.46c.43 3.18 5.25 1.83 4.82-1.32l-14.86-108.54-2.12-15.46c-.43-3.17-5.25-1.82-4.82 1.33z" transform="translate(-69.66)"/>
    <path fill="#575a5e" d="M131.59 389.42l11.74-104.91 1.68-15c.36-3.2-4.64-3.17-5 0l-11.75 104.9-1.67 15c-.36 3.19 4.64 3.17 5 0z" transform="translate(-69.66)"/>
    <path fill="#575a5e" d="M143 281.71l66 2.29 104.61 3.7 24.15.85c3.22.12 3.22-4.88 0-5l-66-2.33-104.61-3.7-24.15-.81c-3.22-.12-3.21 4.88 0 5z" transform="translate(-69.66)"/>
    <path fill="#575a5e" d="M338.38 288.5l55.2-20.66c3-1.12 1.69-5.95-1.33-4.82l-55.2 20.66c-3 1.12-1.69 6 1.33 4.82z" transform="translate(-69.66)"/>
    <path fill="#575a5e" d="M390.41 265.43L402.57 374l1.73 15.46c.35 3.16 5.36 3.2 5 0l-12.15-108.57-1.74-15.46c-.35-3.16-5.35-3.2-5 0z" transform="translate(-69.66)"/>
    <path fill="#575a5e" d="M423.1 390.08l9.4-65.34 14.92-103.6 3.45-23.93c.45-3.15-4.37-4.51-4.82-1.33l-9.41 65.34-14.92 103.61-3.44 23.93c-.46 3.14 4.36 4.5 4.82 1.32z" transform="translate(-69.66)"/>
    <path fill="#575a5e" d="M450.42 184.73l13-54.66c.75-3.13-4.07-4.46-4.82-1.33l-13 54.66c-.74 3.13 4.08 4.47 4.82 1.33z" transform="translate(-69.66)"/>
    <path fill="#575a5e" d="M450.42 183.4l-11.9-47.22c-.78-3.12-5.6-1.8-4.82 1.33l11.9 47.22c.79 3.12 5.61 1.8 4.82-1.33z" transform="translate(-69.66)"/>
    <path fill="#575a5e" d="M381.19 142.7L409 87.59c1.44-2.86-2.87-5.4-4.32-2.52l-27.77 55.11c-1.44 2.86 2.87 5.4 4.32 2.52z" transform="translate(-69.66)"/>
    <path fill="#575a5e" d="M408.57 84.56l-13.89-13.77c-2.28-2.27-5.82 1.26-3.53 3.53L405 88.1c2.29 2.27 5.83-1.27 3.54-3.54z" transform="translate(-69.66)"/>
    <path fill="#575a5e" d="M392.25 70.14l-41.66 13.78c-3 1-1.74 5.84 1.33 4.82L393.58 75c3-1 1.74-5.83-1.33-4.82z" transform="translate(-69.66)"/>
    <path fill="#575a5e" d="M353 88.1l41.66-41.33c2.29-2.27-1.25-5.81-3.53-3.54l-41.64 41.33c-2.29 2.27 1.25 5.81 3.53 3.54z" transform="translate(-69.66)"/>
    <path fill="#575a5e" d="M391.65 47.16l85.14 48.26 12.06 6.85c2.81 1.59 5.33-2.73 2.53-4.32l-85.14-48.27-12.06-6.84c-2.81-1.59-5.33 2.73-2.53 4.32z" transform="translate(-69.66)"/>
    <path fill="#575a5e" d="M488 101.37l13.88 27.55c1.45 2.88 5.76.35 4.32-2.52l-13.93-27.55c-1.45-2.88-5.76-.35-4.31 2.52z" transform="translate(-69.66)"/>
    <path fill="#575a5e" d="M501.84 126.4L483 151.74c-1.92 2.58 2.42 5.08 4.32 2.52l18.86-25.34c1.92-2.58-2.42-5.08-4.32-2.52z" transform="translate(-69.66)"/>
    <path fill="#575a5e" d="M486.91 151.24l-11.4-11.57c-2.26-2.3-5.8 1.24-3.53 3.54l11.4 11.56c2.26 2.3 5.79-1.24 3.53-3.53z" transform="translate(-69.66)"/>
    <g id="CloseIcon">
      <path id="DiagTop" fill="none" stroke="#ff4242" stroke-miterlimit="10" stroke-width="4" d="M272.34 261l-144-108"/>
      <path id="DiagBot" fill="none" stroke="#ff4242" stroke-miterlimit="10" stroke-width="4" d="M128.34 261l144-108"/>
    </g>
  </g>
</svg>
