<svg xmlns="http://www.w3.org/2000/svg" viewBox="0 0 426.73 977.13">
  <g id="rocket_trail">
    <path fill="#d3d3d3" opacity='0' d="M239.53 728.89c-15.4 5.06-45.9 7.23-77-35.06a3.93 3.93 0 00-2.79-1.59h-.39a4 4 0 00-2.65 1C140.36 708.07 119.35 712 99.09 704c-20-7.88-34.54-25.4-36.08-43.59-1.38-16.21 7.52-30.62 25.73-41.64a4 4 0 00.42-6.46C71.41 598.13 63.18 581 66 564c2.42-14.75 13.21-27.3 28.15-32.74 18.68-6.8 40.06-1.54 58.66 14.44a4 4 0 005.47-.32c21.38-23.22 44.68-21.83 56.66-18.95 19.85 4.79 36.59 20.22 41.65 38.41 4.61 16.56-.77 33.52-15.15 47.73a3.95 3.95 0 001.54 6.56c26.29 8.59 40.78 26 40.79 49-.03 26.38-19.03 52.49-44.24 60.76z" transform="translate(0 .02)"/>
    <path fill="#bcbcbc" opacity='0' d="M347.52 801.24c-16.12 5.29-48 7.56-80.53-36.68a4.1 4.1 0 00-2.91-1.66h-.41a4.12 4.12 0 00-2.77 1.1c-17.12 15.51-39.09 19.61-60.29 11.26-21-8.24-36.13-26.56-37.74-45.59-1.44-17 7.86-32 26.91-43.56a4.13 4.13 0 00.44-6.76c-18.56-14.84-27.17-32.79-24.26-50.53 2.53-15.42 13.81-28.55 29.44-34.24 19.54-7.11 41.9-1.61 61.36 15.1a4.13 4.13 0 005.72-.33c22.37-24.29 46.74-22.84 59.27-19.82 20.77 5 38.28 21.15 43.57 40.17 4.83 17.33-.81 35.07-15.85 49.94a4.11 4.11 0 001.62 6.85c27.5 9 42.65 27.2 42.66 51.27.01 27.51-19.86 54.82-46.23 63.48z" transform="translate(0 .02)"/>
    <path fill="#e0e0e0" opacity='0' d="M249.94 919.42c-17.82 6.44-53.11 9.2-89.08-44.64a4.47 4.47 0 00-3.22-2 3.55 3.55 0 00-.46 0 4.32 4.32 0 00-3.06 1.3c-18.94 18.88-43.25 23.87-66.7 13.71-23.19-10-40-32.33-41.75-55.48-1.6-20.65 8.7-39 29.77-53a5.12 5.12 0 002.19-4 5.26 5.26 0 00-1.7-4.25C55.39 753 45.86 731.11 49.09 709.53a53.35 53.35 0 0132.57-41.68c21.61-8.65 46.35-2 67.88 18.38a4.28 4.28 0 006.33-.41c24.75-29.55 51.7-27.78 65.56-24.11 23 6.09 42.36 25.74 48.21 48.88 5.34 21.1-.89 42.68-17.54 60.78a5.34 5.34 0 00-1.23 4.72 4.88 4.88 0 003 3.62c30.42 10.94 47.19 33.1 47.2 62.39.04 33.55-21.95 66.78-51.13 77.32z" transform="translate(0 .02)"/>
    <path fill="#d3d3d3" opacity='0' d="M367.16 973.73c-17.83 6.44-53.11 9.2-89.09-44.64a4.45 4.45 0 00-3.22-2 3.4 3.4 0 00-.45 0 4.34 4.34 0 00-3.07 1.3c-18.94 18.88-43.24 23.87-66.7 13.71-23.18-10-40-32.33-41.74-55.48-1.6-20.65 8.7-39 29.77-53a5.15 5.15 0 002.19-4 5.27 5.27 0 00-1.71-4.25c-20.53-18.07-30.06-39.91-26.84-61.49a53.37 53.37 0 0132.57-41.68c21.62-8.65 46.36-1.95 67.89 18.38a4.28 4.28 0 006.33-.41c24.74-29.55 51.7-27.78 65.56-24.11 23 6.09 42.35 25.74 48.21 48.88 5.33 21.1-.9 42.68-17.54 60.78a5.38 5.38 0 00-1.24 4.72 4.89 4.89 0 003 3.62c30.42 10.94 47.18 33.1 47.2 62.39.04 33.55-21.95 66.74-51.12 77.28z" transform="translate(0 .02)"/>
  </g>
  <g id="Ship" stroke="#808489" stroke-width="10">
    <path id="path2382" fill="none" d="M211.77 5C181 29.51-55.68 234.9 123.59 628.22h179.25C482.1 234.9 245.44 29.54 214.65 5z" transform="translate(0 .02)"/>
    <path id="path2394" fill="none" d="M92.42 168.5H329.8" transform="translate(0 .02)"/>
    <path id="path2417" fill="none" d="M100.5 573.57h224.25" transform="translate(0 .02)"/>
    <path id="rect2414" fill="none" stroke-linecap="round" d="M204.12 468.52h18.18v272.74h-18.18V468.52z" transform="translate(0 .02)"/>
    <path id="path3211" fill="none" d="M358.55 470.54S465.63 469.2 401 741.26c0 0-6.06-227.16-62.63-199.16" transform="translate(0 .02)"/>
    <path id="path3215" fill="none" d="M68.18 470.54S-38.9 469.2 25.75 741.26c0 0 6.06-227.16 62.63-199.16" transform="translate(0 .02)"/>
  </g>
</svg>
