<svg xmlns="http://www.w3.org/2000/svg" viewBox="0 0 426.729 746.258">
  <g id="layer1" externalResourcesRequired="false">
    <g id="g3243" externalResourcesRequired="false">
      <path id="path3217" fill="#ececec" fill-rule="evenodd" stroke="#000" stroke-width="10" d="M211.772 5c-30.79 24.506-267.457 229.896-88.187 623.219h179.25C482.103 234.898 245.438 29.538 214.647 5.03L211.772 5z"/>
      <path id="path3219" fill="#ccc" fill-rule="nonzero" stroke-linecap="round" stroke-miterlimit="4" stroke-width="8" d="M219.194 259.648c-37.293 0-67.625 30.363-67.625 67.656 0 37.294 30.332 67.625 67.625 67.625 37.294 0 67.657-30.331 67.657-67.625 0-37.293-30.363-67.656-67.657-67.656zm0 8c32.965 0 59.657 26.692 59.657 59.656 0 32.965-26.692 59.625-59.657 59.625-32.964 0-59.625-26.66-59.625-59.625 0-32.964 26.66-59.656 59.625-59.656z"/>
      <path id="path2419" fill="red" fill-rule="evenodd" stroke="#000" stroke-width="1" d="M92.419 166.481l43.436-79.802 60.61-68.69 17.172-13.132 64.65 67.68 50.508 81.822 4.04 17.173-241.426-1.01"/>
      <path id="path2408" fill="red" fill-rule="evenodd" stroke="#000" stroke-width="10" d="M68.175 470.537S-38.9 469.203 25.75 741.257c0 0 6.06-227.16 62.63-199.154"/>
      <path id="path2410" fill="red" fill-rule="evenodd" stroke="#000" stroke-width="10" d="M358.553 470.537s107.077-1.334 42.427 270.72c0 0-6.061-227.16-62.63-199.154"/>
      <path id="path2423" fill="#b3b3b3" fill-rule="evenodd" stroke="#000" stroke-width="1" d="M97.47 572.562l26.264 55.559 179.807-1.01 21.213-54.549H97.47z"/>
      <path id="path3209" fill="#d20000" fill-rule="evenodd" stroke-width="1" d="M383.343 497.811L363.14 548.32l-12.122-10.102-14.142 6.061 19.193-75.761 34.345 17.172s59.599 41.417 13.132 247.488c27.274-213.143-21.213-235.366-20.203-235.366z"/>
      <path id="path3213" fill="#d20000" fill-rule="evenodd" stroke-width="1" d="M22.718 738.227s-10.06-220.368 58.59-221.223c7.575-.094 7.07 24.244 7.07 24.244l-27.274 6.06-21.213 66.67-17.173 124.25z"/>
      <path id="path3232" fill="#999" fill-rule="evenodd" stroke-width="1" d="M258.875 572.567c4.053 12.21 6.448 29.248 5.281 53.531.862.304 1.776.73 2.719 1.219l36.656-.219 17.094-43.937c-.69-3.755-1.486-7.105-2.25-10.594h-59.5z"/>
      <path id="path3227" fill="#ccc" fill-rule="evenodd" stroke-width="1" d="M232.845 465.92c-6.818-.504-11.125.563-11.125.563l-5.062 77.782s24.335-4.806 35.812 28.312h59.625c-19.366-90.309-59.667-105.206-79.25-106.656z"/>
      <path id="path3241" fill="#ccc" fill-rule="evenodd" stroke-width="1" d="M100.312 577.085l20 50 28 2-8-57-40 5z"/>
      <path id="path2382" fill="#fff" fill-rule="evenodd" stroke="#000" stroke-width="10" d="M211.772 5c-30.79 24.506-267.457 229.896-88.187 623.219h179.25C482.103 234.898 245.438 29.538 214.647 5.031L211.772 5z"/>
      <path id="path2394" fill="none" fill-rule="evenodd" stroke="#000" stroke-width="10" d="M92.419 168.501h237.386"/>
      <path id="path2400" fill="#fff" fill-rule="nonzero" stroke="#000" stroke-linecap="round" stroke-miterlimit="4" stroke-width="8" d="M276.85 321.298a63.64 63.64 0 11-127.28 0 63.64 63.64 0 11127.28 0z"/>
      <path id="path2402" fill="#80e5ff" fill-rule="nonzero" stroke="#000" stroke-linecap="round" stroke-miterlimit="4" stroke-width="12.293" d="M254.626 321.298a41.416 41.416 0 11-82.833 0 41.416 41.416 0 1182.833 0z"/>
      <path id="path2417" fill="none" fill-rule="evenodd" stroke="#000" stroke-width="10" d="M100.5 573.573h224.254"/>
      <path id="rect2414" fill="#fff" fill-rule="nonzero" stroke="#000" stroke-linecap="round" stroke-miterlimit="4" stroke-width="10" d="M204.118 468.517h18.183v272.74h-18.183v-272.74z"/>
      <path id="path2425" fill="#fff" fill-rule="evenodd" stroke-width="1" d="M314.652 560.44s80.813-185.868 16.163-364.665c3.03 317.188-83.843 364.666-83.843 364.666h67.68z"/>
      <path id="rect2429" fill="#fff" fill-rule="nonzero" stroke-linecap="round" stroke-miterlimit="4" stroke-width="10" d="M360.056 32.286h34.47V116h-34.47z" transform="scale(.99546 1.00452) rotate(45)"/>
      <path id="path2431" fill="#fff" fill-rule="nonzero" stroke="#000" stroke-linecap="round" stroke-miterlimit="4" stroke-width="12.293" d="M254.626 321.298a41.416 41.416 0 11-82.833 0 41.416 41.416 0 1182.833 0z"/>
      <path id="path2437" fill="#fff" fill-rule="evenodd" stroke-width="1" d="M305.561 153.349S274.246 71.527 214.647 28.09c54.549 105.056 26.264 125.26 26.264 125.26l64.65-.001z"/>
      <path id="path3211" fill="#fff" fill-rule="evenodd" stroke="#000" stroke-width="10" d="M358.553 470.537s107.077-1.334 42.427 270.72c0 0-6.061-227.16-62.63-199.154"/>
      <path id="path3215" fill="#fff" fill-rule="evenodd" stroke="#000" stroke-width="10" d="M68.175 470.537S-38.9 469.203 25.75 741.257c0 0 6.06-227.16 62.63-199.154"/>
      <path id="path3237" fill="#fff" fill-rule="evenodd" stroke-width="1" d="M106.561 150.319s53.538-104.046 97.985-131.32c44.446-27.274-96.975 133.34-97.985 131.32z"/>
      <path id="path3239" fill="#fff" fill-rule="evenodd" stroke-width="1" d="M75.027 426.8c-3.164-1.757-22.724-145.961 25.714-235.715 29.867-24.039 70.502-11.396 68.571-1.428-16.726 86.35-75.47 247.59-94.285 237.143z"/>
    </g>
  </g>
</svg>
