<svg xmlns="http://www.w3.org/2000/svg" id="Layer_1" data-name="Layer 1" viewBox="0 0 181 181">
  <path fill="none" stroke="#333" stroke-miterlimit="10" d="M.5.5h180v180H.5z"/>
  <path fill="none" stroke="#333" stroke-miterlimit="10" d="M295 209.46l22.77-37.39a1.22 1.22 0 012.13 0l22.77 37.39" transform="translate(-229 -150)"/>
  <path fill="none" stroke="#333" stroke-miterlimit="10" d="M93.37 59.46h20.3l18.1 29.73"/>
  <path fill="none" stroke="#333" stroke-miterlimit="10" d="M47.9 89.19L66 59.46h27.37v29.73"/>
  <path fill="none" stroke="#333" stroke-miterlimit="10" d="M26.96 123.56L47.9 89.19h25.52"/>
  <path fill="none" stroke="#333" stroke-miterlimit="10" d="M119.97 89.19h11.8l20.94 34.37h-.54"/>
  <path fill="none" stroke="#333" stroke-miterlimit="10" d="M349 273.56h32.2a1 1 0 01.83.49l17.6 28.95a1.44 1.44 0 01.13.31 1 1 0 010 .55 1 1 0 01-1 .84H333.6a1 1 0 01-1-1.09" transform="translate(-229 -150)"/>
  <path fill="none" stroke="#333" stroke-miterlimit="10" d="M332.6 274.66a1.05 1.05 0 011-1.1" transform="translate(-229 -150)"/>
  <path fill="none" stroke="#333" stroke-miterlimit="10" d="M56.89 123.56h16.53"/>
  <path fill="none" stroke="#333" stroke-miterlimit="10" d="M103.6 123.56v31.12H56.89"/>
  <path fill="none" stroke="#333" stroke-miterlimit="10" d="M285.89 273.56v31.12h-46.74a1.16 1.16 0 01-1.11-1 1.1 1.1 0 010-.57 1 1 0 01.15-.4L256 273.56z" transform="translate(-229 -150)"/>
  <path fill="none" stroke="#333" stroke-miterlimit="10" d="M119.97 89.19v34.37H73.42V89.19h46.55z"/>
</svg>
