<svg xmlns="http://www.w3.org/2000/svg" id="Layer_1" data-name="Layer 1" viewBox="0 0 181 181">
  <path fill="none" stroke="#333" stroke-miterlimit="10" d="M.5.5h180v180H.5z"/>
  <path fill="#b3b3b3" d="M341.55 257.37A1.41 1.41 0 01342 259a57.67 57.67 0 01-4.6 4.61 1.19 1.19 0 01-1.51 0l-9.82-10.55a55.07 55.07 0 005.65-5.78l.35.3z" transform="translate(-229 -150)"/>
  <path fill="#333" d="M335.89 263.61a1.19 1.19 0 001.51 0A57.67 57.67 0 00342 259a1.41 1.41 0 00-.45-1.63c1.82-1.84 2.77-.36 2.77-.36s50.57 51.06 52.72 53.57a3.66 3.66 0 011 2.42 4.43 4.43 0 01-1 2.61s-.49 2-4.29 4.35a5.89 5.89 0 01-3 1 2.41 2.41 0 01-2.11-1s-53.55-53.07-53.38-54.74a1.62 1.62 0 011.63-1.61z" transform="translate(-229 -150)"/>
  <path fill="#999" d="M344.32 212.57a53.84 53.84 0 01-12.6 34.71 55.07 55.07 0 01-5.65 5.78 52.31 52.31 0 01-34.64 13.08c-29.21 0-52.89-24-52.89-53.57S262.22 159 291.43 159s52.89 24 52.89 53.57zm-2.32 0c0-28.19-22.55-51-50.38-51s-50.39 22.85-50.39 51 22.56 51 50.39 51 50.38-22.81 50.38-51z" transform="translate(-229 -150)"/>
  <path fill="none" stroke="#313335" stroke-miterlimit="10" d="M291.43 159c29.21 0 52.89 24 52.89 53.57a53.84 53.84 0 01-12.6 34.71 55.07 55.07 0 01-5.65 5.78 52.31 52.31 0 01-34.64 13.08c-29.21 0-52.89-24-52.89-53.57S262.22 159 291.43 159z" transform="translate(-229 -150)"/>
  <path fill="none" stroke="#313335" stroke-miterlimit="10" d="M342 212.57c0 28.19-22.55 51-50.38 51s-50.39-22.85-50.39-51 22.56-51 50.39-51 50.38 22.81 50.38 51z" transform="translate(-229 -150)"/>
  <path fill="none" stroke="#313335" stroke-miterlimit="10" d="M252.75 225.21c0 2.49-.7 4.52-1.56 4.52s-1.57-2-1.57-4.52.7-4.52 1.57-4.52 1.56 2.02 1.56 4.52z" transform="translate(-229 -150)"/>
  <ellipse cx="25.57" cy="86.09" fill="none" stroke="#313335" stroke-miterlimit="10" rx="1.16" ry="2.01"/>
  <path fill="none" stroke="#313335" stroke-miterlimit="10" d="M326.07 253.06l9.82 10.55a1.62 1.62 0 00-1.65 1.61c-.17 1.67 53.38 54.74 53.38 54.74a2.41 2.41 0 002.11 1 5.89 5.89 0 003-1c3.8-2.34 4.29-4.35 4.29-4.35a4.43 4.43 0 001-2.61 3.66 3.66 0 00-1-2.42c-2.15-2.51-52.72-53.57-52.72-53.57s-.95-1.48-2.77.36l-9.48-9.79" transform="translate(-229 -150)"/>
  <path fill="none" stroke="#313335" stroke-miterlimit="10" d="M335.89 263.61a1.19 1.19 0 001.51 0A57.67 57.67 0 00342 259a1.41 1.41 0 00-.45-1.63" transform="translate(-229 -150)"/>
</svg>
