<svg xmlns="http://www.w3.org/2000/svg" id="Layer_1" data-name="Layer 1" viewBox="0 0 181 181">
  <path fill="none" stroke="#333" stroke-miterlimit="10" d="M.5.5h180v180H.5z"/>
  <path fill="none" stroke="#333" stroke-miterlimit="10" d="M367.48 268.32a11.94 11.94 0 01-7.69 2.8h-100a12 12 0 01-12-12V206a12 12 0 0112-12h100a12 12 0 0112 12v53.09a12 12 0 01-4.31 9.23z" transform="translate(-229 -150)"/>
  <path fill="none" stroke="#333" stroke-miterlimit="10" d="M346 268.32h-82.5a12 12 0 01-12-12v-47.48a12 12 0 0112-12h92.67a12 12 0 0112 12v47.48a12 12 0 01-12 12H346z" transform="translate(-229 -150)"/>
  <path fill="none" stroke="#333" stroke-miterlimit="10" d="M24.37 118.32H17.68"/>
  <path fill="none" stroke="#333" stroke-miterlimit="10" d="M137.22 118.32H143.91"/>
  <path fill="none" stroke="#333" stroke-miterlimit="10" d="M116.96 118.32l-12.83-11.78.78-1.12 13.92 12.9 3.02 2.8 46.21 42.81-.58.75-47.46-43.56-3.06-2.8z"/>
</svg>
